# Blender v2.93.18 OBJ File: 'tools.blend'
# www.blender.org
mtllib candle.mtl
o candel_Cube.022
v -0.250000 -0.250000 0.250000
v 0.244032 0.040362 0.244032
v -0.250000 -0.250000 -0.250000
v 0.244032 0.040362 -0.244032
v 0.250000 -0.250000 0.250000
v -0.244032 0.040362 -0.244032
v 0.250000 -0.250000 -0.250000
v -0.244032 0.040362 0.244032
v -0.224139 -0.144971 0.224139
v -0.250000 -0.208278 0.250000
v -0.224139 -0.144971 -0.224139
v -0.250000 -0.208278 -0.250000
v 0.224139 -0.144971 0.224139
v 0.250000 -0.208278 0.250000
v 0.224139 -0.144971 -0.224139
v 0.250000 -0.208278 -0.250000
v 0.244032 -0.052344 0.244032
v -0.244032 -0.052344 0.244032
v -0.244032 -0.052344 -0.244032
v 0.244032 -0.052344 -0.244032
v -0.080467 -0.080467 0.080467
v -0.080467 0.245376 0.080467
v -0.080467 -0.080467 -0.080467
v -0.080467 0.245376 -0.080467
v 0.080467 -0.080467 0.080467
v 0.080467 0.245376 0.080467
v 0.080467 -0.080467 -0.080467
v 0.080467 0.245376 -0.080467
v -0.052282 0.150625 0.000000
v 0.052282 0.150625 0.000000
v -0.052282 0.389440 0.000000
v 0.052282 0.389440 0.000000
v 0.000000 0.150625 0.052282
v -0.000000 0.150625 -0.052282
v 0.000000 0.389440 0.052282
v -0.000000 0.389440 -0.052282
vt 0.255474 0.174050
vt 0.255474 0.004773
vt 0.171433 0.004773
vt 0.171433 0.174050
vt 0.340710 0.259285
vt 0.340710 0.175244
vt 0.171433 0.175244
vt 0.171433 0.259285
vt 0.340710 0.174050
vt 0.340710 0.004773
vt 0.256669 0.004773
vt 0.256669 0.174050
vt 0.340710 0.344520
vt 0.340710 0.260480
vt 0.171433 0.260480
vt 0.171433 0.344520
vt 0.170239 0.004773
vt 0.000963 0.004773
vt 0.000963 0.174050
vt 0.170239 0.174050
vt 0.425945 0.004773
vt 0.341904 0.004773
vt 0.341904 0.174050
vt 0.425945 0.174050
vt 0.000963 0.429756
vt 0.170239 0.429756
vt 0.170239 0.345715
vt 0.000963 0.345715
vt 0.425945 0.344520
vt 0.425945 0.175244
vt 0.341904 0.175244
vt 0.341904 0.344520
vt 0.171433 0.429756
vt 0.340710 0.429756
vt 0.340710 0.345715
vt 0.171433 0.345715
vt 0.511180 0.174050
vt 0.511180 0.004773
vt 0.427139 0.004773
vt 0.427139 0.174050
vt 0.170239 0.514991
vt 0.170239 0.430950
vt 0.000963 0.430950
vt 0.000963 0.514991
vt 0.511180 0.344520
vt 0.511180 0.175244
vt 0.427139 0.175244
vt 0.427139 0.344520
vt 0.171433 0.514991
vt 0.340710 0.514991
vt 0.340710 0.430950
vt 0.171433 0.430950
vt 0.425945 0.514991
vt 0.425945 0.345715
vt 0.341904 0.345715
vt 0.341904 0.514991
vt 0.170239 0.175244
vt 0.000963 0.175244
vt 0.000963 0.344520
vt 0.170239 0.344520
vt 0.000963 0.600227
vt 0.170239 0.600227
vt 0.170239 0.516186
vt 0.000963 0.516186
vt 0.511180 0.514991
vt 0.511180 0.345715
vt 0.427139 0.345715
vt 0.427139 0.514991
vt 0.171433 0.600227
vt 0.340710 0.600227
vt 0.340710 0.516186
vt 0.171433 0.516186
vt 0.998999 0.001001
vt 0.858144 0.001001
vt 0.858144 0.141856
vt 0.998999 0.141856
vt 0.998999 0.143858
vt 0.858144 0.143858
vt 0.858144 0.284713
vt 0.998999 0.284713
vt 0.998999 0.286715
vt 0.858144 0.286715
vt 0.858144 0.427570
vt 0.998999 0.427570
vt 0.998999 0.429572
vt 0.858144 0.429572
vt 0.858144 0.570428
vt 0.998999 0.570428
vt 1.000785 -0.001856
vt 0.859930 -0.001856
vt 0.859930 0.138999
vt 1.000785 0.138999
vt 0.998999 0.572430
vt 0.858144 0.572430
vt 0.858144 0.713285
vt 0.998999 0.713285
vt 0.185000 0.992201
vt 0.004871 0.992201
vt 0.004871 0.702354
vt 0.185000 0.702354
vt 0.182629 0.992201
vt 0.002500 0.992201
vt 0.002500 0.702354
vt 0.182629 0.702354
vn 0.9943 -0.1067 0.0000
vn 1.0000 0.0000 0.0000
vn -1.0000 0.0000 0.0000
vn 0.0000 -1.0000 0.0000
vn 0.0000 0.0000 -1.0000
vn -0.9257 0.3782 0.0000
vn 0.0000 0.3782 -0.9257
vn 0.9257 0.3782 0.0000
vn 0.0000 0.3782 0.9257
vn 0.0000 0.0000 1.0000
vn -0.9943 -0.1067 0.0000
vn 0.0000 -0.1067 0.9943
vn 0.0000 -0.1067 -0.9943
vn 0.0000 1.0000 0.0000
g candel_Cube.022_Material
usemtl Material
s off
f 13/1/1 15/2/1 4/3/1 2/4/1
f 7/5/2 16/6/2 14/7/2 5/8/2
f 2/9/3 4/10/3 20/11/3 17/12/3
f 1/13/3 10/14/3 12/15/3 3/16/3
f 3/17/4 7/18/4 5/19/4 1/20/4
f 3/21/5 12/22/5 16/23/5 7/24/5
f 9/25/6 11/26/6 12/27/6 10/28/6
f 11/29/7 15/30/7 16/31/7 12/32/7
f 15/33/8 13/34/8 14/35/8 16/36/8
f 13/37/9 9/38/9 10/39/9 14/40/9
f 5/41/10 14/42/10 10/43/10 1/44/10
f 11/45/11 9/46/11 8/47/11 6/48/11
f 9/49/12 13/50/12 2/51/12 8/52/12
f 15/53/13 11/54/13 6/55/13 4/56/13
f 20/57/14 19/58/14 18/59/14 17/60/14
f 6/61/2 8/62/2 18/63/2 19/64/2
f 4/65/10 6/66/10 19/67/10 20/68/10
f 8/69/5 2/70/5 17/71/5 18/72/5
f 21/73/2 23/74/2 24/75/2 22/76/2
f 23/77/10 27/78/10 28/79/10 24/80/10
f 27/81/3 25/82/3 26/83/3 28/84/3
f 25/85/5 21/86/5 22/87/5 26/88/5
f 23/89/14 21/90/14 25/91/14 27/92/14
f 28/93/4 26/94/4 22/95/4 24/96/4
f 29/97/10 30/98/10 32/99/10 31/100/10
f 33/101/2 34/102/2 36/103/2 35/104/2
