# Blender v2.93.18 OBJ File: 'tools.blend'
# www.blender.org
mtllib chair.mtl
o chair_Cube.023
v -0.500000 0.156423 0.500000
v -0.500000 0.488354 0.500000
v -0.500000 0.156423 -0.500000
v -0.500000 0.488354 -0.500000
v 0.500000 0.156423 0.500000
v 0.500000 0.488354 0.500000
v 0.500000 0.156423 -0.500000
v 0.500000 0.488354 -0.500000
v -0.500000 0.156423 0.000000
v 0.000000 0.156423 -0.500000
v 0.500000 0.156423 0.000000
v 0.000000 0.156423 0.500000
v 0.000000 0.156423 0.000000
v -0.500000 0.156423 0.250000
v -0.250000 0.156423 -0.500000
v 0.500000 0.156423 -0.250000
v 0.250000 0.156423 0.500000
v -0.500000 0.156423 -0.250000
v 0.250000 0.156423 -0.500000
v 0.500000 0.156423 0.250000
v -0.250000 0.156423 0.500000
v 0.000000 0.156423 0.250000
v 0.000000 0.156423 -0.250000
v -0.250000 0.156423 0.000000
v 0.250000 0.156423 0.000000
v 0.250000 0.156423 -0.250000
v -0.250000 0.156423 -0.250000
v -0.250000 0.156423 0.250000
v 0.250000 0.156423 0.250000
v -0.500000 -0.491844 0.250000
v -0.500000 -0.491844 0.500000
v -0.250000 -0.491844 -0.500000
v -0.500000 -0.491844 -0.500000
v 0.500000 -0.491844 -0.250000
v 0.500000 -0.491844 -0.500000
v 0.250000 -0.491844 0.500000
v 0.500000 -0.491844 0.500000
v -0.500000 -0.491844 -0.250000
v 0.250000 -0.491844 -0.500000
v 0.500000 -0.491844 0.250000
v -0.250000 -0.491844 0.500000
v 0.250000 -0.491844 -0.250000
v -0.250000 -0.491844 -0.250000
v -0.250000 -0.491844 0.250000
v 0.250000 -0.491844 0.250000
v -0.500000 0.488354 0.000000
v 0.000000 0.488354 -0.500000
v 0.500000 0.488354 0.000000
v 0.000000 0.488354 0.500000
v 0.000000 0.488354 0.000000
v 0.500000 0.488354 0.250000
v -0.250000 0.488354 0.500000
v -0.500000 0.488354 0.250000
v 0.250000 0.488354 0.500000
v 0.000000 0.488354 0.250000
v 0.250000 0.488354 0.000000
v -0.250000 0.488354 0.000000
v 0.250000 0.488354 0.250000
v -0.250000 0.488354 0.250000
v 0.500000 1.200478 0.250000
v 0.500000 1.200478 0.500000
v -0.250000 1.200478 0.500000
v -0.500000 1.200478 0.500000
v -0.500000 1.200478 0.250000
v 0.250000 1.200478 0.500000
v 0.250000 1.200478 0.250000
v -0.250000 1.200478 0.250000
v 0.500000 1.453151 0.250000
v 0.500000 1.453151 0.500000
v -0.250000 1.453151 0.500000
v -0.500000 1.453151 0.500000
v -0.500000 1.453151 0.250000
v 0.250000 1.453151 0.500000
v 0.250000 1.453151 0.250000
v -0.250000 1.453151 0.250000
v 0.002644 1.200478 0.250000
v 0.002644 1.200478 0.500000
v -0.002644 1.200478 0.250000
v -0.002644 1.200478 0.500000
v 0.002644 1.453151 0.250000
v 0.002644 1.453151 0.500000
v -0.002644 1.453151 0.250000
v -0.002644 1.453151 0.500000
vt 0.248999 0.248999
vt 0.001001 0.248999
vt 0.001001 0.186999
vt 0.001001 0.125000
vt 0.001001 0.001001
vt 0.248999 0.001001
vt 0.248999 0.063001
vt 0.248999 0.125000
vt 0.248999 0.186999
vt 0.248999 0.251001
vt 0.248999 0.498999
vt 0.125000 0.498999
vt 0.001001 0.498999
vt 0.001001 0.251001
vt 0.063001 0.251001
vt 0.125000 0.251001
vt 0.186999 0.251001
vt 0.251001 0.001001
vt 0.498999 0.001001
vt 0.498999 0.125000
vt 0.498999 0.186999
vt 0.498999 0.248999
vt 0.251001 0.248999
vt 0.251001 0.186999
vt 0.251001 0.125000
vt 0.251001 0.063001
vt 0.251001 0.498999
vt 0.251001 0.251001
vt 0.313001 0.251001
vt 0.375000 0.251001
vt 0.436999 0.251001
vt 0.498999 0.251001
vt 0.498999 0.498999
vt 0.436999 0.498999
vt 0.375000 0.498999
vt 0.313001 0.498999
vt 0.561499 0.001001
vt 0.501001 0.001001
vt 0.501001 0.248999
vt 0.561499 0.248999
vt 0.248999 0.561499
vt 0.248999 0.501001
vt 0.001001 0.501001
vt 0.001001 0.561499
vt 0.811499 0.751001
vt 0.751001 0.751001
vt 0.751001 0.811499
vt 0.811499 0.811499
vt 0.811499 0.813501
vt 0.751001 0.813501
vt 0.751001 0.873999
vt 0.811499 0.873999
vt 0.873999 0.751001
vt 0.813501 0.751001
vt 0.813501 0.811499
vt 0.873999 0.811499
vt 0.873999 0.813501
vt 0.813501 0.813501
vt 0.813501 0.873999
vt 0.873999 0.873999
vt 0.936499 0.501001
vt 0.876001 0.501001
vt 0.876001 0.561499
vt 0.936499 0.561499
vt 0.561499 0.251001
vt 0.501001 0.251001
vt 0.501001 0.498999
vt 0.561499 0.498999
vt 0.936499 0.563501
vt 0.876001 0.563501
vt 0.876001 0.623999
vt 0.936499 0.623999
vt 0.498999 0.561499
vt 0.498999 0.501001
vt 0.251001 0.501001
vt 0.251001 0.561499
vt 0.936499 0.626001
vt 0.876001 0.626001
vt 0.876001 0.686499
vt 0.936499 0.686499
vt 0.623999 0.001001
vt 0.563501 0.001001
vt 0.563501 0.248999
vt 0.623999 0.248999
vt 0.936499 0.688501
vt 0.876001 0.688501
vt 0.876001 0.748999
vt 0.936499 0.748999
vt 0.811499 0.876001
vt 0.751001 0.876001
vt 0.751001 0.936499
vt 0.811499 0.936499
vt 0.936499 0.751001
vt 0.876001 0.751001
vt 0.876001 0.811499
vt 0.936499 0.811499
vt 0.873999 0.876001
vt 0.813501 0.876001
vt 0.813501 0.936499
vt 0.873999 0.936499
vt 0.936499 0.813501
vt 0.876001 0.813501
vt 0.876001 0.873999
vt 0.936499 0.873999
vt 0.936499 0.876001
vt 0.876001 0.876001
vt 0.876001 0.936499
vt 0.936499 0.936499
vt 0.998999 0.001001
vt 0.938501 0.001001
vt 0.938501 0.061499
vt 0.998999 0.061499
vt 0.998999 0.063501
vt 0.938501 0.063501
vt 0.938501 0.123999
vt 0.998999 0.123999
vt 0.998999 0.126001
vt 0.938501 0.126001
vt 0.938501 0.186499
vt 0.998999 0.186499
vt 0.248999 0.623999
vt 0.248999 0.563501
vt 0.001001 0.563501
vt 0.001001 0.623999
vt 0.623999 0.251001
vt 0.563501 0.251001
vt 0.563501 0.498999
vt 0.623999 0.498999
vt 0.498999 0.623999
vt 0.498999 0.563501
vt 0.251001 0.563501
vt 0.251001 0.623999
vt 0.686499 0.001001
vt 0.626001 0.001001
vt 0.626001 0.248999
vt 0.686499 0.248999
vt 0.248999 0.686499
vt 0.248999 0.626001
vt 0.001001 0.626001
vt 0.001001 0.686499
vt 0.686499 0.251001
vt 0.626001 0.251001
vt 0.626001 0.498999
vt 0.686499 0.498999
vt 0.498999 0.686499
vt 0.498999 0.626001
vt 0.251001 0.626001
vt 0.251001 0.686499
vt 0.748999 0.001001
vt 0.688501 0.001001
vt 0.688501 0.248999
vt 0.748999 0.248999
vt 0.248999 0.748999
vt 0.248999 0.688501
vt 0.001001 0.688501
vt 0.001001 0.748999
vt 0.748999 0.251001
vt 0.688501 0.251001
vt 0.688501 0.498999
vt 0.748999 0.498999
vt 0.498999 0.748999
vt 0.498999 0.688501
vt 0.251001 0.688501
vt 0.251001 0.748999
vt 0.561499 0.501001
vt 0.501001 0.501001
vt 0.501001 0.748999
vt 0.561499 0.748999
vt 0.998999 0.188501
vt 0.938501 0.188501
vt 0.938501 0.248999
vt 0.998999 0.248999
vt 0.563501 0.501001
vt 0.686499 0.501001
vt 0.686499 0.623999
vt 0.625000 0.623999
vt 0.563501 0.623999
vt 0.563501 0.626001
vt 0.686499 0.626001
vt 0.686499 0.748999
vt 0.625000 0.748999
vt 0.563501 0.748999
vt 0.248999 0.811499
vt 0.248999 0.751001
vt 0.001001 0.751001
vt 0.001001 0.811499
vt 0.311499 0.938501
vt 0.251001 0.938501
vt 0.251001 0.998999
vt 0.311499 0.998999
vt 0.998999 0.251001
vt 0.938501 0.251001
vt 0.938501 0.311499
vt 0.998999 0.311499
vt 0.373999 0.938501
vt 0.313501 0.938501
vt 0.313501 0.998999
vt 0.373999 0.998999
vt 0.998999 0.313501
vt 0.938501 0.313501
vt 0.938501 0.373999
vt 0.998999 0.373999
vt 0.436499 0.938501
vt 0.376001 0.938501
vt 0.376001 0.998999
vt 0.436499 0.998999
vt 0.748999 0.501001
vt 0.688501 0.501001
vt 0.688501 0.748999
vt 0.748999 0.748999
vt 0.498999 0.811499
vt 0.498999 0.751001
vt 0.251001 0.751001
vt 0.251001 0.811499
vt 0.811499 0.001001
vt 0.751001 0.001001
vt 0.751001 0.248999
vt 0.811499 0.248999
vt 0.748999 0.811499
vt 0.748999 0.751001
vt 0.501001 0.751001
vt 0.501001 0.811499
vt 0.811499 0.251001
vt 0.751001 0.251001
vt 0.751001 0.498999
vt 0.811499 0.498999
vt 0.248999 0.873999
vt 0.248999 0.813501
vt 0.001001 0.813501
vt 0.001001 0.873999
vt 0.811499 0.501001
vt 0.751001 0.501001
vt 0.751001 0.748999
vt 0.811499 0.748999
vt 0.498999 0.873999
vt 0.498999 0.813501
vt 0.251001 0.813501
vt 0.251001 0.873999
vt 0.998999 0.376001
vt 0.938501 0.376001
vt 0.938501 0.436499
vt 0.998999 0.436499
vt 0.498999 0.938501
vt 0.438501 0.938501
vt 0.438501 0.998999
vt 0.498999 0.998999
vt 0.873999 0.001001
vt 0.813501 0.001001
vt 0.813501 0.248999
vt 0.873999 0.248999
vt 0.748999 0.873999
vt 0.748999 0.813501
vt 0.501001 0.813501
vt 0.501001 0.873999
vt 0.873999 0.498999
vt 0.873999 0.251001
vt 0.813501 0.251001
vt 0.813501 0.498999
vt 0.998999 0.438501
vt 0.938501 0.438501
vt 0.938501 0.498999
vt 0.998999 0.498999
vt 0.248999 0.936499
vt 0.248999 0.876001
vt 0.001001 0.876001
vt 0.001001 0.936499
vt 0.873999 0.501001
vt 0.813501 0.501001
vt 0.813501 0.748999
vt 0.873999 0.748999
vt 0.498999 0.936499
vt 0.498999 0.876001
vt 0.251001 0.876001
vt 0.251001 0.936499
vt 0.936499 0.001001
vt 0.876001 0.001001
vt 0.876001 0.248999
vt 0.936499 0.248999
vt 0.501001 0.936499
vt 0.748999 0.936499
vt 0.748999 0.876001
vt 0.501001 0.876001
vt 0.936499 0.498999
vt 0.936499 0.251001
vt 0.876001 0.251001
vt 0.876001 0.498999
vt 0.561499 0.938501
vt 0.501001 0.938501
vt 0.501001 0.998999
vt 0.561499 0.998999
vt 0.001001 0.998999
vt 0.248999 0.998999
vt 0.248999 0.938501
vt 0.001001 0.938501
vt 0.998999 0.501001
vt 0.938501 0.501001
vt 0.938501 0.561499
vt 0.998999 0.561499
vt 0.998999 0.563501
vt 0.938501 0.563501
vt 0.938501 0.623999
vt 0.998999 0.623999
vn -1.0000 0.0000 0.0000
vn 0.0000 0.0000 -1.0000
vn 1.0000 0.0000 0.0000
vn 0.0000 0.0000 1.0000
vn 0.0000 -1.0000 0.0000
vn 0.0000 1.0000 0.0000
g chair_Cube.023_Material.007
usemtl Material.007
s off
f 1/1/1 2/2/1 53/3/1 46/4/1 4/5/1 3/6/1 18/7/1 9/8/1 14/9/1
f 3/10/2 4/11/2 47/12/2 8/13/2 7/14/2 19/15/2 10/16/2 15/17/2
f 7/18/3 8/19/3 48/20/3 51/21/3 6/22/3 5/23/3 20/24/3 11/25/3 16/26/3
f 5/27/4 6/28/4 54/29/4 49/30/4 52/31/4 2/32/4 1/33/4 21/34/4 12/35/4 17/36/4
f 5/37/4 17/38/4 36/39/4 37/40/4
f 52/41/3 59/42/3 67/43/3 62/44/3
f 28/45/5 22/46/5 12/47/5 21/48/5
f 27/49/5 23/50/5 13/51/5 24/52/5
f 26/53/5 16/54/5 11/55/5 25/56/5
f 23/57/5 26/58/5 25/59/5 13/60/5
f 10/61/5 19/62/5 26/63/5 23/64/5
f 29/65/2 20/66/2 40/67/2 45/68/2
f 18/69/5 27/70/5 24/71/5 9/72/5
f 18/73/1 3/74/1 33/75/1 38/76/1
f 15/77/5 10/78/5 23/79/5 27/80/5
f 27/81/4 18/82/4 38/83/4 43/84/4
f 9/85/5 24/86/5 28/87/5 14/88/5
f 24/89/5 13/90/5 22/91/5 28/92/5
f 22/93/5 29/94/5 17/95/5 12/96/5
f 13/97/5 25/98/5 29/99/5 22/100/5
f 25/101/5 11/102/5 20/103/5 29/104/5
f 45/105/5 40/106/5 37/107/5 36/108/5
f 39/109/5 35/110/5 34/111/5 42/112/5
f 33/113/5 32/114/5 43/115/5 38/116/5
f 30/117/5 44/118/5 41/119/5 31/120/5
f 19/121/2 7/122/2 35/123/2 39/124/2
f 28/125/3 21/126/3 41/127/3 44/128/3
f 26/129/1 19/130/1 39/131/1 42/132/1
f 20/133/3 5/134/3 37/135/3 40/136/3
f 3/137/2 15/138/2 32/139/2 33/140/2
f 21/141/4 1/142/4 31/143/4 41/144/4
f 14/145/2 28/146/2 44/147/2 30/148/2
f 16/149/4 26/150/4 42/151/4 34/152/4
f 17/153/1 29/154/1 45/155/1 36/156/1
f 7/157/3 16/158/3 34/159/3 35/160/3
f 1/161/1 14/162/1 30/163/1 31/164/1
f 15/165/3 27/166/3 43/167/3 32/168/3
f 58/169/6 55/170/6 49/171/6 54/172/6
f 8/173/6 47/174/6 50/175/6 56/176/6 48/177/6
f 47/178/6 4/179/6 46/180/6 57/181/6 50/182/6
f 53/183/1 2/184/1 63/185/1 64/186/1
f 48/187/6 56/188/6 58/189/6 51/190/6
f 56/191/6 50/192/6 55/193/6 58/194/6
f 55/195/6 59/196/6 52/197/6 49/198/6
f 50/199/6 57/200/6 59/201/6 55/202/6
f 57/203/6 46/204/6 53/205/6 59/206/6
f 60/207/2 66/208/2 74/209/2 68/210/2
f 67/211/2 64/212/2 72/213/2 75/214/2
f 2/215/4 52/216/4 62/217/4 63/218/4
f 51/219/2 58/220/2 66/221/2 60/222/2
f 58/223/1 54/224/1 65/225/1 66/226/1
f 59/227/2 53/228/2 64/229/2 67/230/2
f 54/231/4 6/232/4 61/233/4 65/234/4
f 6/235/3 51/236/3 60/237/3 61/238/3
f 75/239/6 72/240/6 71/241/6 70/242/6
f 68/243/6 74/244/6 73/245/6 69/246/6
f 65/247/4 61/248/4 69/249/4 73/250/4
f 63/251/4 62/252/4 70/253/4 71/254/4
f 65/255/4 73/256/4 81/257/4 77/258/4
f 73/259/6 74/260/6 80/261/6 81/262/6
f 64/263/1 63/264/1 71/265/1 72/266/1
f 61/267/3 60/268/3 68/269/3 69/270/3
f 79/271/3 78/272/3 82/273/3 83/274/3
f 76/275/1 77/276/1 81/277/1 80/278/1
f 67/279/2 75/280/2 82/281/2 78/282/2
f 70/283/4 62/284/4 79/285/4 83/286/4
f 62/287/5 67/288/5 78/289/5 79/290/5
f 74/291/2 66/292/2 76/293/2 80/294/2
f 66/295/5 65/296/5 77/297/5 76/298/5
f 75/299/6 70/300/6 83/301/6 82/302/6
