# Blender v2.93.18 OBJ File: 'tools.blend'
# www.blender.org
mtllib hut_1.mtl
o hut_1_Cube.025
v -1.510740 0.546779 1.510740
v -1.510740 3.568259 1.510740
v -1.510740 0.546779 -1.510740
v -1.510740 3.568259 -1.510740
v 1.510740 0.546779 1.510740
v 1.510740 3.568259 1.510740
v 1.510740 0.546779 -1.510740
v 1.510740 3.568259 -1.510740
v 0.513082 0.546779 -1.510740
v 0.513082 3.568259 -1.510740
v 0.513082 0.546779 1.510740
v 0.513082 3.568259 1.510740
v -0.489372 0.546779 -1.510740
v -0.489372 3.568259 1.510740
v -0.489372 3.568259 -1.510740
v -0.489372 0.546779 1.510740
v -1.510740 1.572942 1.510740
v -1.510740 1.572942 -1.510740
v 1.510740 1.572942 -1.510740
v 1.510740 1.572942 1.510740
v 0.513082 1.572942 1.510740
v 0.513082 1.572942 -1.510740
v -0.489372 1.572942 -1.510740
v -0.489372 1.572942 1.510740
v -1.510740 2.570601 1.510740
v -1.510740 2.570601 -1.510740
v 1.510740 2.570601 -1.510740
v 1.510740 2.570601 1.510740
v 0.513082 2.570601 1.510740
v 0.513082 2.570601 -1.510740
v -0.489372 2.570601 -1.510740
v -0.489372 2.570601 1.510740
v -1.510740 0.546779 -0.503580
v -1.510740 3.568259 -0.503580
v 1.510740 0.546779 -0.503580
v 1.510740 3.568259 -0.503580
v 0.513082 0.546779 -0.503580
v -0.489372 0.546779 -0.503580
v 1.510740 1.572942 -0.503580
v -1.510740 1.572942 -0.503580
v 1.510740 2.570601 -0.503580
v -1.510740 2.570601 -0.503580
v -1.510740 0.546779 0.522583
v 1.510740 3.568259 0.522583
v 0.513082 0.546779 0.522583
v -0.489372 0.546779 0.522583
v 1.510740 1.572942 0.522583
v 1.510740 2.570601 0.522583
v -1.510740 3.568259 0.522583
v 1.510740 0.546779 0.522583
v -1.510740 1.572942 0.522583
v -1.510740 2.570601 0.522583
v -0.489372 0.546779 1.510740
v 0.513082 0.546779 1.510740
v 0.513082 1.572942 1.510740
v -0.489372 1.572942 1.510740
v 0.513082 2.570601 1.510740
v -0.489372 2.570601 1.510740
v -0.489372 0.546779 1.510740
v 0.513082 0.546779 1.510740
v 0.513082 1.572942 1.510740
v -0.489372 1.572942 1.510740
v 0.513082 2.570601 1.510740
v -0.489372 2.570601 1.510740
v -0.489372 0.546779 1.510740
v 0.513082 0.546779 1.510740
v 0.513082 1.572942 1.510740
v -0.489372 1.572942 1.510740
v 0.513082 2.570601 1.510740
v -0.489372 2.570601 1.510740
v -1.171540 0.546779 2.232250
v -0.462699 0.546779 1.523408
v -0.462699 1.572942 1.523408
v -1.171540 1.572942 2.232250
v -0.462699 2.570600 1.523408
v -1.171540 2.570600 2.232250
v -1.096198 0.546779 2.307592
v -0.387357 0.546779 1.598750
v -0.387357 1.572942 1.598750
v -1.096198 1.572942 2.307592
v -0.387357 2.570600 1.598750
v -1.096198 2.570600 2.307592
v -1.510740 5.568259 -0.503580
v -1.510740 5.568259 -1.510740
v 0.513082 5.568259 -1.510740
v 1.510740 5.568259 -1.510740
v 1.510740 5.568259 0.522583
v 1.510740 5.568259 1.510740
v -0.489372 5.568259 1.510740
v -1.510740 5.568259 1.510740
v -0.489372 5.568259 -1.510740
v 0.513082 5.568259 1.510740
v 0.513082 5.568259 0.522583
v -0.489372 5.568259 0.522583
v -1.510740 5.568259 0.522583
v 1.510740 5.568259 -0.503580
v 0.513082 5.568259 -0.503580
v -0.489372 5.568259 -0.503580
vt 0.445778 0.223270
vt 0.445778 0.333333
vt 0.334666 0.333333
vt 0.334666 0.223270
vt 0.444729 0.556604
vt 0.444729 0.666667
vt 0.334666 0.666667
vt 0.334666 0.556604
vt 0.777015 0.223270
vt 0.777014 0.333333
vt 0.668000 0.333333
vt 0.668000 0.223270
vt 0.780678 0.556604
vt 0.780678 0.666667
vt 0.668000 0.666667
vt 0.668000 0.556604
vt 0.557937 0.890985
vt 0.668000 0.890985
vt 0.668000 1.000000
vt 0.557937 1.000000
vt 0.444729 0.666667
vt 0.334666 0.666667
vt 0.891270 0.666667
vt 1.001333 0.666667
vt 1.001333 0.666667
vt 0.891270 0.666667
vt 0.447345 0.890985
vt 0.447345 1.000000
vt 1.001333 0.556604
vt 0.891270 0.556604
vt 0.555321 0.556604
vt 0.555321 0.666667
vt 0.668000 0.556604
vt 0.668000 0.666667
vt 0.334666 0.890985
vt 0.334666 1.000000
vt 0.777014 0.333333
vt 0.668000 0.333333
vt 0.668000 0.666667
vt 0.668000 0.666667
vt 0.668000 0.666667
vt 0.668000 0.666667
vt 0.668000 0.333333
vt 0.668000 0.446541
vt 0.555321 0.446541
vt 0.555321 0.333333
vt 0.444729 0.446541
vt 0.444729 0.333333
vt 1.001333 0.333333
vt 1.001333 0.446541
vt 0.891270 0.446541
vt 0.891270 0.333333
vt 0.780678 0.333333
vt 0.780678 0.446541
vt 0.668000 0.446541
vt 0.668000 0.333333
vt 0.777015 0.000000
vt 0.777015 0.113208
vt 0.668000 0.113208
vt 0.668000 0.000000
vt 0.334666 0.446541
vt 0.334666 0.333333
vt 0.445778 0.000000
vt 0.445778 0.113208
vt 0.334666 0.113208
vt 0.334666 0.000000
vt 0.668000 0.666667
vt 0.668000 0.666667
vt 0.668000 0.666667
vt 0.668000 0.666667
vt 0.558985 0.113208
vt 0.558985 0.223270
vt 1.001333 0.113208
vt 1.001333 0.223270
vt 0.890222 0.223270
vt 0.890222 0.113208
vt 0.558985 0.000000
vt 1.001333 0.000000
vt 0.890222 0.000000
vt 0.780678 0.666667
vt 0.668000 0.666667
vt 0.334666 0.666667
vt 0.447345 0.666667
vt 0.447345 0.777778
vt 0.334666 0.777778
vt 0.557937 0.666667
vt 0.557937 0.777778
vt 0.558985 0.333333
vt 0.668000 0.333333
vt 0.668000 0.333333
vt 0.558985 0.333333
vt 0.668000 0.666667
vt 0.668000 0.777778
vt 1.001333 0.333333
vt 0.890222 0.333333
vt 0.668000 0.223270
vt 0.668000 0.000000
vt 0.668000 0.113208
vt 0.890222 0.333333
vt 0.445778 0.333333
vt 0.555321 0.666667
vt 0.668000 0.666667
vt 0.668000 0.666667
vt 0.668000 0.666667
vt 0.668000 0.666667
vt 0.668000 0.666667
vt 0.668000 0.666667
vt 0.668000 0.666667
vt 0.668000 0.666667
vt 0.668000 0.666667
vt 0.668000 0.666667
vt 0.668000 0.666667
vt 0.668000 0.666667
vt 0.668000 0.666667
vt 0.668000 0.666667
vt 0.668000 0.666667
vt 0.668000 0.666667
vt 0.001414 0.507042
vt 0.173912 0.507042
vt 0.173912 1.000000
vt 0.001414 1.000000
vt 0.001414 0.000000
vt 0.173912 0.000000
vt 0.346410 0.507042
vt 0.346410 1.000000
vt 0.173912 1.000000
vt 0.173912 0.507042
vt 0.346410 0.000000
vt 0.173912 0.000000
vt 0.126398 0.507042
vt 0.126398 1.000000
vt 0.064595 1.000000
vt 0.064595 0.507042
vt 0.126398 0.000000
vt 0.064596 0.000000
vt 0.188200 -0.000953
vt 0.188200 0.505581
vt 0.126398 0.505581
vt 0.126398 -0.000953
vt 0.002793 1.000000
vt 0.002793 0.507042
vt 0.064595 0.507042
vt 0.064595 1.000000
vt 0.002793 0.000000
vt 0.064595 0.000000
vt 0.126398 0.998037
vt 0.126398 0.502709
vt 0.188200 0.502709
vt 0.188200 0.998037
vt 0.892243 0.893652
vt 1.004921 0.893652
vt 1.004921 1.002666
vt 0.892243 1.002666
vt 0.671588 0.893652
vt 0.781651 0.893652
vt 0.781651 1.002666
vt 0.671588 1.002666
vt 0.781651 0.669333
vt 0.892243 0.669333
vt 0.892243 0.780444
vt 0.781651 0.780444
vt 0.671588 0.669333
vt 0.671588 0.780444
vt 1.004921 0.669333
vt 1.004921 0.780444
vt 0.668000 0.666667
vt 1.001333 0.333333
vt 0.334666 0.333333
vn -1.0000 0.0000 0.0000
vn 0.0000 0.0000 -1.0000
vn 1.0000 0.0000 0.0000
vn 0.0000 0.0000 1.0000
vn 0.0000 -1.0000 0.0000
vn -0.7071 0.0000 -0.7071
vn 0.7071 0.0000 0.7071
vn 0.7071 0.0000 -0.7071
vn 0.0000 1.0000 0.0000
vn -0.7071 0.0000 0.7071
usemtl Material.007
s off
f 42/1/1 34/2/1 4/3/1 26/4/1
f 30/5/2 10/6/2 8/7/2 27/8/2
f 48/9/3 44/10/3 6/11/3 28/12/3
f 32/13/4 14/14/4 2/15/4 25/16/4
f 45/17/5 50/18/5 5/19/5 11/20/5
f 8/7/2 10/6/2 85/21/2 86/22/2
f 12/23/4 6/24/4 88/25/4 92/26/4
f 46/27/5 45/17/5 11/20/5 16/28/5
f 28/29/4 6/24/4 12/23/4 29/30/4
f 31/31/2 15/32/2 10/6/2 30/5/2
f 26/33/2 4/34/2 15/32/2 31/31/2
f 43/35/5 46/27/5 16/28/5 1/36/5
f 6/11/3 44/10/3 87/37/3 88/38/3
f 29/30/4 12/23/4 14/14/4 32/13/4
f 24/39/4 16/40/4 53/41/4 56/42/4
f 3/43/2 18/44/2 23/45/2 13/46/2
f 13/46/2 23/45/2 22/47/2 9/48/2
f 5/49/4 20/50/4 21/51/4 11/52/4
f 16/53/4 24/54/4 17/55/4 1/56/4
f 50/57/3 47/58/3 20/59/3 5/60/3
f 9/48/2 22/47/2 19/61/2 7/62/2
f 33/63/1 40/64/1 18/65/1 3/66/1
f 11/67/4 21/68/4 55/69/4 54/70/4
f 18/44/2 26/33/2 31/31/2 23/45/2
f 23/45/2 31/31/2 30/5/2 22/47/2
f 20/50/4 28/29/4 29/30/4 21/51/4
f 24/54/4 32/13/4 25/16/4 17/55/4
f 47/58/3 48/9/3 28/12/3 20/59/3
f 22/47/2 30/5/2 27/8/2 19/61/2
f 40/64/1 42/1/1 26/4/1 18/65/1
f 51/71/1 52/72/1 42/1/1 40/64/1
f 19/73/3 27/74/3 41/75/3 39/76/3
f 43/77/1 51/71/1 40/64/1 33/63/1
f 7/78/3 19/73/3 39/76/3 35/79/3
f 2/15/4 14/14/4 89/80/4 90/81/4
f 3/82/5 13/83/5 38/84/5 33/85/5
f 13/83/5 9/86/5 37/87/5 38/84/5
f 14/14/4 12/23/4 92/26/4 89/80/4
f 49/88/1 2/89/1 90/90/1 95/91/1
f 9/86/5 7/92/5 35/93/5 37/87/5
f 27/74/3 8/94/3 36/95/3 41/75/3
f 52/72/1 49/88/1 34/2/1 42/1/1
f 25/96/1 2/89/1 49/88/1 52/72/1
f 1/97/1 17/98/1 51/71/1 43/77/1
f 17/98/1 25/96/1 52/72/1 51/71/1
f 39/76/3 41/75/3 48/9/3 47/58/3
f 35/79/3 39/76/3 47/58/3 50/57/3
f 44/10/3 36/95/3 96/99/3 87/37/3
f 33/85/5 38/84/5 46/27/5 43/35/5
f 38/84/5 37/87/5 45/17/5 46/27/5
f 34/2/1 49/88/1 95/91/1 83/100/1
f 10/6/2 15/32/2 91/101/2 85/21/2
f 37/87/5 35/93/5 50/18/5 45/17/5
f 41/75/3 36/95/3 44/10/3 48/9/3
f 16/40/4 11/67/4 54/70/4 53/41/4
f 21/68/4 29/102/4 57/103/4 55/69/4
f 29/102/4 32/104/4 58/105/4 57/103/4
f 32/104/4 24/39/4 56/42/4 58/105/4
f 60/106/4 61/107/4 67/108/4 66/109/4
f 63/110/4 64/111/4 70/112/4 69/113/4
f 64/111/4 62/114/4 68/115/4 70/112/4
f 62/114/4 59/116/4 65/117/4 68/115/4
f 59/116/4 60/106/4 66/109/4 65/117/4
f 61/107/4 63/110/4 69/113/4 67/108/4
f 73/118/6 74/119/6 76/120/6 75/121/6
f 72/122/6 71/123/6 74/119/6 73/118/6
f 79/124/7 81/125/7 82/126/7 80/127/7
f 78/128/7 79/124/7 80/127/7 77/129/7
f 73/130/8 75/131/8 81/132/8 79/133/8
f 72/134/8 73/130/8 79/133/8 78/135/8
f 75/136/9 76/137/9 82/138/9 81/139/9
f 76/140/10 74/141/10 80/142/10 82/143/10
f 74/141/10 71/144/10 77/145/10 80/142/10
f 71/146/5 72/147/5 78/148/5 77/149/5
f 94/150/9 95/151/9 90/152/9 89/153/9
f 87/154/9 93/155/9 92/156/9 88/157/9
f 93/155/9 94/150/9 89/153/9 92/156/9
f 85/158/9 91/159/9 98/160/9 97/161/9
f 86/162/9 85/158/9 97/161/9 96/163/9
f 91/159/9 84/164/9 83/165/9 98/160/9
f 97/161/9 98/160/9 94/150/9 93/155/9
f 96/163/9 97/161/9 93/155/9 87/154/9
f 98/160/9 83/165/9 95/151/9 94/150/9
f 15/32/2 4/34/2 84/166/2 91/101/2
f 36/95/3 8/94/3 86/167/3 96/99/3
f 4/3/1 34/2/1 83/100/1 84/168/1
