# Blender v2.93.18 OBJ File: 'tools.blend'
# www.blender.org
mtllib pot.mtl
o plant_pot_Cube.013
v -0.330806 -0.500000 0.330806
v -0.330806 -0.330806 0.500000
v -0.500000 -0.330806 0.330806
v -0.330806 0.330806 0.500000
v -0.500000 0.330806 0.330806
v -0.330806 -0.500000 -0.330806
v -0.500000 -0.330806 -0.330806
v -0.330806 -0.330806 -0.500000
v -0.330806 0.330806 -0.500000
v -0.500000 0.330806 -0.330806
v 0.330806 -0.500000 0.330806
v 0.500000 -0.330806 0.330806
v 0.330806 -0.330806 0.500000
v 0.330806 0.330806 0.500000
v 0.500000 0.330806 0.330806
v 0.330806 -0.500000 -0.330806
v 0.330806 -0.330806 -0.500000
v 0.500000 -0.330806 -0.330806
v 0.500000 0.330806 -0.330806
v 0.330806 0.330806 -0.500000
v -0.257196 0.354495 0.257196
v -0.365506 0.430600 0.365506
v -0.257196 0.354495 -0.257196
v -0.365506 0.430600 -0.365506
v 0.257196 0.354495 0.257196
v 0.365506 0.430600 0.365506
v 0.257196 0.354495 -0.257196
v 0.365506 0.430600 -0.365506
v 0.257196 0.611691 0.000000
v 0.257196 0.097299 0.000000
v -0.257196 0.611691 0.000000
v -0.257196 0.097299 0.000000
v 0.404835 0.611691 0.000000
v 0.257196 0.097299 0.000000
v -0.257196 0.097299 0.000000
v -0.404835 0.611691 0.000000
v 0.000000 0.611691 -0.327822
v 0.000000 0.097299 -0.257196
v 0.000000 0.097299 0.257196
v 0.000000 0.611691 0.327822
v 0.404835 1.435038 0.000000
v -0.404835 1.435038 0.000000
v 0.000000 1.435038 -0.327822
v 0.000000 1.435038 0.327822
vt 0.294456 0.792298
vt 0.459859 0.792298
vt 0.459859 0.957702
vt 0.294456 0.957702
vt 0.294456 0.542298
vt 0.459859 0.542298
vt 0.459859 0.707702
vt 0.294456 0.707702
vt 0.493483 0.283623
vt 0.502158 0.292298
vt 0.459859 0.250000
vt 0.294456 0.042298
vt 0.459859 0.042298
vt 0.459859 0.207702
vt 0.294456 0.207702
vt 0.294456 0.292298
vt 0.459859 0.292298
vt 0.459859 0.457702
vt 0.294456 0.457702
vt 0.167298 0.707702
vt 0.167298 0.750000
vt 0.125000 0.707702
vt 0.489145 0.033623
vt 0.489145 0.216377
vt 0.167298 0.542298
vt 0.125000 0.542298
vt 0.167298 0.500000
vt 0.489145 0.283623
vt 0.489145 0.466376
vt 0.332702 0.707702
vt 0.375000 0.707702
vt 0.332702 0.750000
vt 0.493483 0.533623
vt 0.502158 0.542298
vt 0.459859 0.500000
vt 0.332702 0.542298
vt 0.332702 0.500000
vt 0.375000 0.542298
vt 0.294456 0.000000
vt 0.459859 0.000000
vt 0.046291 0.028384
vt 0.174889 0.028384
vt 0.174889 0.156983
vt 0.046291 0.156983
vt 0.518431 0.533623
vt 0.518431 0.716377
vt 0.417298 0.542298
vt 0.417298 0.707702
vt 0.493483 0.783623
vt 0.502158 0.792298
vt 0.459859 0.750000
vt 0.484808 0.966377
vt 0.459859 1.000000
vt 0.193292 0.009982
vt 0.193292 0.175385
vt 0.027889 0.009982
vt 0.001864 0.184060
vt 0.001864 0.001307
vt 0.027889 0.175385
vt 0.489145 0.783623
vt 0.489145 0.966376
vt 0.531947 0.003186
vt 0.993053 0.003186
vt 0.993053 0.131784
vt 0.531947 0.131784
vt 0.868201 0.003186
vt 0.996799 0.003186
vt 0.996799 0.003186
vt 0.868201 0.003186
vt 0.868201 0.131784
vt 0.868201 0.131784
vt 0.996799 0.131784
vt 0.996799 0.131784
vt 0.531947 0.003186
vt 0.993053 0.003186
vt 0.993053 0.131784
vt 0.531947 0.131784
vt 0.527337 0.005000
vt 0.995446 0.005000
vt 0.995446 1.005000
vt 0.527337 1.005000
vt 0.530335 0.005000
vt 0.996668 0.005000
vt 0.996668 1.005000
vt 0.530335 1.005000
vn 0.0000 0.0000 1.0000
vn 1.0000 0.0000 0.0000
vn -0.5774 0.5774 -0.5774
vn -1.0000 0.0000 0.0000
vn 0.0000 0.0000 -1.0000
vn -0.5774 -0.5774 0.5774
vn -0.5959 0.8031 0.0000
vn -0.5774 -0.5774 -0.5774
vn 0.0000 0.8031 -0.5959
vn 0.5774 -0.5774 0.5774
vn 0.5774 0.5774 -0.5774
vn 0.5774 -0.5774 -0.5774
vn -0.7071 -0.7071 0.0000
vn -0.7071 0.0000 0.7071
vn 0.0000 1.0000 0.0000
vn -0.7071 0.0000 -0.7071
vn 0.0000 -0.7071 -0.7071
vn 0.5959 0.8031 0.0000
vn 0.7071 0.0000 -0.7071
vn 0.7071 -0.7071 0.0000
vn 0.5774 0.5774 0.5774
vn 0.7071 0.0000 0.7071
vn 0.0000 -0.7071 0.7071
vn -0.5774 0.5774 0.5774
vn 0.0000 -1.0000 0.0000
vn 0.5749 0.8182 0.0000
vn 0.0000 0.8182 0.5749
vn -0.5749 0.8182 0.0000
vn 0.0000 0.8182 -0.5749
vn 0.0000 0.8031 0.5959
g plant_pot_Cube.013_Material
usemtl Material
s off
f 13/1/1 14/2/1 4/3/1 2/4/1
f 18/5/2 19/6/2 15/7/2 12/8/2
f 24/9/3 9/10/3 10/11/3
f 3/12/4 5/13/4 10/14/4 7/15/4
f 8/16/5 9/17/5 20/18/5 17/19/5
f 1/20/6 2/21/6 3/22/6
f 22/23/7 24/24/7 10/14/7 5/13/7
f 6/25/8 7/26/8 8/27/8
f 24/28/9 28/29/9 20/18/9 9/17/9
f 11/30/10 12/31/10 13/32/10
f 28/33/11 19/34/11 20/35/11
f 16/36/12 17/37/12 18/38/12
f 6/25/13 1/20/13 3/22/13 7/26/13
f 2/39/14 4/40/14 5/13/14 3/12/14
f 27/41/15 23/42/15 21/43/15 25/44/15
f 9/17/16 8/16/16 7/15/16 10/14/16
f 16/36/17 6/25/17 8/27/17 17/37/17
f 28/45/18 26/46/18 15/7/18 19/6/18
f 19/6/19 18/5/19 17/19/19 20/18/19
f 11/30/20 16/36/20 18/47/20 12/48/20
f 26/49/21 14/50/21 15/51/21
f 14/2/22 13/1/22 12/8/22 15/7/22
f 1/20/23 11/30/23 13/32/23 2/21/23
f 4/3/24 22/52/24 5/53/24
f 6/25/25 16/36/25 11/30/25 1/20/25
f 21/43/26 23/42/26 24/54/26 22/55/26
f 23/42/27 27/41/27 28/56/27 24/54/27
f 27/41/28 25/44/28 26/57/28 28/58/28
f 25/44/29 21/43/29 22/55/29 26/59/29
f 26/60/30 22/61/30 4/3/30 14/2/30
f 33/62/1 36/63/1 35/64/1 34/65/1
f 29/66/5 31/67/5 36/68/5 33/69/5
f 30/70/5 29/66/5 33/69/5 34/71/5
f 31/67/5 32/72/5 35/73/5 36/68/5
f 32/72/1 30/70/1 34/71/1 35/73/1
f 37/74/2 40/75/2 39/76/2 38/77/2
f 40/78/2 37/79/2 43/80/2 44/81/2
f 33/82/5 36/83/5 42/84/5 41/85/5
