# Blender v2.93.18 OBJ File: 'tools.blend'
# www.blender.org
mtllib radio.mtl
o radio_Cube.017
v -0.241849 -0.076351 0.092303
v -0.241849 -0.113718 0.112073
v -0.293651 -0.113718 0.092303
v -0.241849 -0.462633 0.112073
v -0.241849 -0.500000 0.092303
v -0.293651 -0.462633 0.092303
v -0.241849 -0.076351 -0.092303
v -0.293651 -0.113718 -0.092303
v 0.225176 -0.288175 -0.112073
v -0.241849 -0.500000 -0.092303
v 0.000000 -0.450606 -0.112073
v -0.293651 -0.462633 -0.092303
v 0.241849 -0.076351 0.092303
v 0.293651 -0.113718 0.092303
v 0.241849 -0.113718 0.112073
v 0.241849 -0.500000 0.092303
v 0.241849 -0.462633 0.112073
v 0.293651 -0.462633 0.092303
v 0.241849 -0.076351 -0.092303
v 0.000000 -0.125745 -0.112073
v 0.293651 -0.113718 -0.092303
v 0.241849 -0.500000 -0.092303
v 0.293651 -0.462633 -0.092303
v -0.225176 -0.288175 -0.112073
v -0.225176 -0.125745 -0.112073
v -0.249709 -0.108048 -0.106074
v -0.225176 -0.450606 -0.112073
v -0.249709 -0.468303 -0.106074
v 0.225176 -0.125745 -0.112073
v 0.249709 -0.108048 -0.106074
v 0.225176 -0.450606 -0.112073
v 0.249709 -0.468303 -0.106074
v 0.000000 -0.288175 -0.112073
v 0.000000 -0.369390 -0.112073
v 0.112588 -0.288175 -0.112073
v -0.225176 -0.369390 -0.112073
v -0.112588 -0.288175 -0.112073
v 0.112588 -0.450606 -0.112073
v -0.112588 -0.450606 -0.112073
v 0.225176 -0.369390 -0.112073
v -0.112588 -0.369390 -0.112073
v 0.112588 -0.369390 -0.112073
v 0.000000 -0.369390 -0.112073
v 0.000000 -0.288175 -0.112073
v 0.112588 -0.288175 -0.112073
v -0.112588 -0.288175 -0.112073
v -0.112588 -0.369390 -0.112073
v 0.112588 -0.369390 -0.112073
v 0.000000 -0.369390 -0.098147
v 0.000000 -0.288175 -0.098147
v 0.112588 -0.288175 -0.098147
v -0.112588 -0.288175 -0.098147
v -0.112588 -0.369390 -0.098147
v 0.112588 -0.369390 -0.098147
v 0.131206 -0.149441 -0.022332
v 0.142705 -0.150574 -0.022332
v 0.153762 -0.153928 -0.022332
v 0.163953 -0.159375 -0.022332
v 0.172884 -0.166705 -0.022332
v 0.180215 -0.175637 -0.022332
v 0.185661 -0.185827 -0.022332
v 0.189016 -0.196884 -0.022332
v 0.190148 -0.208383 -0.022332
v 0.189016 -0.219882 -0.022332
v 0.185661 -0.230939 -0.022332
v 0.180215 -0.241129 -0.022332
v 0.172884 -0.250061 -0.022332
v 0.163953 -0.257391 -0.022332
v 0.153762 -0.262838 -0.022332
v 0.142705 -0.266192 -0.022332
v 0.131206 -0.267325 -0.022332
v 0.119707 -0.266192 -0.022332
v 0.108650 -0.262838 -0.022332
v 0.098460 -0.257391 -0.022332
v 0.089528 -0.250061 -0.022332
v 0.082198 -0.241129 -0.022332
v 0.120925 -0.076351 0.046151
v 0.076751 -0.230939 -0.022332
v 0.241849 -0.076351 0.046151
v 0.073397 -0.219882 -0.022332
v 0.000000 -0.076351 0.046151
v 0.072264 -0.208383 -0.022332
v 0.120925 -0.076351 0.000000
v 0.073397 -0.196884 -0.022332
v 0.120925 -0.076351 0.092303
v 0.076751 -0.185827 -0.022332
v 0.000000 -0.076351 0.000000
v 0.082198 -0.175637 -0.022332
v 0.000000 -0.076351 0.092303
v 0.089528 -0.166705 -0.022332
v 0.241849 -0.076351 0.000000
v 0.098460 -0.159375 -0.022332
v 0.000000 -0.076351 -0.092303
v 0.108650 -0.153928 -0.022332
v -0.241849 -0.076351 0.000000
v 0.119707 -0.150574 -0.022332
v 0.131206 -0.165233 -0.140216
v 0.131206 -0.149441 -0.131937
v 0.136935 -0.165797 -0.140216
v 0.142705 -0.150574 -0.131937
v 0.142947 -0.167621 -0.140216
v 0.153762 -0.153928 -0.131937
v 0.149184 -0.170955 -0.140216
v 0.163953 -0.159375 -0.131937
v 0.155253 -0.175935 -0.140216
v 0.172884 -0.166705 -0.131937
v 0.160627 -0.182484 -0.140216
v 0.180215 -0.175637 -0.131937
v 0.164826 -0.190340 -0.140216
v 0.185661 -0.185827 -0.131937
v 0.167491 -0.199122 -0.140216
v 0.189016 -0.196884 -0.131937
v 0.168403 -0.208383 -0.140216
v 0.190148 -0.208383 -0.131937
v 0.167491 -0.217644 -0.140216
v 0.189016 -0.219882 -0.131937
v 0.164827 -0.226426 -0.140216
v 0.185661 -0.230939 -0.131937
v 0.160627 -0.234282 -0.140216
v 0.180215 -0.241129 -0.131937
v 0.155253 -0.240831 -0.140216
v 0.172884 -0.250061 -0.131937
v 0.149184 -0.245811 -0.140216
v 0.163953 -0.257391 -0.131937
v 0.142947 -0.249145 -0.140216
v 0.153762 -0.262838 -0.131937
v 0.136935 -0.250969 -0.140216
v 0.142705 -0.266192 -0.131937
v 0.131206 -0.251533 -0.140216
v 0.131206 -0.267325 -0.131937
v 0.125477 -0.250969 -0.140216
v 0.119707 -0.266192 -0.131937
v 0.119466 -0.249145 -0.140216
v 0.108650 -0.262838 -0.131937
v 0.113228 -0.245811 -0.140216
v 0.098460 -0.257391 -0.131937
v 0.107160 -0.240831 -0.140216
v 0.089528 -0.250061 -0.131937
v 0.101785 -0.234282 -0.140216
v 0.082198 -0.241129 -0.131937
v 0.097586 -0.226426 -0.140216
v 0.076751 -0.230939 -0.131937
v 0.094922 -0.217644 -0.140216
v 0.073397 -0.219882 -0.131937
v 0.094010 -0.208383 -0.140216
v 0.072264 -0.208383 -0.131937
v 0.094922 -0.199122 -0.140216
v 0.073397 -0.196884 -0.131937
v 0.097586 -0.190340 -0.140216
v 0.076751 -0.185827 -0.131937
v 0.101785 -0.182484 -0.140216
v 0.082198 -0.175637 -0.131937
v 0.107159 -0.175935 -0.140216
v 0.089528 -0.166705 -0.131937
v 0.113228 -0.170955 -0.140216
v 0.098460 -0.159375 -0.131937
v 0.119466 -0.167621 -0.140216
v 0.108650 -0.153928 -0.131937
v 0.125477 -0.165797 -0.140216
v 0.119707 -0.150574 -0.131937
vt 0.397051 0.772051
vt 0.397051 0.977949
vt 0.602949 0.977949
vt 0.602949 0.772051
vt 0.397051 0.522051
vt 0.397051 0.727949
vt 0.602949 0.727949
vt 0.602949 0.522051
vt 0.647051 0.522051
vt 0.647051 0.727949
vt 0.852949 0.727949
vt 0.852949 0.522051
vt 0.397051 0.022051
vt 0.397051 0.227949
vt 0.602949 0.227949
vt 0.602949 0.022051
vt 0.625000 0.272051
vt 0.607968 0.268705
vt 0.607968 0.481295
vt 0.625000 0.477949
vt 0.147051 0.727949
vt 0.125000 0.727949
vt 0.147051 0.750000
vt 0.602949 1.000000
vt 0.625000 0.977949
vt 0.606295 0.262013
vt 0.393705 0.262013
vt 0.352949 0.522051
vt 0.375000 0.522051
vt 0.356295 0.506692
vt 0.352949 0.727949
vt 0.352949 0.750000
vt 0.375000 0.727949
vt 0.625000 0.772051
vt 0.602949 0.750000
vt 0.625000 0.772051
vt 0.606295 0.487987
vt 0.393705 0.487987
vt 0.404148 0.375000
vt 0.404148 0.470852
vt 0.500000 0.470852
vt 0.500000 0.422926
vt 0.500000 0.375000
vt 0.147051 0.522051
vt 0.125000 0.522051
vt 0.147051 0.625000
vt 0.397051 0.000000
vt 0.602949 0.000000
vt 0.625000 0.022051
vt 0.625000 0.227949
vt 0.547926 0.422926
vt 0.547926 0.470852
vt 0.595852 0.470852
vt 0.595852 0.422926
vt 0.143705 0.506692
vt 0.602949 0.250000
vt 0.621654 0.268705
vt 0.625000 0.522051
vt 0.609641 0.506692
vt 0.625000 0.522051
vt 0.352949 0.625000
vt 0.352949 0.676475
vt 0.301475 0.727949
vt 0.250000 0.727949
vt 0.301475 0.676475
vt 0.595852 0.279148
vt 0.404148 0.279148
vt 0.500000 0.279148
vt 0.547926 0.279148
vt 0.397051 0.272051
vt 0.397051 0.477949
vt 0.595852 0.327074
vt 0.595852 0.375000
vt 0.356295 0.505019
vt 0.143705 0.505019
vt 0.250000 0.522051
vt 0.500000 0.327074
vt 0.547926 0.327074
vt 0.547926 0.375000
vt 0.547926 0.422926
vt 0.500000 0.422926
vt 0.500000 0.375000
vt 0.500000 0.327074
vt 0.547926 0.327074
vt 0.547926 0.327074
vt 0.547926 0.375000
vt 0.547926 0.375000
vt 0.547926 0.422926
vt 0.500000 0.327074
vt 0.500000 0.375000
vt 0.500000 0.422926
vt 0.031250 0.535112
vt 0.000000 0.535112
vt 0.000000 1.000000
vt 0.031250 1.000000
vt 0.937500 0.535112
vt 0.906250 0.535112
vt 0.906250 1.000000
vt 0.937500 1.000000
vt 0.875000 0.535112
vt 0.875000 1.000000
vt 0.843750 0.535112
vt 0.843750 1.000000
vt 0.812500 0.535112
vt 0.812500 1.000000
vt 0.781250 0.535112
vt 0.781250 1.000000
vt 0.781250 0.535112
vt 0.750000 0.535112
vt 0.750000 1.000000
vt 0.718750 0.535112
vt 0.718750 1.000000
vt 0.687500 0.535112
vt 0.687500 1.000000
vt 0.656250 0.535112
vt 0.656250 1.000000
vt 0.625000 0.535112
vt 0.625000 1.000000
vt 0.593750 0.535112
vt 0.593750 1.000000
vt 0.562500 0.535112
vt 0.562500 1.000000
vt 0.531250 0.535112
vt 0.531250 1.000000
vt 0.500000 0.535112
vt 0.500000 1.000000
vt 0.468750 0.535112
vt 0.468750 1.000000
vt 0.437500 0.535112
vt 0.437500 1.000000
vt 0.406250 0.535112
vt 0.406250 1.000000
vt 0.375000 0.535112
vt 0.375000 1.000000
vt 0.343750 0.535112
vt 0.343750 1.000000
vt 0.312500 0.535112
vt 0.312500 1.000000
vt 0.281250 0.535112
vt 0.281250 1.000000
vt 0.250000 0.535112
vt 0.250000 1.000000
vt 0.218750 0.535112
vt 0.218750 1.000000
vt 0.187500 0.535112
vt 0.187500 1.000000
vt 0.156250 0.535112
vt 0.156250 1.000000
vt 0.125000 0.535112
vt 0.125000 1.000000
vt 0.093750 0.535112
vt 0.093750 1.000000
vt 0.062500 0.535112
vt 0.062500 1.000000
vt 0.796822 0.485388
vt 0.841844 0.471731
vt 0.883337 0.449553
vt 0.919706 0.419706
vt 0.949553 0.383337
vt 0.971731 0.341844
vt 0.985388 0.296822
vt 0.990000 0.250000
vt 0.985388 0.203178
vt 0.971731 0.158156
vt 0.949553 0.116663
vt 0.919706 0.080294
vt 0.883337 0.050447
vt 0.841844 0.028269
vt 0.796822 0.014612
vt 0.750000 0.010000
vt 0.703178 0.014612
vt 0.658156 0.028269
vt 0.616663 0.050447
vt 0.580294 0.080294
vt 0.550447 0.116663
vt 0.528269 0.158156
vt 0.514612 0.203178
vt 0.510000 0.250000
vt 0.514612 0.296822
vt 0.528269 0.341844
vt 0.550447 0.383337
vt 0.580294 0.419706
vt 0.616663 0.449553
vt 0.658156 0.471731
vt 0.703178 0.485388
vt 0.750000 0.490000
vt 0.250000 0.676475
vt 0.250000 0.625000
vt 0.968750 0.535112
vt 0.968750 1.000000
vt 1.000000 0.535112
vt 1.000000 1.000000
vt 0.992025 0.500000
vt 0.976456 0.500000
vt 0.961294 0.500000
vt 0.944304 0.500000
vt 0.931066 0.500000
vt 0.911937 0.500000
vt 0.900919 0.500000
vt 0.879687 0.500000
vt 0.870593 0.500000
vt 0.847681 0.500000
vt 0.840014 0.500000
vt 0.815922 0.500000
vt 0.809198 0.500000
vt 0.784376 0.500000
vt 0.778180 0.500000
vt 0.753013 0.500000
vt 0.746987 0.500000
vt 0.721819 0.500000
vt 0.715623 0.500000
vt 0.690802 0.500000
vt 0.684078 0.500000
vt 0.659986 0.500000
vt 0.652319 0.500000
vt 0.629407 0.500000
vt 0.620313 0.500000
vt 0.599081 0.500000
vt 0.588063 0.500000
vt 0.568934 0.500000
vt 0.555696 0.500000
vt 0.538706 0.500000
vt 0.523544 0.500000
vt 0.507975 0.500000
vt 0.492025 0.500000
vt 0.476456 0.500000
vt 0.461294 0.500000
vt 0.444303 0.500000
vt 0.431066 0.500000
vt 0.411937 0.500000
vt 0.400919 0.500000
vt 0.379687 0.500000
vt 0.370593 0.500000
vt 0.347681 0.500000
vt 0.340014 0.500000
vt 0.315922 0.500000
vt 0.309198 0.500000
vt 0.284377 0.500000
vt 0.278180 0.500000
vt 0.253013 0.500000
vt 0.246987 0.500000
vt 0.221820 0.500000
vt 0.215623 0.500000
vt 0.190802 0.500000
vt 0.184078 0.500000
vt 0.159986 0.500000
vt 0.152319 0.500000
vt 0.129407 0.500000
vt 0.120313 0.500000
vt 0.099081 0.500000
vt 0.088063 0.500000
vt 0.068934 0.500000
vt 0.055696 0.500000
vt 0.038706 0.500000
vt 0.023544 0.500000
vt 0.007975 0.500000
vt 0.250000 0.425699
vt 0.226673 0.423402
vt 0.202195 0.415976
vt 0.176796 0.402400
vt 0.152086 0.382122
vt 0.130203 0.355457
vt 0.113105 0.323468
vt 0.102257 0.287708
vt 0.098543 0.250000
vt 0.102257 0.212292
vt 0.113105 0.176532
vt 0.130203 0.144543
vt 0.152086 0.117878
vt 0.176796 0.097600
vt 0.202195 0.084024
vt 0.226673 0.076598
vt 0.250000 0.074301
vt 0.273327 0.076598
vt 0.297805 0.084024
vt 0.323204 0.097600
vt 0.347914 0.117878
vt 0.369797 0.144543
vt 0.386895 0.176532
vt 0.397743 0.212292
vt 0.401457 0.250000
vt 0.397743 0.287707
vt 0.386895 0.323468
vt 0.369797 0.355457
vt 0.347914 0.382121
vt 0.323204 0.402400
vt 0.297805 0.415976
vt 0.273327 0.423402
vt 0.301475 0.625000
vn 0.0000 0.0000 1.0000
vn 1.0000 0.0000 0.0000
vn 0.0000 -1.0000 0.0000
vn -1.0000 0.0000 0.0000
vn 0.0000 -0.3985 -0.9172
vn -0.3196 0.4431 0.8375
vn -0.3196 -0.4431 0.8375
vn -0.2990 0.0000 -0.9542
vn 0.3196 0.4431 -0.8375
vn 0.3196 0.4431 0.8375
vn 0.3196 -0.4431 0.8375
vn 0.2990 0.0000 -0.9542
vn 0.0000 0.0000 -1.0000
vn -0.5850 0.8110 0.0000
vn -0.3566 0.0000 0.9343
vn -0.5850 -0.8110 0.0000
vn -0.3196 0.4431 -0.8375
vn -0.3196 -0.4431 -0.8375
vn 0.3196 -0.4431 -0.8375
vn 0.5850 0.8110 0.0000
vn 0.5850 -0.8110 0.0000
vn 0.3566 0.0000 0.9343
vn 0.0000 0.4677 0.8839
vn 0.0000 -0.4677 0.8839
vn 0.0000 1.0000 0.0000
vn -0.2375 0.0000 -0.9714
vn 0.0000 0.3211 -0.9471
vn 0.0000 -0.3211 -0.9471
vn 0.2375 0.0000 -0.9714
vn 0.0000 0.3985 -0.9172
vn 0.0980 -0.9952 0.0000
vn -0.4714 -0.8819 0.0000
vn -0.6344 -0.7730 0.0000
vn -0.7730 -0.6344 0.0000
vn -0.8819 -0.4714 0.0000
vn -0.9569 -0.2903 0.0000
vn -0.9952 -0.0980 0.0000
vn -0.9952 0.0980 0.0000
vn -0.9569 0.2903 0.0000
vn -0.8819 0.4714 0.0000
vn -0.7730 0.6344 0.0000
vn -0.6344 0.7730 0.0000
vn -0.4714 0.8819 0.0000
vn -0.2903 0.9569 0.0000
vn -0.0980 0.9952 0.0000
vn 0.0980 0.9952 0.0000
vn 0.2903 0.9569 0.0000
vn 0.4714 0.8819 0.0000
vn 0.6344 0.7730 0.0000
vn 0.7730 0.6344 0.0000
vn 0.8819 0.4714 0.0000
vn 0.9569 0.2903 0.0000
vn 0.9952 0.0980 0.0000
vn 0.9952 -0.0980 0.0000
vn 0.9569 -0.2903 0.0000
vn 0.8819 -0.4714 0.0000
vn 0.7730 -0.6344 0.0000
vn 0.6344 -0.7730 0.0000
vn 0.4714 -0.8819 0.0000
vn 0.2903 -0.9569 0.0000
vn -0.2903 -0.9569 0.0000
vn -0.0980 -0.9952 0.0000
vn -0.0457 -0.4638 0.8848
vn -0.1318 -0.4345 0.8910
vn -0.2047 -0.3829 0.9008
vn -0.2612 -0.3183 0.9113
vn -0.3023 -0.2481 0.9204
vn -0.3302 -0.1765 0.9273
vn -0.3474 -0.1054 0.9318
vn -0.3556 -0.0350 0.9340
vn -0.3556 0.0350 0.9340
vn -0.3474 0.1054 0.9318
vn -0.3302 0.1765 0.9273
vn -0.3023 0.2481 0.9204
vn -0.2612 0.3183 0.9113
vn -0.2047 0.3829 0.9008
vn -0.1318 0.4345 0.8910
vn -0.0457 0.4638 0.8848
vn 0.0457 0.4638 0.8848
vn 0.1318 0.4345 0.8910
vn 0.2047 0.3829 0.9008
vn 0.2612 0.3183 0.9113
vn 0.3023 0.2481 0.9204
vn 0.3302 0.1765 0.9273
vn 0.3474 0.1054 0.9318
vn 0.3556 0.0350 0.9340
vn 0.3556 -0.0350 0.9340
vn 0.3474 -0.1054 0.9318
vn 0.3302 -0.1765 0.9273
vn 0.3023 -0.2481 0.9204
vn 0.2612 -0.3183 0.9113
vn 0.2047 -0.3829 0.9008
vn 0.1318 -0.4345 0.8910
vn 0.0457 -0.4638 0.8848
g radio_Cube.017_Material
usemtl Material
s off
f 15/1/1 2/2/1 4/3/1 17/4/1
f 21/5/2 14/6/2 18/7/2 23/8/2
f 22/9/3 16/10/3 5/11/3 10/12/3
f 3/13/4 8/14/4 12/15/4 6/16/4
f 10/17/5 28/18/5 32/19/5 22/20/5
f 1/21/6 3/22/6 2/23/6
f 4/3/7 6/24/7 5/25/7
f 28/26/8 12/15/8 8/14/8 26/27/8
f 19/28/9 21/29/9 30/30/9
f 13/31/10 15/32/10 14/33/10
f 16/34/11 18/35/11 17/36/11
f 23/8/12 32/37/12 30/38/12 21/5/12
f 20/39/13 29/40/13 9/41/13 35/42/13 33/43/13
f 7/44/14 8/45/14 3/22/14 1/21/14 95/46/14
f 2/47/15 3/13/15 6/16/15 4/48/15
f 5/49/16 6/16/16 12/15/16 10/50/16
f 42/51/13 40/52/13 31/53/13 38/54/13
f 7/44/17 26/55/17 8/45/17
f 10/17/18 12/56/18 28/57/18
f 22/58/19 32/59/19 23/60/19
f 13/31/20 14/6/20 21/5/20 19/28/20 91/61/20 79/62/20
f 22/9/21 23/8/21 18/7/21 16/10/21
f 17/4/22 18/7/22 14/6/22 15/1/22
f 1/21/23 2/23/23 15/32/23 13/31/23 85/63/23 89/64/23
f 16/34/24 17/4/24 4/3/24 5/25/24
f 77/65/25 85/63/25 13/31/25 79/62/25
f 27/66/26 28/26/26 26/27/26 25/67/26 24/68/26 36/69/26
f 25/67/27 26/70/27 30/71/27 29/40/27 20/39/27
f 31/53/28 32/19/28 28/18/28 27/66/28 39/72/28 11/73/28 38/54/28
f 29/40/29 30/38/29 32/37/29 31/53/29 40/52/29 9/41/29
f 19/28/30 30/74/30 26/75/30 7/44/30 93/76/30
f 25/67/13 20/39/13 33/43/13 37/77/13 24/68/13
f 41/78/13 34/79/13 11/73/13 39/72/13
f 42/51/1 48/80/1 45/81/1 35/42/1
f 24/68/13 37/77/13 41/78/13 36/69/13
f 36/69/13 41/78/13 39/72/13 27/66/13
f 35/42/13 9/41/13 40/52/13 42/51/13
f 33/43/1 44/82/1 46/83/1 37/77/1
f 34/79/13 42/51/13 38/54/13 11/73/13
f 47/84/25 53/85/25 49/86/25 43/87/25
f 43/87/25 49/86/25 54/88/25 48/80/25
f 37/77/1 46/83/1 47/84/1 41/78/1
f 41/78/1 47/84/1 43/87/1 34/79/1
f 34/79/1 43/87/1 48/80/1 42/51/1
f 35/42/1 45/81/1 44/82/1 33/43/1
f 52/89/13 50/90/13 49/86/13 53/85/13
f 50/90/13 51/91/13 54/88/13 49/86/13
f 45/81/3 51/91/3 50/90/3 44/82/3
f 48/80/4 54/88/4 51/91/4 45/81/4
f 46/83/2 52/89/2 53/85/2 47/84/2
f 44/82/3 50/90/3 52/89/3 46/83/3
f 160/92/31 98/93/31 55/94/31 96/95/31
f 102/96/32 104/97/32 58/98/32 57/99/32
f 104/97/33 106/100/33 59/101/33 58/98/33
f 106/100/34 108/102/34 60/103/34 59/101/34
f 108/102/35 110/104/35 61/105/35 60/103/35
f 110/104/36 112/106/36 62/107/36 61/105/36
f 112/108/37 114/109/37 63/110/37 62/107/37
f 114/109/38 116/111/38 64/112/38 63/110/38
f 116/111/39 118/113/39 65/114/39 64/112/39
f 118/113/40 120/115/40 66/116/40 65/114/40
f 120/115/41 122/117/41 67/118/41 66/116/41
f 122/117/42 124/119/42 68/120/42 67/118/42
f 124/119/43 126/121/43 69/122/43 68/120/43
f 126/121/44 128/123/44 70/124/44 69/122/44
f 128/123/45 130/125/45 71/126/45 70/124/45
f 130/125/46 132/127/46 72/128/46 71/126/46
f 132/127/47 134/129/47 73/130/47 72/128/47
f 134/129/48 136/131/48 74/132/48 73/130/48
f 136/131/49 138/133/49 75/134/49 74/132/49
f 138/133/50 140/135/50 76/136/50 75/134/50
f 140/135/51 142/137/51 78/138/51 76/136/51
f 142/137/52 144/139/52 80/140/52 78/138/52
f 144/139/53 146/141/53 82/142/53 80/140/53
f 146/141/54 148/143/54 84/144/54 82/142/54
f 148/143/55 150/145/55 86/146/55 84/144/55
f 150/145/56 152/147/56 88/148/56 86/146/56
f 152/147/57 154/149/57 90/150/57 88/148/57
f 154/149/58 156/151/58 92/152/58 90/150/58
f 156/151/59 158/153/59 94/154/59 92/152/59
f 158/153/60 160/92/60 96/95/60 94/154/60
f 56/155/13 57/156/13 58/157/13 59/158/13 60/159/13 61/160/13 62/161/13 63/162/13 64/163/13 65/164/13 66/165/13 67/166/13 68/167/13 69/168/13 70/169/13 71/170/13 72/171/13 73/172/13 74/173/13 75/174/13 76/175/13 78/176/13 80/177/13 82/178/13 84/179/13 86/180/13 88/181/13 90/182/13 92/183/13 94/184/13 96/185/13 55/186/13
f 95/46/25 1/21/25 89/64/25 81/187/25 87/188/25
f 100/189/61 102/96/61 57/99/61 56/190/61
f 98/191/62 100/189/62 56/190/62 55/192/62
f 98/191/63 97/193/63 99/194/63 100/189/63
f 100/189/64 99/195/64 101/196/64 102/96/64
f 102/96/65 101/197/65 103/198/65 104/97/65
f 104/97/66 103/199/66 105/200/66 106/100/66
f 106/100/67 105/201/67 107/202/67 108/102/67
f 108/102/68 107/203/68 109/204/68 110/104/68
f 110/104/69 109/205/69 111/206/69 112/106/69
f 112/108/70 111/207/70 113/208/70 114/109/70
f 114/109/71 113/209/71 115/210/71 116/111/71
f 116/111/72 115/211/72 117/212/72 118/113/72
f 118/113/73 117/213/73 119/214/73 120/115/73
f 120/115/74 119/215/74 121/216/74 122/117/74
f 122/117/75 121/217/75 123/218/75 124/119/75
f 124/119/76 123/219/76 125/220/76 126/121/76
f 126/121/77 125/221/77 127/222/77 128/123/77
f 128/123/78 127/223/78 129/224/78 130/125/78
f 130/125/79 129/225/79 131/226/79 132/127/79
f 132/127/80 131/227/80 133/228/80 134/129/80
f 134/129/81 133/229/81 135/230/81 136/131/81
f 136/131/82 135/231/82 137/232/82 138/133/82
f 138/133/83 137/233/83 139/234/83 140/135/83
f 140/135/84 139/235/84 141/236/84 142/137/84
f 142/137/85 141/237/85 143/238/85 144/139/85
f 144/139/86 143/239/86 145/240/86 146/141/86
f 146/141/87 145/241/87 147/242/87 148/143/87
f 148/143/88 147/243/88 149/244/88 150/145/88
f 150/145/89 149/245/89 151/246/89 152/147/89
f 152/147/90 151/247/90 153/248/90 154/149/90
f 154/149/91 153/249/91 155/250/91 156/151/91
f 156/151/92 155/251/92 157/252/92 158/153/92
f 158/153/93 157/253/93 159/254/93 160/92/93
f 160/92/94 159/255/94 97/256/94 98/93/94
f 97/257/1 159/258/1 157/259/1 155/260/1 153/261/1 151/262/1 149/263/1 147/264/1 145/265/1 143/266/1 141/267/1 139/268/1 137/269/1 135/270/1 133/271/1 131/272/1 129/273/1 127/274/1 125/275/1 123/276/1 121/277/1 119/278/1 117/279/1 115/280/1 113/281/1 111/282/1 109/283/1 107/284/1 105/285/1 103/286/1 101/287/1 99/288/1
f 7/44/25 95/46/25 87/188/25 93/76/25
f 93/76/25 87/188/25 83/289/25 91/61/25 19/28/25
f 81/187/25 89/64/25 85/63/25 77/65/25
f 87/188/25 81/187/25 77/65/25 83/289/25
f 83/289/25 77/65/25 79/62/25 91/61/25
