# Blender v2.93.18 OBJ File: 'item_assets.blend'
# www.blender.org
mtllib item_assets.mtl
o Cube.002_Cube.001
v 0.407939 0.322740 0.804121
v -0.407939 0.322740 0.804121
v 0.407939 0.000000 -0.738534
v -0.407939 0.000000 1.538758
v 0.407939 0.000000 1.538758
v -0.407939 0.000000 -0.738534
v 0.407939 -0.250000 -0.738534
v 0.407939 -0.250000 1.538758
v -0.407939 -0.250000 -0.738534
v -0.407939 -0.250000 1.538758
v 0.408138 0.000310 -0.738489
v 0.408138 0.000310 0.600258
v 0.407939 0.000000 0.400112
v -0.407939 0.000000 0.400112
v -0.407939 -0.250000 0.400112
v 0.407939 -0.250000 0.400112
v 0.407939 -0.000123 0.813456
v 0.407939 0.000000 0.969435
v 0.407939 -0.250000 0.969435
v -0.407939 -0.000123 0.813456
v -0.407939 0.000000 0.969435
v -0.407939 -0.250000 0.969435
v 0.409826 -0.321431 -0.604900
v 0.407939 -0.246476 -0.738534
v 0.409826 -0.321431 1.402620
v 0.407939 -0.246476 1.538758
v -0.409826 -0.321431 -0.604900
v -0.407939 -0.246476 -0.738534
v -0.409826 -0.321431 1.402620
v -0.407939 -0.246476 1.538758
v -0.409826 -0.321431 0.398860
v -0.407939 -0.246476 0.400112
v 0.407939 -0.246476 0.400112
v 0.409826 -0.321431 0.398860
v -0.407939 -0.246476 0.969435
v -0.409826 -0.321431 1.007458
v 0.407939 -0.246476 0.969435
v 0.409826 -0.321431 1.007458
v -0.407939 0.000023 0.377784
v -0.403298 0.000310 0.600259
v -0.403298 0.000310 -0.738489
v 0.407939 0.000023 0.377784
v -0.409826 -0.321431 -0.604900
v -0.409826 -0.321431 0.398860
v 0.409826 -0.321431 0.398860
v 0.409826 -0.321431 -0.604900
v -0.407939 0.319677 0.813562
v -0.407939 0.319822 0.377890
v 0.407939 0.319822 0.377890
v 0.407939 0.319677 0.813562
v 0.367786 0.000310 0.533560
v -0.362947 0.000310 0.533560
v 0.367786 0.000310 -0.671790
v -0.362947 0.000310 -0.671790
v 0.367786 0.000310 0.379297
v -0.362947 0.000310 0.379297
v 0.367786 0.000310 -0.671790
v -0.362947 0.000310 -0.671790
v 0.367786 -0.099690 0.379297
v -0.362947 -0.099690 0.379297
v 0.367786 -0.099690 -0.671790
v -0.362947 -0.099690 -0.671790
v -0.407939 -0.125000 1.538758
v 0.000000 0.000000 1.538758
v 0.407939 -0.125000 1.538758
v 0.000000 -0.250000 1.538758
v 0.000000 -0.125000 1.538758
v -0.407939 -0.062500 1.538758
v -0.203969 0.000000 1.538758
v 0.407939 -0.187500 1.538758
v -0.203969 -0.250000 1.538758
v -0.407939 -0.187500 1.538758
v 0.203969 0.000000 1.538758
v 0.407939 -0.062500 1.538758
v 0.203969 -0.250000 1.538758
v -0.203969 -0.125000 1.538758
v 0.203969 -0.125000 1.538758
v 0.000000 -0.187500 1.538758
v 0.203969 -0.187500 1.538758
v -0.203969 -0.187500 1.538758
v -0.407939 -0.187500 1.512940
v -0.407939 -0.125000 1.512940
v -0.203969 -0.125000 1.512940
v 0.203969 -0.125000 1.512940
v 0.000000 -0.125000 1.512940
v 0.407939 -0.125000 1.512940
v 0.407939 -0.187500 1.512940
v 0.000000 -0.187500 1.512940
v 0.203969 -0.187500 1.512940
v -0.203969 -0.187500 1.512940
v 0.000000 0.000000 -0.738534
v 0.407939 -0.125000 -0.738534
v -0.407939 -0.125000 -0.738534
v 0.000000 -0.250000 -0.738534
v 0.000000 -0.125000 -0.738534
v 0.203969 0.000000 -0.738534
v 0.407939 -0.187500 -0.738534
v -0.407939 -0.187500 -0.738534
v 0.203969 -0.250000 -0.738534
v -0.203969 0.000000 -0.738534
v 0.407939 -0.062500 -0.738534
v -0.407939 -0.062500 -0.738534
v -0.203969 -0.250000 -0.738534
v 0.203969 -0.125000 -0.738534
v -0.203969 -0.125000 -0.738534
v 0.000000 -0.187500 -0.738534
v -0.203969 -0.187500 -0.738534
v 0.203969 -0.187500 -0.738534
v 0.203969 -0.125000 -0.708159
v 0.407939 -0.125000 -0.708159
v -0.203969 -0.125000 -0.708159
v 0.000000 -0.125000 -0.708159
v 0.407939 -0.187500 -0.708159
v -0.407939 -0.125000 -0.708159
v -0.407939 -0.187500 -0.708159
v 0.000000 -0.187500 -0.708159
v -0.203969 -0.187500 -0.708159
v 0.203969 -0.187500 -0.708159
v -0.409826 -0.321431 1.007458
v -0.409826 -0.321431 1.402620
v 0.409826 -0.321431 1.402620
v 0.409826 -0.321431 1.007458
v 0.409826 -0.321431 0.398860
v -0.409826 -0.321431 0.398860
v -0.409826 -0.321431 -0.604900
v -0.409826 -0.321431 0.398860
v 0.409826 -0.321431 0.398860
v 0.409826 -0.321431 -0.604900
v -0.409826 -0.321431 1.007458
v -0.409826 -0.321431 1.402620
v 0.409826 -0.321431 1.402620
v 0.409826 -0.321431 1.007458
v 0.409826 -0.321431 0.398860
v -0.409826 -0.321431 0.398860
v 0.350552 -0.316326 1.206787
v -0.350552 -0.316326 1.206786
v -0.350552 -0.316326 0.398860
v 0.350552 -0.316326 0.398860
v -0.350552 -0.095565 0.935606
v -0.350552 -0.095565 0.670040
v 0.350552 -0.095565 0.670040
v 0.350552 -0.095565 0.935606
v 0.350552 -0.249503 1.206787
v -0.350552 -0.249503 1.206786
v 0.350552 -0.098513 1.206787
v -0.350552 -0.098513 1.206786
v 0.350552 -0.249503 1.252247
v -0.350552 -0.249503 1.252247
v -0.350552 0.245247 0.670040
v 0.350552 0.245247 0.670040
v 0.409826 -0.321431 1.402620
v 0.407939 -0.246476 1.538758
v -0.409826 -0.321431 1.402620
v -0.407939 -0.246476 1.538758
v -0.378145 -0.316140 1.402620
v -0.376403 -0.241185 1.538758
v 0.378145 -0.316140 1.402620
v 0.376403 -0.241185 1.538758
v -0.378145 -0.137649 1.304346
v -0.376403 -0.062694 1.440484
v 0.378145 -0.137649 1.304346
v 0.376403 -0.062694 1.440484
v -0.243379 -0.085688 1.307350
v -0.242258 -0.037446 1.394970
v 0.243379 -0.085688 1.307350
v 0.242258 -0.037446 1.394970
v 0.376403 -0.007066 1.471342
v -0.376403 -0.007066 1.471342
v 0.242258 0.018181 1.425828
v -0.242258 0.018181 1.425828
v 0.350552 -0.098513 1.210389
v 0.350552 -0.140371 1.252247
v -0.350552 -0.140371 1.252247
v -0.350552 -0.098513 1.210389
v -0.350552 0.175416 0.935606
v -0.350552 0.245247 0.865775
v 0.350552 0.245247 0.865775
v 0.350552 0.175416 0.935606
vt 0.795918 0.564962
vt 0.203728 0.564962
vt 0.203728 0.706737
vt 0.795918 0.706737
vt 0.677658 0.572591
vt 0.956949 0.572591
vt 0.956949 0.985768
vt 0.677658 0.985768
vt 0.677658 0.882474
vt 0.677658 0.779180
vt 0.677658 0.675885
vt 0.611899 0.456784
vt 0.611899 0.455236
vt 1.111899 0.455236
vt 1.111899 0.456784
vt 0.695637 0.788689
vt 0.695592 0.732514
vt 0.811869 0.729152
vt 0.695637 0.993726
vt 0.359915 0.268716
vt 0.359915 0.378496
vt 0.109915 0.378496
vt 0.109915 0.351051
vt 0.109915 0.323606
vt 0.109915 0.296161
vt 0.109915 0.268716
vt 0.109884 0.183394
vt 0.109884 0.293173
vt 0.609884 0.293173
vt 0.609884 0.265728
vt 0.609884 0.238283
vt 0.609884 0.210838
vt 0.609884 0.183394
vt 0.202358 0.171680
vt 0.202358 0.345203
vt 0.202358 0.345203
vt 0.202358 0.171680
vt 0.111900 0.456784
vt 0.111900 0.455236
vt 0.361900 0.455236
vt 0.361900 0.456784
vt 0.795918 0.456784
vt 0.795918 0.455236
vt 0.647870 0.455236
vt 0.499823 0.455236
vt 0.351776 0.455236
vt 0.203728 0.455236
vt 0.203728 0.456784
vt 1.111899 0.456784
vt 1.111899 0.455236
vt 0.611899 0.455236
vt 0.611899 0.456784
vt 0.361899 0.456784
vt 0.361899 0.455236
vt 0.111900 0.455236
vt 0.111900 0.456784
vt 0.797288 1.053219
vt 0.797288 0.612449
vt 0.797288 0.612449
vt 0.797288 1.053219
vt 0.361900 0.381819
vt 0.361900 0.491598
vt 0.611899 0.491598
vt 0.611899 0.381819
vt 0.609884 0.183394
vt 0.609884 0.210838
vt 0.609884 0.238283
vt 0.609884 0.265728
vt 0.609884 0.293173
vt 0.109884 0.293173
vt 0.109884 0.183394
vt 0.203728 0.456784
vt 0.203728 0.455236
vt 0.351776 0.455236
vt 0.499823 0.455236
vt 0.647870 0.455236
vt 0.795918 0.455236
vt 0.795918 0.456784
vt 0.361900 0.565016
vt 0.430392 0.564962
vt 0.621704 0.565026
vt 0.611899 0.565016
vt 0.696674 0.997132
vt 0.814801 0.728247
vt 0.696629 0.731664
vt 0.696674 0.788754
vt 0.111900 0.381819
vt 0.111900 0.409264
vt 0.111900 0.436709
vt 0.111900 0.464153
vt 0.111900 0.491598
vt 0.609915 0.268716
vt 0.609915 0.378496
vt 0.611899 0.565016
vt 0.621704 0.565025
vt 0.430392 0.564962
vt 0.361899 0.565016
vt -0.001774 0.004708
vt -0.001827 0.164168
vt 0.115223 0.164207
vt 0.115276 0.004746
vt 0.950623 0.350787
vt 0.950623 0.429378
vt 0.983537 0.456453
vt 0.983537 0.343225
vt 0.812145 0.003896
vt 0.812145 0.463722
vt 0.857500 0.462664
vt 0.857500 0.004955
vt 0.797288 0.171680
vt 0.795918 0.111900
vt 0.203728 0.111900
vt 0.950623 0.229747
vt 0.950623 0.030116
vt 0.983537 0.003539
vt 0.983537 0.229996
vt 0.950623 0.030116
vt 0.950623 0.229747
vt 0.983537 0.229996
vt 0.983537 0.003539
vt 0.950623 0.350787
vt 0.983537 0.343225
vt 0.950623 0.429378
vt 0.983537 0.456453
vt 0.797288 0.612449
vt 0.202358 0.612449
vt 0.202358 0.612449
vt 0.202358 0.612449
vt 0.766774 1.082591
vt 0.766774 0.553300
vt 0.766774 0.621040
vt 0.766774 1.082591
vt 0.797288 1.053219
vt 0.202358 1.053219
vt 0.202358 1.053219
vt 0.413083 0.134274
vt 0.413083 0.347730
vt 0.199063 0.347730
vt 0.199063 0.134274
vt 0.607168 0.340025
vt 0.014978 0.340026
vt 0.014978 0.480455
vt 0.607168 0.480455
vt 0.795918 0.705391
vt 0.203728 0.705391
vt -0.002864 0.165018
vt -0.002812 0.008114
vt 0.112362 0.008152
vt 0.112309 0.165056
vt 0.236385 0.553300
vt 0.796062 0.524012
vt 0.207097 0.524011
vt 0.859975 0.025014
vt 0.859975 0.423316
vt 0.889263 0.445311
vt 0.889263 0.003019
vt 0.766774 0.023535
vt 0.766774 0.439856
vt 0.796062 0.462894
vt 0.796062 0.000498
vt 0.834716 0.435552
vt 0.834716 0.030654
vt 0.805427 0.008249
vt 0.805427 0.457957
vt 0.873771 0.460460
vt 0.873771 -0.001092
vt 0.829860 -0.001092
vt 0.829860 0.460460
vt 0.236385 1.082591
vt 0.236385 1.082591
vt 0.236385 0.621040
vt 0.707393 0.358046
vt 0.986285 0.358046
vt 0.986285 0.115350
vt 0.707393 0.115350
vt 0.884669 0.447719
vt 0.884669 0.007681
vt 0.840757 0.007681
vt 0.840757 0.447719
vt 0.873771 0.002877
vt 0.873771 0.464428
vt 0.829860 0.464428
vt 0.829860 0.002877
vt 0.809268 0.010268
vt 0.809268 0.457038
vt 0.765356 0.457038
vt 0.765356 0.010268
vt 0.855899 0.039308
vt 0.855899 0.130486
vt 0.918122 0.130486
vt 0.918122 0.039308
vt 0.111900 0.510126
vt 0.111900 0.482681
vt 0.123237 0.482681
vt 0.123237 0.510126
vt 0.064247 0.124253
vt 0.064247 0.010166
vt 0.036802 0.010166
vt 0.009357 0.010166
vt 0.009357 0.124253
vt 0.009357 0.238340
vt 0.009357 0.352426
vt 0.009357 0.466513
vt 0.036802 0.466513
vt 0.064247 0.466513
vt 0.064247 0.352426
vt 0.064247 0.238340
vt 0.111900 0.482681
vt 0.111900 0.510126
vt 0.123237 0.510126
vt 0.123237 0.482681
vt 0.855899 0.221665
vt 0.855899 0.312843
vt 0.918122 0.312843
vt 0.918122 0.221665
vt 0.392861 0.738728
vt 0.509534 0.738728
vt 0.509534 0.717099
vt 0.392861 0.717099
vt 0.276187 0.717099
vt 0.159514 0.717099
vt 0.042840 0.717099
vt 0.042840 0.738728
vt 0.159514 0.738728
vt 0.276187 0.738728
vt 0.855899 0.404021
vt 0.918122 0.404021
vt 0.938567 0.003085
vt 0.938567 0.094264
vt 0.938567 0.185442
vt 0.938567 0.276620
vt 0.938567 0.367799
vt 0.923495 0.367799
vt 0.923495 0.276620
vt 0.923495 0.185442
vt 0.923495 0.094264
vt 0.923495 0.003085
vt 0.993007 0.312843
vt 0.993007 0.221665
vt 0.919802 0.221665
vt 0.919802 0.312843
vt 0.993007 0.130486
vt 0.993007 0.039308
vt 0.919802 0.039308
vt 0.919802 0.130486
vt 0.157319 0.482681
vt 0.305366 0.482681
vt 0.453414 0.482681
vt 0.601461 0.482681
vt 0.601461 0.455236
vt 0.453414 0.455236
vt 0.305366 0.455236
vt 0.157319 0.455236
vt 0.009272 0.455236
vt 0.009272 0.482681
vt 0.910339 0.185442
vt 0.910339 0.094264
vt 0.910339 0.003085
vt 0.923149 0.003085
vt 0.923149 0.094264
vt 0.923149 0.185442
vt 0.923149 0.276620
vt 0.923149 0.367799
vt 0.910339 0.367799
vt 0.910339 0.276620
vt 1.111899 0.510126
vt 1.111899 0.482681
vt 1.098562 0.482681
vt 1.098562 0.510126
vt 1.111899 0.482681
vt 1.111899 0.510126
vt 1.098562 0.510126
vt 1.098562 0.482681
vt 0.993007 0.404021
vt 0.919802 0.404021
vt 0.202358 0.612449
vt 0.202358 0.612449
vt 0.202358 0.345203
vt 0.797288 0.612449
vt 0.797288 0.612449
vt 0.997496 0.435388
vt 0.997496 0.021400
vt 0.690782 0.021400
vt 0.690782 0.435388
vt 0.797288 0.345203
vt 0.797288 0.345203
vt 0.797288 0.171680
vt 0.202358 1.053219
vt 0.147398 0.434055
vt -0.000650 0.434055
vt -0.000650 0.406610
vt -0.000650 0.379165
vt 0.147398 0.379165
vt 0.295445 0.379165
vt 0.443493 0.379165
vt 0.591540 0.379165
vt 0.591540 0.406610
vt 0.591540 0.434055
vt 0.443493 0.434055
vt 0.295445 0.434055
vt 0.965653 0.417183
vt 0.965653 0.056046
vt 0.700702 0.056046
vt 0.700702 0.417183
vt 0.980735 0.447266
vt 0.980735 0.030197
vt 0.717368 0.030197
vt 0.717368 0.447266
vt 0.202358 0.171680
vt 0.797288 0.171680
vt 0.797288 0.345203
vt 0.795918 0.430392
vt 0.203728 0.430392
vt 0.754265 0.612449
vt 0.754265 0.257674
vt 0.245381 0.257674
vt 0.245381 0.612449
vt 0.754265 0.523051
vt 0.245381 0.523051
vt 0.245381 0.672708
vt 0.754265 0.672708
vt 0.245381 0.493369
vt 0.754265 0.493369
vt 0.612449 0.426111
vt 0.257674 0.426111
vt 0.376755 0.523051
vt 0.493369 0.523051
vt 0.257674 0.455454
vt 0.257674 0.521757
vt 0.257674 0.426111
vt 0.612449 0.426111
vt 0.493369 0.523051
vt 0.376754 0.523051
vt 0.237711 0.455454
vt 0.237711 0.503376
vt 0.256092 0.521757
vt 0.257674 0.521757
vt 0.257674 0.455454
vt 0.754265 0.376754
vt 0.245381 0.376755
vt 0.245381 0.257674
vt 0.754265 0.257674
vt 0.245381 0.426111
vt 0.754265 0.426111
vt 0.754265 0.455454
vt 0.245381 0.455454
vt 0.256092 0.521757
vt 0.237711 0.503376
vt 0.237711 0.455454
vt 0.245381 0.455454
vt 0.754265 0.455454
vt 0.754265 0.503376
vt 0.245381 0.503376
vt 0.245381 0.257674
vt 0.754265 0.257674
vt 0.754265 0.237711
vt 0.245381 0.237711
vt 0.245381 0.523051
vt 0.754265 0.523051
vt 0.754265 0.642044
vt 0.245381 0.642044
vt 0.754265 0.493369
vt 0.245381 0.493369
vt 0.245381 0.407419
vt 0.754265 0.407419
vt 0.493369 0.672708
vt 0.407419 0.672708
vt 0.376754 0.642044
vt 0.914658 0.455032
vt 0.854877 0.454010
vt 0.854877 0.012121
vt 0.914658 0.011099
vt 0.171680 0.426193
vt 0.111900 0.459107
vt 0.155053 0.537486
vt 0.214834 0.504571
vt 0.202358 0.423870
vt 0.797288 0.423870
vt 0.774292 0.426193
vt 0.225354 0.426193
vt 0.797288 0.171680
vt 0.795918 0.111900
vt 0.773028 0.111900
vt 0.774292 0.171680
vt 0.203728 0.111900
vt 0.202358 0.171680
vt 0.225354 0.171680
vt 0.226618 0.111900
vt 0.773028 0.537486
vt 0.226618 0.537486
vt 0.226618 0.561913
vt 0.773028 0.561913
vt 0.111900 0.459107
vt 0.171680 0.426193
vt 0.214834 0.504571
vt 0.155053 0.537486
vt 0.773028 0.459107
vt 0.226618 0.459107
vt 0.774292 0.504571
vt 0.225354 0.504571
vt 0.323171 0.213515
vt 0.676475 0.213515
vt 0.675662 0.175039
vt 0.323984 0.175039
vt 0.676475 0.527388
vt 0.323171 0.527388
vt 0.774292 0.214834
vt 0.773028 0.155053
vt 0.226618 0.155053
vt 0.225354 0.214834
vt 0.773028 0.141503
vt 0.226618 0.141503
vt 0.323984 0.161489
vt 0.675662 0.161489
vt 0.323984 0.548572
vt 0.323984 0.572999
vt 0.675662 0.548572
vt 0.675662 0.572999
vt 0.754265 0.521757
vt 0.245381 0.521757
vt 0.245381 0.256092
vt 0.754265 0.256092
vt 0.754265 0.672708
vt 0.245381 0.672708
vt 0.376755 0.642044
vt 0.407419 0.672708
vt 0.493369 0.672708
vt 0.129522 0.988630
vt 0.001757 0.988630
vt 0.001757 0.854624
vt 0.129522 0.854624
vt 0.257288 0.854624
vt 0.385054 0.854624
vt 0.512820 0.854624
vt 0.512820 0.988630
vt 0.385054 0.988630
vt 0.257288 0.988630
vt 0.453414 0.482681
vt 0.305366 0.482681
vt 0.157319 0.482681
vt 0.009272 0.482681
vt 0.009272 0.455236
vt 0.157319 0.455236
vt 0.305366 0.455236
vt 0.453414 0.455236
vt 0.601461 0.455236
vt 0.601461 0.482681
vn 0.0000 -0.0289 -0.9996
vn 0.0000 0.9155 0.4022
vn 1.0000 0.0000 0.0000
vn -1.0000 0.0000 0.0000
vn 0.0000 0.0000 1.0000
vn 0.0000 0.0000 -1.0000
vn 1.0000 -0.0002 0.0000
vn -0.9997 0.0252 0.0000
vn 0.0000 -0.8722 -0.4892
vn 0.0000 -0.8760 0.4823
vn 0.9997 0.0252 0.0000
vn 0.0000 1.0000 0.0003
vn 0.0000 0.0003 -1.0000
vn 0.0000 -0.0003 1.0000
vn 0.0000 -1.0000 0.0000
vn 0.0000 1.0000 0.0000
vn -0.0000 -1.0000 -0.0020
vn 0.0000 0.7755 -0.6313
vn 0.0000 0.9999 0.0109
vn 0.0000 0.8760 -0.4823
vn -0.9999 -0.0054 -0.0098
vn -0.1452 -0.8675 0.4757
vn 0.1452 -0.8675 0.4757
vn 0.0000 0.4851 -0.8745
vn 0.9999 -0.0054 -0.0098
vn 0.0000 -0.4823 -0.8760
vn 0.0000 0.4823 0.8760
vn 0.0000 -0.0577 0.9983
vn -0.3115 -0.8341 0.4553
vn 0.3115 -0.8341 0.4553
vn 0.0000 -0.8745 -0.4851
vn 0.3617 -0.4522 0.8153
vn -0.3617 -0.4522 0.8153
vn 0.0000 -0.4851 0.8745
vn 0.0000 0.7071 0.7071
g Cube.002_Cube.001_Material.004
usemtl Material.004
s off
f 17/1/1 20/2/1 2/3/1 1/4/1
f 5/5/2 1/6/2 2/7/2 4/8/2 69/9/2 64/10/2 73/11/2
f 32/12/3 15/13/3 9/14/3 28/15/3
f 18/16/3 17/17/3 1/18/3 5/19/3
f 19/20/3 18/21/3 5/22/3 74/23/3 65/24/3 70/25/3 8/26/3
f 15/27/4 14/28/4 6/29/4 102/30/4 93/31/4 98/32/4 9/33/4
f 29/34/5 36/35/5 119/36/5 120/37/5
f 30/38/3 10/39/3 22/40/3 35/41/3
f 26/42/6 8/43/6 75/44/6 66/45/6 71/46/6 10/47/6 30/48/6
f 24/49/4 7/50/4 16/51/4 33/52/4
f 37/53/4 19/54/4 8/55/4 26/56/4
f 46/57/5 45/58/5 127/59/5 128/60/5
f 22/61/4 21/62/4 14/63/4 15/64/4
f 7/65/3 97/66/3 92/67/3 101/68/3 3/69/3 13/70/3 16/71/3
f 28/72/5 9/73/5 103/74/5 94/75/5 99/76/5 7/77/5 24/78/5
f 21/79/7 20/80/7 39/81/7 14/82/7
f 4/83/4 2/84/4 20/85/4 21/86/4
f 10/87/4 72/88/4 63/89/4 68/90/4 4/91/4 21/62/4 22/61/4
f 35/41/3 22/40/3 15/13/3 32/12/3
f 16/92/3 13/93/3 18/21/3 19/20/3
f 13/94/4 42/95/4 17/96/4 18/97/4
f 33/52/4 16/51/4 19/54/4 37/53/4
f 39/98/4 20/99/4 47/100/4 48/101/4
f 36/102/8 29/103/8 30/104/8 35/105/8
f 23/106/9 27/107/9 28/108/9 24/109/9
f 29/34/10 25/110/10 26/111/10 30/112/10
f 34/113/11 23/114/11 24/115/11 33/116/11
f 27/117/8 31/118/8 32/119/8 28/120/8
f 38/121/11 34/113/11 33/116/11 37/122/11
f 31/118/8 36/102/8 35/105/8 32/119/8
f 25/123/11 38/121/11 37/122/11 26/124/11
f 34/125/5 31/126/5 44/127/5 45/58/5
f 45/58/5 44/127/5 126/128/5 127/59/5
f 53/129/5 51/130/5 55/131/5 57/132/5
f 23/133/5 34/125/5 45/58/5 46/57/5
f 31/126/5 27/134/5 43/135/5 44/127/5
f 27/134/5 23/133/5 46/57/5 43/135/5
f 49/136/12 48/137/12 47/138/12 50/139/12
f 42/140/13 39/141/13 48/142/13 49/143/13
f 20/2/14 17/1/14 50/144/14 47/145/14
f 17/146/3 42/147/3 49/148/3 50/149/3
f 52/150/15 51/130/15 12/151/15 40/152/15
f 53/153/15 54/154/15 41/155/15 11/156/15
f 51/157/15 53/158/15 11/159/15 12/160/15
f 54/161/15 52/162/15 40/163/15 41/164/15
f 56/165/4 58/166/4 62/167/4 60/168/4
f 52/150/15 54/169/15 58/170/15 56/171/15
f 54/169/5 53/129/5 57/132/5 58/170/5
f 51/130/15 52/150/15 56/171/15 55/131/15
f 62/172/15 61/173/15 59/174/15 60/175/15
f 58/176/6 57/177/6 61/178/6 62/179/6
f 57/180/3 55/181/3 59/182/3 61/183/3
f 55/184/5 56/185/5 60/186/5 59/187/5
f 65/188/15 77/189/15 84/190/15 86/191/15
f 63/192/3 72/193/3 81/194/3 82/195/3
f 96/196/6 3/197/6 101/198/6 92/199/6 104/200/6 95/201/6 105/202/6 93/203/6 102/204/6 6/205/6 100/206/6 91/207/6
f 70/208/4 65/209/4 86/210/4 87/211/4
f 67/212/15 76/213/15 83/214/15 85/215/15
f 109/216/6 110/217/6 113/218/6 118/219/6 116/220/6 117/221/6 115/222/6 114/223/6 111/224/6 112/225/6
f 76/213/15 63/226/15 82/227/15 83/214/15
f 97/228/16 108/229/16 106/230/16 107/231/16 98/232/16 115/233/16 117/234/16 116/235/16 118/236/16 113/237/16
f 77/189/15 67/212/15 85/215/15 84/190/15
f 105/238/15 95/239/15 112/240/15 111/241/15
f 104/242/15 92/243/15 110/244/15 109/245/15
f 107/246/6 106/247/6 108/248/6 97/249/6 7/250/6 99/251/6 94/252/6 103/253/6 9/254/6 98/255/6
f 78/256/16 79/257/16 70/258/16 87/259/16 89/260/16 88/261/16 90/262/16 81/263/16 72/264/16 80/265/16
f 92/266/4 97/267/4 113/268/4 110/269/4
f 95/239/15 104/242/15 109/245/15 112/240/15
f 98/270/3 93/271/3 114/272/3 115/273/3
f 93/274/15 105/238/15 111/241/15 114/275/15
f 119/36/5 124/276/5 134/277/5 129/278/5
f 124/276/5 123/279/5 133/280/5 134/277/5
f 125/281/15 128/282/15 127/283/15 126/284/15
f 34/125/5 38/285/5 122/286/5 123/279/5
f 25/110/5 29/34/5 120/37/5 121/287/5
f 38/285/5 25/110/5 121/287/5 122/286/5
f 36/35/5 31/126/5 124/276/5 119/36/5
f 43/135/5 46/57/5 128/60/5 125/288/5
f 44/127/5 43/135/5 125/288/5 126/128/5
f 31/126/5 34/125/5 123/279/5 124/276/5
f 69/289/5 4/290/5 68/291/5 63/292/5 76/293/5 67/294/5 77/295/5 65/296/5 74/297/5 5/298/5 73/299/5 64/300/5
f 129/301/15 132/302/15 131/303/15 130/304/15
f 134/305/15 133/306/15 132/307/15 129/308/15
f 121/287/5 120/37/5 130/309/5 131/310/5
f 122/286/5 121/287/5 131/310/5 132/311/5
f 123/279/5 122/286/5 132/311/5 133/280/5
f 120/37/5 119/36/5 129/278/5 130/309/5
f 17/312/17 20/313/17 40/152/17 12/151/17
f 138/314/15 135/315/15 136/316/15 137/317/15
f 141/318/6 140/319/6 149/320/6 150/321/6
f 138/314/18 137/317/18 140/322/18 141/323/18
f 137/324/4 136/325/4 139/326/4 140/327/4
f 139/326/4 136/325/4 144/328/4 146/329/4
f 135/330/3 138/331/3 141/332/3 142/333/3
f 146/329/4 144/328/4 148/334/4 173/335/4 174/336/4
f 135/330/3 142/333/3 145/337/3 143/338/3
f 142/339/19 139/340/19 146/341/19 145/342/19
f 136/343/5 135/344/5 143/345/5 144/346/5
f 143/338/3 145/337/3 171/347/3 172/348/3 147/349/3
f 148/350/5 147/351/5 172/352/5 173/353/5
f 144/354/15 143/355/15 147/356/15 148/357/15
f 139/358/5 142/359/5 178/360/5 175/361/5
f 150/362/16 149/363/16 176/364/16 177/365/16
f 142/333/3 141/332/3 150/366/3 177/367/3 178/368/3
f 153/369/20 154/370/20 152/371/20 151/372/20
f 157/373/21 158/374/21 162/375/21 161/376/21
f 153/377/5 151/378/5 157/379/5 155/380/5
f 151/381/22 152/382/22 158/383/22 157/384/22
f 154/385/23 153/386/23 155/387/23 156/388/23
f 162/389/24 160/390/24 168/391/24 167/392/24
f 156/393/25 155/394/25 159/395/25 160/396/25
f 158/397/26 156/398/26 160/390/26 162/389/26
f 155/380/27 157/379/27 161/399/27 159/400/27
f 163/401/10 165/402/10 166/403/10 164/404/10
f 159/400/28 161/399/28 165/405/28 163/406/28
f 161/407/29 162/408/29 166/403/29 165/402/29
f 160/409/30 159/410/30 163/401/30 164/404/30
f 167/411/31 168/412/31 170/413/31 169/414/31
f 160/390/32 164/415/32 170/416/32 168/391/32
f 166/417/33 162/389/33 167/392/33 169/418/33
f 164/415/34 166/417/34 169/418/34 170/416/34
f 171/419/35 174/420/35 173/353/35 172/352/35
f 145/342/16 146/341/16 174/421/16 171/422/16
f 177/423/35 176/424/35 175/361/35 178/360/35
f 140/327/4 139/326/4 175/425/4 176/426/4 149/427/4
f 83/428/5 82/429/5 81/430/5 90/431/5 88/432/5 89/433/5 87/434/5 86/435/5 84/436/5 85/437/5
f 79/438/5 78/439/5 80/440/5 72/441/5 10/442/5 71/443/5 66/444/5 75/445/5 8/446/5 70/447/5
