# Blender v2.93.18 OBJ File: 'tools.blend'
# www.blender.org
mtllib immortal_belt.mtl
o Immortal_belt_Cube.002
v 0.220644 0.035062 0.220644
v 0.220644 -0.035062 0.220644
v 0.220644 0.035062 -0.220644
v 0.220644 -0.035062 -0.220644
v -0.220644 0.035062 0.220644
v -0.220644 -0.035062 0.220644
v -0.220644 0.035062 -0.220644
v -0.220644 -0.035062 -0.220644
v 0.220644 0.008594 -0.220644
v 0.220644 0.008594 0.220644
v 0.220644 -0.008594 0.220644
v 0.220644 -0.008594 -0.220644
v -0.220644 0.008594 -0.220644
v -0.220644 -0.008594 -0.220644
v -0.220644 0.008594 0.220644
v -0.220644 -0.008594 0.220644
v 0.434893 0.083425 -0.198277
v 0.198277 0.083424 -0.434893
v 0.352586 0.160650 -0.352586
v 0.198277 0.083424 0.434893
v 0.434893 0.083425 0.198277
v 0.352586 0.160650 0.352586
v 0.434893 -0.083424 0.198277
v 0.198277 -0.083424 0.434893
v 0.352586 -0.160650 0.352586
v 0.198277 -0.083424 -0.434893
v 0.434893 -0.083424 -0.198277
v 0.352586 -0.160650 -0.352586
v -0.198277 0.083424 -0.434893
v -0.434893 0.083424 -0.198277
v -0.352586 0.160650 -0.352586
v -0.434893 -0.083425 -0.198277
v -0.198277 -0.083424 -0.434893
v -0.352586 -0.160650 -0.352586
v -0.434893 0.083424 0.198277
v -0.198277 0.083424 0.434893
v -0.352586 0.160650 0.352586
v -0.198277 -0.083424 0.434893
v -0.434893 -0.083425 0.198277
v -0.352586 -0.160650 0.352586
v 0.500000 0.160650 -0.227961
v 0.227961 0.160650 -0.500000
v 0.227961 0.160650 0.500000
v 0.500000 0.160650 0.227961
v 0.500000 -0.160650 0.227961
v 0.227961 -0.160650 0.500000
v 0.227961 -0.160650 -0.500000
v 0.500000 -0.160650 -0.227961
v -0.227961 0.160650 -0.500000
v -0.500000 0.160650 -0.227961
v -0.500000 -0.160650 -0.227961
v -0.227961 -0.160650 -0.500000
v -0.500000 0.160650 0.227961
v -0.227961 0.160650 0.500000
v -0.227961 -0.160650 0.500000
v -0.500000 -0.160650 0.227961
vt 0.612870 0.338010
vt 0.762130 0.338010
vt 0.762130 0.451990
vt 0.612870 0.451990
vt 0.308603 0.647633
vt 0.411773 0.647633
vt 0.442620 0.757374
vt 0.413484 0.774342
vt 0.306893 0.774342
vt 0.277756 0.757374
vt 0.098596 0.431869
vt 0.098596 0.550086
vt 0.007213 0.585432
vt 0.007213 0.552046
vt 0.007213 0.429909
vt 0.007213 0.396523
vt 0.155499 0.738996
vt 0.155499 0.620778
vt 0.243292 0.585432
vt 0.239805 0.618818
vt 0.239805 0.740956
vt 0.243292 0.774342
vt 0.364154 0.431869
vt 0.364154 0.550086
vt 0.351647 0.550086
vt 0.351647 0.431869
vt 0.308603 0.614765
vt 0.411773 0.614765
vt 0.411773 0.627706
vt 0.308603 0.627706
vt 0.612870 0.088010
vt 0.762130 0.088010
vt 0.762130 0.201990
vt 0.612870 0.201990
vt 0.104736 0.620778
vt 0.104736 0.738996
vt 0.010700 0.774342
vt 0.007213 0.740956
vt 0.007213 0.618818
vt 0.010700 0.585432
vt 0.612870 0.838010
vt 0.762130 0.838010
vt 0.762130 0.951990
vt 0.612870 0.951990
vt 0.612870 0.588010
vt 0.762130 0.588010
vt 0.762130 0.701990
vt 0.612870 0.701990
vt 0.149621 0.550086
vt 0.149621 0.431869
vt 0.241005 0.396523
vt 0.241005 0.429909
vt 0.241005 0.552046
vt 0.241005 0.585432
vt 0.383413 0.550086
vt 0.383413 0.431869
vt 0.474797 0.396523
vt 0.474797 0.429909
vt 0.474797 0.552046
vt 0.474797 0.585432
vt 0.306316 0.321685
vt 0.409486 0.321685
vt 0.440333 0.357032
vt 0.411196 0.396523
vt 0.304605 0.396523
vt 0.275469 0.357032
vt 0.130362 0.431869
vt 0.130362 0.550086
vt 0.117855 0.550086
vt 0.117855 0.431869
vt 0.123896 0.738996
vt 0.123896 0.620778
vt 0.136339 0.620778
vt 0.136339 0.738996
vt 0.332388 0.550086
vt 0.332388 0.431869
vt 0.477084 0.743029
vt 0.333237 0.590521
vt 0.402460 0.590521
vt 0.365852 0.592931
vt 0.243292 0.590521
vt 0.333237 0.590521
vt 0.288264 0.594838
vt 0.241005 0.323646
vt 0.243292 0.743029
vt 0.474797 0.323646
vt 0.333237 0.588111
vt 0.402460 0.588111
vt 0.369844 0.590521
vt 0.243292 0.585432
vt 0.333237 0.585432
vt 0.288264 0.589749
vt 0.612870 0.020000
vt 0.762130 0.020000
vt 0.241005 0.585432
vt 0.241005 0.552046
vt 0.241005 0.429909
vt 0.241005 0.396523
vt 0.308603 0.594838
vt 0.411773 0.594838
vt 0.256226 0.249448
vt 0.311545 0.255863
vt 0.304605 0.321685
vt 0.241005 0.314311
vt 0.022434 0.239263
vt 0.077753 0.239263
vt 0.070813 0.303651
vt 0.007213 0.303651
vt 0.225783 0.396523
vt 0.170464 0.369288
vt 0.177404 0.303651
vt 0.241005 0.334964
vt 0.395975 0.249448
vt 0.340656 0.249448
vt 0.347596 0.185060
vt 0.411196 0.185060
vt 0.404256 0.255863
vt 0.459575 0.249448
vt 0.474797 0.314311
vt 0.411196 0.321685
vt 0.077753 0.239263
vt 0.022434 0.239263
vt 0.007213 0.174874
vt 0.070813 0.174874
vt 0.340656 0.120671
vt 0.395975 0.120671
vt 0.411196 0.185060
vt 0.347596 0.185060
vt 0.077753 0.369288
vt 0.022434 0.396523
vt 0.007213 0.334964
vt 0.070813 0.303651
vt 0.170464 0.239263
vt 0.177404 0.303651
vt 0.247945 0.249448
vt 0.241005 0.185060
vt 0.510847 0.249448
vt 0.418136 0.249448
vt 0.411196 0.187155
vt 0.517787 0.187155
vt 0.418136 0.136507
vt 0.510848 0.136507
vt 0.517787 0.187155
vt 0.411196 0.187155
vt 0.247945 0.120671
vt 0.241005 0.185060
vt 0.170464 0.239263
vt 0.177404 0.174874
vn 0.0000 0.0000 -1.0000
vn -0.0000 0.9131 0.4077
vn 0.4077 0.9131 0.0000
vn -0.0000 0.9131 -0.4077
vn -1.0000 0.0000 0.0000
vn 0.0000 0.0000 1.0000
vn 1.0000 0.0000 0.0000
vn 0.0000 -0.9131 -0.4077
vn 0.4077 -0.9131 0.0000
vn -0.4077 -0.9131 0.0000
vn 0.0000 -0.9131 0.4077
vn 0.0000 1.0000 0.0000
vn -0.0000 -1.0000 0.0000
vn 0.7071 0.0000 0.7071
vn 0.7071 0.0000 -0.7071
vn -0.7071 0.0000 -0.7071
vn -0.7071 0.0000 0.7071
vn -0.4077 0.9131 0.0000
vn 0.5340 -0.6555 -0.5340
vn 0.5340 -0.6555 0.5340
vn 0.5340 0.6555 0.5340
vn 0.5340 0.6555 -0.5340
vn -0.5340 -0.6555 -0.5340
vn -0.5340 0.6555 -0.5340
vn -0.5340 -0.6555 0.5340
vn -0.5340 0.6555 0.5340
vn 0.7645 -0.6446 0.0000
vn 0.7645 0.6446 0.0000
vn 0.0000 -0.6446 -0.7645
vn -0.0000 0.6446 -0.7645
vn 0.0000 -0.6446 0.7645
vn -0.0000 0.6446 0.7645
vn -0.7645 -0.6446 0.0000
vn -0.7645 0.6446 0.0000
g Immortal_belt_Cube.002_Material.001
usemtl Material.001
s off
f 18/1/1 26/2/1 33/3/1 29/4/1
f 7/5/2 3/6/2 19/7/2 42/8/2 49/9/2 31/10/2
f 5/11/3 7/12/3 31/13/3 50/14/3 53/15/3 37/16/3
f 1/17/4 5/18/4 37/19/4 54/20/4 43/21/4 22/22/4
f 12/23/5 11/24/5 10/25/5 9/26/5
f 14/27/6 12/28/6 9/29/6 13/30/6
f 21/31/7 23/32/7 27/33/7 17/34/7
f 6/35/8 2/36/8 25/37/8 46/38/8 55/39/8 40/40/8
f 36/41/6 38/42/6 24/43/6 20/44/6
f 30/45/5 32/46/5 39/47/5 35/48/5
f 8/49/9 6/50/9 40/51/9 56/52/9 51/53/9 34/54/9
f 2/55/10 4/56/10 28/57/10 48/58/10 45/59/10 25/60/10
f 4/61/11 8/62/11 34/63/11 52/64/11 47/65/11 28/66/11
f 16/67/7 14/68/7 13/69/7 15/70/7
f 11/71/1 16/72/1 15/73/1 10/74/1
f 9/26/5 10/25/5 1/75/5 3/76/5
f 13/30/6 9/29/6 3/6/6 7/5/6
f 15/70/7 13/69/7 7/12/7 5/11/7
f 10/74/1 15/73/1 5/18/1 1/17/1
f 41/77/12 42/8/12 19/7/12
f 43/78/12 44/79/12 22/80/12
f 45/81/13 46/82/13 25/83/13
f 47/65/13 48/84/13 28/66/13
f 49/9/12 50/85/12 31/10/12
f 51/86/13 52/64/13 34/63/13
f 53/87/12 54/88/12 37/89/12
f 55/90/13 56/91/13 40/92/13
f 20/93/14 24/94/14 23/32/14 21/31/14
f 26/2/15 18/1/15 17/34/15 27/33/15
f 32/46/16 30/45/16 29/4/16 33/3/16
f 38/42/17 36/41/17 35/48/17 39/47/17
f 3/76/18 1/75/18 22/95/18 44/96/18 41/97/18 19/98/18
f 2/36/1 6/35/1 16/72/1 11/71/1
f 6/50/7 8/49/7 14/68/7 16/67/7
f 8/99/6 4/100/6 12/28/6 14/27/6
f 4/56/5 2/55/5 11/24/5 12/23/5
f 17/101/19 18/102/19 42/103/19 41/104/19
f 20/105/20 21/106/20 44/107/20 43/108/20
f 23/109/21 24/110/21 46/111/21 45/112/21
f 26/113/22 27/114/22 48/115/22 47/116/22
f 29/117/23 30/118/23 50/119/23 49/120/23
f 32/121/24 33/122/24 52/123/24 51/124/24
f 35/125/25 36/126/25 54/127/25 53/128/25
f 38/129/26 39/130/26 56/131/26 55/132/26
f 21/106/27 17/133/27 41/134/27 44/107/27
f 27/114/28 23/135/28 45/136/28 48/115/28
f 18/102/29 29/117/29 49/120/29 42/103/29
f 33/137/30 26/138/30 47/139/30 52/140/30
f 36/141/31 20/142/31 43/143/31 54/144/31
f 24/110/32 38/129/32 55/132/32 46/111/32
f 30/145/33 35/125/33 53/128/33 50/146/33
f 39/147/34 32/121/34 51/124/34 56/148/34
