# Blender v2.93.18 OBJ File: 'untitled.blend'
# www.blender.org
mtllib BOOK.mtl
o Cube.002
v 0.423292 0.151657 -0.455922
v 0.423292 -0.481243 -0.169662
v -0.423292 0.151657 -0.455922
v -0.423292 -0.481243 -0.169662
v 0.000000 -0.493440 -0.196629
v 0.000000 0.139459 -0.482889
v 0.423292 0.142616 -0.475910
v -0.423292 -0.490284 -0.189651
v 0.423292 -0.490284 -0.189651
v -0.423292 0.142616 -0.475910
v 0.000000 0.136561 -0.489298
v 0.000000 -0.496339 -0.203038
v -0.423292 -0.485764 -0.179656
v 0.423292 0.147136 -0.465916
v 0.423292 -0.485764 -0.179656
v -0.423292 0.147136 -0.465916
v 0.000000 0.138010 -0.486093
v 0.000000 -0.494890 -0.199834
v 0.423292 0.138095 -0.485904
v 0.423292 -0.494804 -0.199645
v -0.423292 0.138095 -0.485904
v 0.000000 0.135111 -0.492503
v 0.000000 -0.497789 -0.206243
v -0.423292 -0.494804 -0.199645
v 0.439156 0.133732 -0.484480
v 0.417732 0.149754 -0.491715
v 0.422005 0.137112 -0.485514
v 0.417732 -0.506866 -0.194727
v 0.439156 -0.490853 -0.201981
v 0.422005 -0.493862 -0.200125
v -0.439156 0.133732 -0.484480
v -0.422005 0.137112 -0.485514
v -0.417732 0.149754 -0.491715
v -0.439156 -0.490853 -0.201981
v -0.417732 -0.506866 -0.194727
v -0.422005 -0.493862 -0.200125
v -0.021425 0.149835 -0.491535
v 0.000000 0.148215 -0.490787
v 0.021425 0.149835 -0.491535
v 0.021425 -0.506785 -0.194547
v 0.000000 -0.505153 -0.195269
v -0.021425 -0.506785 -0.194547
v -0.417732 0.147240 -0.497271
v -0.417733 0.130766 -0.491039
v -0.439156 0.131219 -0.490037
v -0.439156 -0.493367 -0.207537
v -0.417733 -0.493820 -0.208539
v -0.417732 -0.509379 -0.200283
v -0.021425 0.147321 -0.497092
v 0.021425 0.147321 -0.497092
v 0.000000 0.130851 -0.490850
v 0.021425 -0.509298 -0.200104
v -0.021425 -0.509298 -0.200104
v 0.000000 -0.493734 -0.208351
v 0.417732 -0.509379 -0.200283
v 0.417733 -0.493820 -0.208539
v 0.439156 -0.493367 -0.207537
v 0.439156 0.131219 -0.490037
v 0.417733 0.130766 -0.491039
v 0.417732 0.147240 -0.497271
vt 0.990181 0.503289
vt 0.986881 0.986959
vt 0.514332 0.982168
vt 0.517631 0.498498
vt 0.664062 0.875000
vt 0.726562 0.875000
vt 0.726562 1.000000
vt 0.664062 1.000000
vt 0.664062 0.000000
vt 0.726562 0.000000
vt 0.726562 0.250000
vt 0.664062 0.250000
vt 0.440248 0.750180
vt 0.437500 0.750000
vt 0.437500 0.875000
vt 0.383568 0.875000
vt 0.664062 0.500000
vt 0.726562 0.500000
vt 0.726562 0.750000
vt 0.664062 0.750000
vt 0.664062 0.375000
vt 0.726562 0.375000
vt 0.375000 0.881098
vt 0.375000 0.993902
vt 0.375000 0.993902
vt 0.375000 0.881098
vt 0.993481 0.019619
vt 0.520931 0.014828
vt 0.539062 0.750000
vt 0.601562 0.750000
vt 0.601562 0.875000
vt 0.539062 0.875000
vt 0.539062 0.250000
vt 0.601562 0.250000
vt 0.601562 0.375000
vt 0.539062 0.375000
vt 0.601563 0.500000
vt 0.539063 0.500000
vt 0.539062 0.000000
vt 0.601562 0.000000
vt 0.601562 1.000000
vt 0.539062 1.000000
vt 0.264242 0.987424
vt 0.264242 0.500000
vt 0.493522 0.500000
vt 0.493522 0.987423
vt 0.375000 0.256098
vt 0.375000 0.368902
vt 0.375000 0.368902
vt 0.375000 0.256098
vt 0.375000 0.506098
vt 0.375000 0.743902
vt 0.375000 0.743902
vt 0.375000 0.506098
vt 0.375000 0.381098
vt 0.375000 0.493902
vt 0.375000 0.493902
vt 0.375000 0.381098
vt 0.375000 0.006098
vt 0.375000 0.243902
vt 0.375000 0.243902
vt 0.375000 0.006098
vt 0.375000 0.756098
vt 0.375000 0.868902
vt 0.375000 0.868902
vt 0.375000 0.756098
vt 0.264242 0.012576
vt 0.493522 0.012576
vt 0.437500 1.000000
vt 0.440248 0.999820
vt 0.442573 0.500024
vt 0.437500 0.500000
vt 0.442573 0.749977
vt 0.440249 0.250180
vt 0.437500 0.250000
vt 0.437500 0.375000
vt 0.383568 0.375000
vt 0.442573 0.000024
vt 0.437500 0.000000
vt 0.442573 0.249976
vt 0.015625 0.506098
vt 0.015625 0.493902
vt 0.083198 0.500024
vt 0.015625 0.756098
vt 0.015625 0.743902
vt 0.080873 0.750180
vt 0.015625 0.243902
vt 0.080874 0.250180
vt 0.015625 0.256098
vt 0.015625 0.006098
vt 0.015625 0.000000
vt 0.015625 0.004882
vt 0.015625 0.368902
vt 0.024193 0.375000
vt 0.015625 0.381098
vt 0.015625 0.868902
vt 0.024193 0.875000
vt 0.015625 0.881098
vt 0.015625 0.256098
vt 0.015625 0.256098
vt 0.015625 0.250000
vt 0.015625 0.006098
vt 0.015625 0.006098
vt 0.015625 0.000000
vt 0.015625 0.368902
vt 0.015625 0.375000
vt 0.015625 0.375000
vt 0.015625 0.868902
vt 0.015625 0.881040
vt 0.015625 0.875000
vt 0.015625 0.756098
vt 0.015625 0.756098
vt 0.015625 0.750000
vt 0.015625 0.506098
vt 0.015625 0.506098
vt 0.015625 0.500000
vt 0.083198 0.000024
vt 0.083198 0.249976
vt 0.083198 0.749977
vt 0.080874 0.499820
vt 0.015625 0.993902
vt 0.080873 0.999820
vt 0.015625 0.243902
vt 0.015625 0.243902
vt 0.009527 0.743902
vt 0.009527 0.506098
vt 0.015625 0.743902
vt 0.015625 0.493902
vt 0.015625 0.381098
vt 0.015625 0.493902
vt 0.015625 0.993902
vt 0.015625 0.881098
vt 0.015625 0.993902
vt 0.440249 0.499820
vn 0.0698 0.4111 0.9089
vn 0.0000 -0.9111 0.4121
vn -1.0000 -0.0000 0.0000
vn -0.0155 0.8537 0.5206
vn 1.0000 -0.0000 0.0000
vn 0.0000 0.9111 -0.4121
vn -0.0698 0.4111 0.9089
vn 0.0005 -0.4121 -0.9111
vn -0.0005 -0.4121 -0.9111
vn 0.0155 0.8537 0.5206
vn 0.0385 -0.4118 -0.9105
vn 0.0155 -0.1728 0.9848
vn -0.0385 -0.4118 -0.9105
vn 0.0348 0.4496 0.8926
vn 0.0348 0.3734 0.9270
vn -0.0348 0.4496 0.8926
vn -0.0348 0.3734 0.9270
vn 0.0000 0.4196 0.9077
vn 0.0000 0.4046 0.9145
vn -0.0512 -0.3534 -0.9341
vn -0.0512 -0.4681 -0.8822
vn 0.0000 -0.3544 -0.9351
vn 0.0000 -0.4682 -0.8836
vn 0.0512 -0.4681 -0.8822
vn 0.0512 -0.3534 -0.9341
vn -0.0263 0.4120 0.9108
vn -0.0004 0.4377 0.8991
vn 0.0004 0.3862 0.9224
vn 0.0263 0.4120 0.9108
vn 0.0004 0.4377 0.8991
vn -0.0004 0.3862 0.9224
vn -0.6343 0.7044 -0.3186
vn -0.0513 -0.4116 -0.9099
vn 0.0005 -0.3538 -0.9353
vn -0.0005 -0.4687 -0.8833
vn 0.0513 -0.4116 -0.9099
vn -0.0005 -0.3538 -0.9353
vn 0.0005 -0.4687 -0.8833
vn -0.6343 -0.7044 0.3186
vn 0.6343 -0.7044 0.3186
vn 0.6343 0.7044 -0.3186
vn -0.0155 -0.1728 0.9848
usemtl Material
s off
f 6/1/1 3/2/1 4/3/1 5/4/1
f 18/5/2 5/6/2 4/7/2 13/8/2
f 13/9/3 4/10/3 3/11/3 16/12/3
f 30/13/4 20/14/4 23/15/4 41/16/4
f 14/17/5 1/18/5 2/19/5 15/20/5
f 17/21/6 6/22/6 1/18/6 14/17/6
f 16/12/6 3/11/6 6/22/6 17/21/6
f 42/23/2 35/24/2 48/25/2 53/26/2
f 15/20/2 2/19/2 5/6/2 18/5/2
f 1/27/7 6/1/7 5/4/7 2/28/7
f 20/29/2 9/30/2 12/31/2 23/32/2
f 21/33/6 10/34/6 11/35/6 22/36/6
f 22/36/6 11/35/6 7/37/6 19/38/6
f 19/38/5 7/37/5 9/30/5 20/29/5
f 24/39/3 8/40/3 10/34/3 21/33/3
f 23/32/2 12/31/2 8/41/2 24/42/2
f 9/30/2 15/20/2 18/5/2 12/31/2
f 10/34/6 16/12/6 17/21/6 11/35/6
f 11/35/6 17/21/6 14/17/6 7/37/6
f 7/37/5 14/17/5 15/20/5 9/30/5
f 8/40/3 13/9/3 16/12/3 10/34/3
f 12/31/2 18/5/2 13/8/2 8/41/2
f 44/43/8 51/44/8 54/45/8 47/46/8
f 33/47/6 37/48/6 49/49/6 43/50/6
f 25/51/5 29/52/5 57/53/5 58/54/5
f 39/55/6 26/56/6 60/57/6 50/58/6
f 34/59/3 31/60/3 45/61/3 46/62/3
f 28/63/2 40/64/2 52/65/2 55/66/2
f 51/44/9 59/67/9 56/68/9 54/45/9
f 41/16/10 23/15/10 24/69/10 36/70/10
f 27/71/11 19/72/11 20/14/11 30/73/11
f 32/74/12 21/75/12 22/76/12 38/77/12
f 36/78/13 24/79/13 21/75/13 32/80/13
f 25/81/14 26/82/14 27/83/14
f 28/84/15 29/85/15 30/86/15
f 31/87/16 32/88/16 33/89/16
f 34/90/17 35/91/17 36/92/17
f 37/93/18 38/94/18 39/95/18
f 40/96/19 41/97/19 42/98/19
f 43/99/20 44/100/20 45/101/20
f 46/102/21 47/103/21 48/104/21
f 49/105/22 50/106/22 51/107/22
f 52/108/23 53/109/23 54/110/23
f 55/111/24 56/112/24 57/113/24
f 58/114/25 59/115/25 60/116/25
f 31/87/26 34/90/26 36/117/26 32/118/26
f 37/93/27 33/89/27 32/88/27 38/94/27
f 40/96/28 28/84/28 30/86/28 41/97/28
f 29/85/29 25/81/29 27/83/29 30/119/29
f 26/82/30 39/95/30 38/94/30 27/120/30
f 35/121/31 42/98/31 41/97/31 36/122/31
f 33/89/32 43/99/32 45/123/32 31/87/32
f 44/124/33 47/103/33 46/102/33 45/123/33
f 51/107/34 44/100/34 43/99/34 49/105/34
f 54/110/35 56/112/35 55/111/35 52/108/35
f 56/125/36 59/126/36 58/114/36 57/127/36
f 59/128/37 51/107/37 50/129/37 60/130/37
f 47/131/38 54/110/38 53/132/38 48/133/38
f 48/104/39 35/91/39 34/90/39 46/102/39
f 28/84/40 55/111/40 57/127/40 29/85/40
f 60/130/41 26/82/41 25/81/41 58/114/41
f 52/108/2 40/96/2 42/98/2 53/132/2
f 49/105/6 37/93/6 39/95/6 50/129/6
f 38/77/42 22/76/42 19/72/42 27/134/42
