# Blender v2.93.18 OBJ File: ''
# www.blender.org
mtllib walkman.mtl
o Cube.001_Cube.002
v 0.171182 -0.386869 -0.295201
v 0.194826 -0.386869 -0.259375
v 0.171182 -0.505912 -0.259375
v 0.171182 -0.498222 -0.295201
v 0.194826 -0.498222 -0.259375
v 0.194826 -0.386869 0.259375
v 0.145855 -0.395106 0.295201
v 0.194826 -0.498222 0.259375
v 0.145855 -0.489985 0.295201
v 0.171182 -0.505912 0.259375
v -0.171182 -0.386869 -0.295201
v -0.194826 -0.386869 -0.259375
v -0.194826 -0.498222 -0.259375
v -0.171182 -0.498222 -0.295201
v -0.171182 -0.505912 -0.259375
v -0.194826 -0.386869 0.259375
v -0.145855 -0.395106 0.295201
v -0.171182 -0.505912 0.259375
v -0.145855 -0.489985 0.295201
v -0.194826 -0.498222 0.259375
v 0.177965 -0.383591 -0.269653
v 0.177965 -0.383591 0.269653
v -0.177965 -0.383591 -0.269653
v -0.177965 -0.383591 0.269653
v 0.143248 -0.373636 -0.250050
v 0.168196 -0.376013 -0.254851
v 0.143248 -0.373636 -0.183463
v 0.168196 -0.376013 0.254851
v -0.143248 -0.373636 -0.250050
v -0.168196 -0.376013 -0.254851
v -0.143248 -0.373636 -0.183463
v -0.168196 -0.376013 0.254851
v -0.171182 -0.498222 0.295201
v -0.171182 -0.386869 0.295201
v 0.171182 -0.386869 0.295201
v 0.171182 -0.498222 0.295201
v -0.053647 -0.429729 0.295651
v -0.053647 -0.455362 0.295651
v -0.132457 -0.429729 0.295651
v -0.132457 -0.455362 0.295651
v -0.132457 -0.442545 0.295651
v -0.053647 -0.442545 0.295651
v -0.093052 -0.429729 0.295651
v -0.093052 -0.455362 0.295651
v -0.093052 -0.442545 0.295651
v -0.129984 -0.442545 0.302473
v -0.130993 -0.430205 0.297749
v -0.056121 -0.442545 0.302473
v -0.055111 -0.454886 0.297749
v -0.093052 -0.430533 0.302473
v -0.055111 -0.430205 0.297749
v -0.093052 -0.454557 0.302473
v -0.130993 -0.454886 0.297749
v -0.132457 -0.442545 0.302473
v -0.132457 -0.429729 0.302473
v -0.053647 -0.442545 0.302473
v -0.053647 -0.455362 0.302473
v -0.093052 -0.429729 0.302473
v -0.053647 -0.429729 0.302473
v -0.093052 -0.455362 0.302473
v -0.132457 -0.455362 0.302473
v -0.125772 -0.442545 0.302473
v -0.129984 -0.430533 0.302473
v -0.060332 -0.442545 0.302473
v -0.056121 -0.454557 0.302473
v -0.093052 -0.431903 0.302473
v -0.056121 -0.430533 0.302473
v -0.093052 -0.453187 0.302473
v -0.129984 -0.454557 0.302473
v -0.130993 -0.442545 0.297749
v -0.125772 -0.431903 0.302473
v -0.055111 -0.442545 0.297749
v -0.060332 -0.453187 0.302473
v -0.093052 -0.430205 0.297749
v -0.060332 -0.431903 0.302473
v -0.093052 -0.454886 0.297749
v -0.125772 -0.453187 0.302473
v -0.093052 -0.442545 0.297749
v -0.130993 -0.442545 0.297749
v -0.055111 -0.442545 0.297749
v -0.093052 -0.454886 0.297749
v -0.093052 -0.430205 0.297749
v -0.130993 -0.430205 0.297749
v -0.055111 -0.454886 0.297749
v -0.055111 -0.430205 0.297749
v -0.130993 -0.454886 0.297749
vt 0.022130 0.342573
vt 0.022130 0.022130
vt 0.342573 0.022130
vt 0.342573 0.342573
vt 0.639634 0.685146
vt 0.320737 0.685146
vt 0.320737 0.364703
vt 0.639634 0.364703
vt 0.297035 0.683572
vt 0.024032 0.683572
vt 0.024032 0.410538
vt 0.297035 0.410538
vt 0.696150 0.355377
vt 0.685887 0.347991
vt 0.696150 0.333141
vt 0.958531 0.685146
vt 0.639634 0.685146
vt 0.639634 0.364703
vt 0.958531 0.364703
vt 0.829692 0.000000
vt 0.829692 0.333140
vt 0.813911 0.326816
vt 0.813911 0.006374
vt 0.000000 0.022130
vt 0.022130 0.000000
vt 0.798129 0.000000
vt 0.798129 0.333141
vt 0.782322 0.326792
vt 0.782322 0.006349
vt 0.342573 0.000000
vt 0.364703 0.022130
vt 0.813911 0.000000
vt 0.813910 0.333140
vt 0.798129 0.326765
vt 0.798129 0.006324
vt 0.022130 0.364703
vt 0.000000 0.342573
vt 0.364703 0.342573
vt 0.342573 0.364703
vt 0.364703 0.000000
vt 0.684623 0.000000
vt 0.685887 0.022130
vt 0.365968 0.022130
vt 0.320737 0.386834
vt 0.000330 0.386834
vt 0.000000 0.364703
vt 0.320407 0.364703
vt 0.000330 0.707277
vt 0.320737 0.707277
vt 0.320407 0.729407
vt 0.000000 0.729407
vt 0.365968 0.342573
vt 0.685887 0.342573
vt 0.684623 0.364703
vt 0.364703 0.364703
vt 0.706413 0.333141
vt 0.706413 0.355377
vt 0.696150 0.347991
vt 0.760380 0.323997
vt 0.760380 0.009144
vt 0.782323 0.000000
vt 0.782323 0.333141
vt 0.716676 0.333141
vt 0.716676 0.355377
vt 0.706413 0.340527
vt 0.726939 0.355377
vt 0.716676 0.340527
vt 0.726939 0.333141
vt 0.715180 0.323997
vt 0.715180 0.009144
vt 0.737780 0.000000
vt 0.737780 0.333141
vt 0.323685 0.976650
vt 0.323685 0.708497
vt 0.364817 0.708497
vt 0.364817 0.976650
vt 0.737780 0.323997
vt 0.737780 0.009144
vt 0.760380 0.000000
vt 0.760380 0.333141
vt 0.845448 0.000000
vt 0.845448 0.333141
vt 0.829692 0.326792
vt 0.829692 0.006349
vt 0.635590 0.685146
vt 0.635590 1.000000
vt 0.320737 1.000000
vt 0.320737 0.685146
vt 0.715180 0.032494
vt 0.715180 0.300647
vt 0.708182 0.323997
vt 0.708182 0.009144
vt 0.685887 0.333141
vt 0.685887 0.000000
vt 0.746168 0.722029
vt 0.746168 0.685146
vt 0.782990 0.685146
vt 0.782990 0.722029
vt 0.709346 0.722029
vt 0.709346 0.685146
vt 0.709346 0.758911
vt 0.746168 0.758911
vt 0.782990 0.758911
vt 0.364703 0.364703
vt 0.364703 0.364703
vt 0.364703 0.364703
vt 0.364703 0.364703
vt 0.364703 0.364703
vt 0.364703 0.364703
vt 0.364703 0.364703
vt 0.364703 0.364703
vt 0.364703 0.364703
vt 0.364703 0.364703
vt 0.364703 0.364703
vt 0.364703 0.364703
vt 0.364703 0.364703
vt 0.364703 0.364703
vt 0.795632 0.721851
vt 0.795632 0.685146
vt 0.799845 0.685146
vt 0.799845 0.721851
vt 0.787204 0.722029
vt 0.787204 0.758911
vt 0.795632 0.758555
vt 0.799845 0.758555
vt 0.791418 0.722029
vt 0.791418 0.758911
vt 0.787204 0.758911
vt 0.787204 0.722029
vt 0.795632 0.721851
vt 0.795632 0.758555
vt 0.791418 0.758555
vt 0.791418 0.721851
vt 0.791418 0.685146
vt 0.787204 0.685146
vt 0.795632 0.685146
vt 0.791418 0.685146
vt 0.787204 0.685146
vt 0.672468 0.687462
vt 0.637905 0.687462
vt 0.635590 0.685146
vt 0.672468 0.685146
vt 0.672468 0.756595
vt 0.707031 0.756595
vt 0.709346 0.758911
vt 0.672468 0.758911
vt 0.637905 0.722029
vt 0.637905 0.756595
vt 0.635590 0.758911
vt 0.635590 0.722029
vt 0.707031 0.722029
vt 0.707031 0.687462
vt 0.709346 0.685146
vt 0.709346 0.722029
vt 0.672468 0.691404
vt 0.641846 0.691404
vt 0.672468 0.752653
vt 0.703089 0.752653
vt 0.641846 0.722029
vt 0.641846 0.752653
vt 0.703089 0.722029
vt 0.703089 0.691404
vt 0.106469 0.800430
vt 0.071015 0.800430
vt 0.075727 0.795543
vt 0.106302 0.795543
vt 0.106469 0.729407
vt 0.141922 0.729407
vt 0.136877 0.734294
vt 0.106302 0.734294
vt 0.071015 0.764919
vt 0.071015 0.729407
vt 0.075727 0.734294
vt 0.075727 0.764919
vt 0.141922 0.764919
vt 0.141922 0.800430
vt 0.136877 0.795543
vt 0.136877 0.764919
vt 0.035508 0.764919
vt 0.000000 0.764919
vt 0.000000 0.729407
vt 0.035508 0.729407
vt 0.071015 0.764919
vt 0.071015 0.729407
vt 0.071015 0.800430
vt 0.035508 0.800430
vt 0.000000 0.800430
vt 0.364703 0.364703
vt 0.364703 0.364703
vn 0.0000 -1.0000 0.0000
vn -1.0000 0.0000 0.0000
vn 0.0000 0.0000 1.0000
vn 0.3031 0.9317 0.2000
vn 1.0000 0.0000 0.0000
vn 0.1908 0.9816 0.0000
vn 0.3031 -0.9317 -0.2000
vn 0.0000 0.9919 0.1273
vn 0.3031 -0.9317 0.2000
vn -0.1908 0.9816 0.0000
vn -0.3031 -0.9317 -0.2000
vn -0.3031 -0.9317 0.2000
vn -0.3093 -0.9510 0.0000
vn 0.0000 -0.9777 -0.2099
vn 0.8346 0.0000 -0.5508
vn -0.8346 0.0000 0.5508
vn 0.8346 0.0000 0.5508
vn -0.8346 0.0000 -0.5508
vn -0.3031 0.9317 -0.2000
vn 0.0000 0.8901 0.4557
vn 0.0000 -0.9777 0.2099
vn -0.3031 0.9317 0.2000
vn 0.3031 0.9317 -0.2000
vn 0.3093 -0.9510 0.0000
vn 0.0000 0.0000 -1.0000
vn -0.6129 0.7901 0.0000
vn 0.0000 1.0000 0.0000
vn 0.6129 0.7901 0.0000
vn 0.0000 0.9919 -0.1273
vn 0.0000 1.0000 0.0054
vn 0.0948 0.9955 0.0000
vn -0.0948 0.9955 0.0000
vn 0.0000 0.8962 -0.4436
vn 0.0000 0.8901 -0.4557
vn 0.6709 0.0000 -0.7415
vn -0.6709 0.0000 -0.7415
vn 0.0000 -0.9410 -0.3383
vn 0.0000 0.9410 -0.3383
usemtl Material
s off
f 15/1/1 3/2/1 10/3/1 18/4/1
f 20/5/2 16/6/2 12/7/2 13/8/2
f 9/9/3 7/10/3 17/11/3 19/12/3
f 6/13/4 22/14/4 35/15/4
f 5/16/5 2/17/5 6/18/5 8/19/5
f 21/20/6 22/21/6 6/22/6 2/23/6
f 3/2/7 4/24/7 5/25/7
f 22/26/8 24/27/8 34/28/8 35/29/8
f 8/30/9 36/31/9 10/3/9
f 24/32/10 23/33/10 12/34/10 16/35/10
f 13/36/11 14/37/11 15/1/11
f 18/4/12 33/38/12 20/39/12
f 15/1/13 18/4/13 20/39/13 13/36/13
f 3/2/14 15/1/14 14/37/14 4/24/14
f 2/40/15 5/41/15 4/42/15 1/43/15
f 33/44/16 34/45/16 16/46/16 20/47/16
f 35/48/17 36/49/17 8/50/17 6/51/17
f 11/52/18 14/53/18 13/54/18 12/55/18
f 11/56/19 12/57/19 23/58/19
f 28/59/20 32/60/20 24/61/20 22/62/20
f 18/4/21 10/3/21 36/31/21 33/38/21
f 16/63/22 34/64/22 24/65/22
f 1/66/23 21/67/23 2/68/23
f 10/3/24 3/2/24 5/25/24 8/30/24
f 14/53/25 11/52/25 1/43/25 4/42/25
f 32/69/26 30/70/26 23/71/26 24/72/26
f 25/73/27 29/74/27 31/75/27 27/76/27
f 26/77/28 28/78/28 22/79/28 21/80/28
f 23/81/29 21/82/29 1/83/29 11/84/29
f 27/76/30 31/75/30 32/85/30 28/86/30
f 25/73/31 27/76/31 28/86/31 26/87/31
f 31/75/32 29/74/32 30/88/32 32/85/32
f 29/89/33 25/90/33 26/91/33 30/92/33
f 30/92/34 26/91/34 21/93/34 23/94/34
f 19/12/3 17/11/3 34/45/3 33/44/3
f 7/10/3 9/9/3 36/49/3 35/48/3
f 17/11/3 7/10/3 35/48/3 34/45/3
f 9/9/3 19/12/3 33/44/3 36/49/3
f 45/95/25 41/96/25 39/97/25 43/98/25
f 44/99/25 40/100/25 41/96/25 45/95/25
f 38/101/25 44/99/25 45/95/25 42/102/25
f 42/102/25 45/95/25 43/98/25 37/103/25
f 74/104/3 47/105/3 83/106/3 82/107/3
f 49/108/3 72/109/3 80/110/3 84/111/3
f 53/112/3 76/113/3 81/114/3 86/115/3
f 72/109/3 51/116/3 85/117/3 80/110/3
f 41/118/2 40/119/2 61/120/2 54/121/2
f 37/103/27 43/98/27 58/122/27 59/123/27
f 39/124/2 41/118/2 54/121/2 55/125/2
f 44/126/1 38/127/1 57/128/1 60/129/1
f 42/130/5 37/131/5 59/132/5 56/133/5
f 40/134/1 44/126/1 60/129/1 61/135/1
f 38/136/5 42/130/5 56/133/5 57/137/5
f 43/98/27 39/97/27 55/138/27 58/122/27
f 46/139/3 63/140/3 55/141/3 54/142/3
f 48/143/3 65/144/3 57/145/3 56/146/3
f 50/147/3 67/148/3 59/149/3 58/150/3
f 52/151/3 69/152/3 61/153/3 60/154/3
f 69/152/3 46/139/3 54/142/3 61/153/3
f 67/148/3 48/143/3 56/146/3 59/149/3
f 63/140/3 50/147/3 58/150/3 55/141/3
f 65/144/3 52/151/3 60/154/3 57/145/3
f 62/155/3 71/156/3 63/140/3 46/139/3
f 64/157/3 73/158/3 65/144/3 48/143/3
f 66/159/3 75/160/3 67/148/3 50/147/3
f 68/161/3 77/162/3 69/152/3 52/151/3
f 77/162/3 62/155/3 46/139/3 69/152/3
f 75/160/3 64/157/3 48/143/3 67/148/3
f 71/156/3 66/159/3 50/147/3 63/140/3
f 73/158/3 68/161/3 52/151/3 65/144/3
f 70/163/35 47/164/35 71/165/35 62/166/35
f 72/167/36 49/168/36 73/169/36 64/170/36
f 74/171/37 51/172/37 75/173/37 66/174/37
f 76/175/38 53/176/38 77/177/38 68/178/38
f 53/176/35 70/163/35 62/166/35 77/177/35
f 51/172/36 72/167/36 64/170/36 75/173/36
f 47/164/37 74/171/37 66/174/37 71/165/37
f 49/168/38 76/175/38 68/178/38 73/169/38
f 78/179/3 82/180/3 83/181/3 79/182/3
f 81/183/3 78/179/3 79/182/3 86/184/3
f 84/185/3 80/186/3 78/179/3 81/183/3
f 80/186/3 85/187/3 82/180/3 78/179/3
f 70/188/3 53/112/3 86/115/3 79/189/3
f 51/116/3 74/104/3 82/107/3 85/117/3
f 47/105/3 70/188/3 79/189/3 83/106/3
f 76/113/3 49/108/3 84/111/3 81/114/3
