# Blender v2.93.18 OBJ File: 'tools.blend'
# www.blender.org
mtllib Bag.mtl
o bag_Cube.010
v -0.221402 -0.461434 0.284756
v -0.221402 0.284092 0.263197
v -0.390745 -0.463143 -0.284756
v -0.260238 0.591841 -0.263197
v 0.221402 -0.461434 0.284756
v 0.221402 0.284092 0.263197
v 0.390745 -0.463143 -0.284756
v 0.260238 0.591841 -0.263197
v -0.260238 0.617270 0.000000
v 0.000000 0.591841 -0.263197
v 0.260238 0.617270 0.000000
v 0.000000 0.284092 0.263197
v 0.000000 0.617270 0.000000
v -0.333003 0.617270 -0.453807
v -0.333003 0.591841 -0.499312
v 0.000000 0.591841 -0.499312
v 0.333003 0.591841 -0.499312
v 0.333003 0.617270 -0.453807
v 0.000000 0.617270 -0.453807
v -0.333003 -0.490924 -0.453807
v -0.333003 -0.490924 -0.499312
v 0.000000 -0.490924 -0.499312
v 0.333003 -0.490924 -0.499312
v 0.333003 -0.490924 -0.453807
v 0.000000 -0.490924 -0.453807
v 0.240820 0.450681 0.131598
v -0.141654 0.284092 0.263197
v -0.240820 0.450681 0.131598
v 0.141654 0.284092 0.263197
v 0.000000 0.450681 0.131598
v 0.166501 0.617270 0.000000
v -0.166501 0.617270 0.000000
v 0.154078 0.450681 0.131598
v -0.154078 0.450681 0.131598
v 0.308155 0.460107 0.143531
v 0.283308 0.293519 0.275129
v -0.141654 0.293519 0.275129
v -0.283308 0.293519 0.275129
v -0.308155 0.460107 0.143531
v -0.333003 0.626696 0.011932
v 0.166501 0.626696 0.011932
v 0.333003 0.626696 0.011932
v -0.166501 0.626696 0.011932
v 0.000000 0.626696 0.011932
v 0.141654 0.293519 0.275129
v 0.000000 0.460107 0.143531
v 0.154078 0.460107 0.143531
v -0.154078 0.460107 0.143531
v -0.256782 -0.411298 0.292885
v -0.256782 0.264426 0.273344
v 0.256782 0.264426 0.273344
v 0.256782 -0.411298 0.292885
v -0.128391 0.264426 0.273344
v 0.128391 0.264426 0.273344
v 0.000000 0.264426 0.273344
vt 0.756792 0.540651
vt 0.770933 0.677010
vt 0.730282 0.714462
vt 0.689692 0.751981
vt 0.598417 0.762870
vt 0.558145 0.571743
vt 0.031829 0.256829
vt 0.260179 0.294963
vt 0.260179 0.371004
vt 0.260179 0.447046
vt 0.031830 0.485179
vt 0.558144 0.428257
vt 0.598417 0.237130
vt 0.689692 0.248019
vt 0.730282 0.285538
vt 0.770933 0.322990
vt 0.756792 0.459349
vt 0.489505 0.428824
vt 0.461815 0.428824
vt 0.461815 0.456514
vt 0.489505 0.456514
vt 0.489505 0.457489
vt 0.461815 0.457489
vt 0.461815 0.485179
vt 0.489505 0.485179
vt 0.260179 0.657173
vt 0.260179 0.629483
vt 0.203824 0.629483
vt 0.203824 0.657173
vt 0.432173 0.256829
vt 0.375818 0.256829
vt 0.375818 0.485179
vt 0.432173 0.485179
vt 0.260179 0.599842
vt 0.260179 0.543486
vt 0.146492 0.543486
vt 0.146492 0.599842
vt 0.770933 0.298272
vt 0.770934 0.237130
vt 0.969736 0.237130
vt 0.969736 0.298272
vt 0.374842 0.256829
vt 0.261155 0.256829
vt 0.261155 0.485179
vt 0.374842 0.485179
vt 0.770933 0.468336
vt 0.770933 0.451125
vt 0.770934 0.420555
vt 0.929222 0.420555
vt 0.929222 0.481696
vt 0.374842 0.542511
vt 0.374842 0.486155
vt 0.146492 0.486155
vt 0.146492 0.542511
vt 0.317511 0.543486
vt 0.261155 0.543486
vt 0.261155 0.657173
vt 0.317511 0.657173
vt 0.770934 0.389984
vt 0.770934 0.372773
vt 0.929222 0.359413
vt 0.146492 0.628508
vt 0.260179 0.628508
vt 0.260179 0.600818
vt 0.146492 0.600818
vt 0.403508 0.599842
vt 0.403508 0.486155
vt 0.375818 0.486155
vt 0.375818 0.599842
vt 0.489505 0.685839
vt 0.489505 0.658149
vt 0.261155 0.658149
vt 0.261155 0.685839
vt 0.145517 0.486155
vt 0.031829 0.486155
vt 0.031829 0.714505
vt 0.145517 0.714505
vt 0.489505 0.714505
vt 0.489505 0.686815
vt 0.261155 0.686815
vt 0.261155 0.714505
vt 0.770933 0.359413
vt 0.969736 0.359413
vt 0.432173 0.542511
vt 0.432173 0.486155
vt 0.404483 0.486155
vt 0.404483 0.542511
vt 0.489505 0.514821
vt 0.461815 0.514821
vt 0.461815 0.542511
vt 0.489505 0.542511
vt 0.489505 0.543486
vt 0.461815 0.543486
vt 0.461815 0.571176
vt 0.489505 0.571176
vt 0.260179 0.685839
vt 0.260179 0.658149
vt 0.203824 0.658149
vt 0.203824 0.685839
vt 0.489505 0.600818
vt 0.461815 0.600818
vt 0.461815 0.628508
vt 0.489505 0.628508
vt 0.432173 0.599842
vt 0.432173 0.543486
vt 0.404483 0.543486
vt 0.404483 0.599842
vt 0.489505 0.513845
vt 0.489505 0.486155
vt 0.433149 0.486155
vt 0.433149 0.513845
vt 0.460839 0.514821
vt 0.433149 0.514821
vt 0.433149 0.571176
vt 0.460839 0.571176
vt 0.374842 0.543486
vt 0.318486 0.543486
vt 0.318486 0.599842
vt 0.374842 0.599842
vt 0.374842 0.600818
vt 0.318486 0.600818
vt 0.318486 0.657173
vt 0.374842 0.657173
vt 0.432173 0.600818
vt 0.375818 0.600818
vt 0.375818 0.657173
vt 0.432173 0.657173
vt 0.202848 0.629483
vt 0.146492 0.629483
vt 0.146492 0.685839
vt 0.202848 0.685839
vt 0.433149 0.599842
vt 0.489505 0.599842
vt 0.489505 0.572152
vt 0.433149 0.572152
vt 0.460839 0.657173
vt 0.460839 0.600818
vt 0.433149 0.600818
vt 0.433149 0.657173
vt 0.461815 0.284520
vt 0.518171 0.284520
vt 0.518171 0.256829
vt 0.461815 0.256829
vt 0.489505 0.629483
vt 0.461815 0.629483
vt 0.461815 0.657173
vt 0.489505 0.657173
vt 0.518171 0.285495
vt 0.490480 0.285495
vt 0.490480 0.313185
vt 0.518171 0.313185
vt 0.489505 0.341851
vt 0.489505 0.285495
vt 0.461815 0.285495
vt 0.461815 0.341851
vt 0.461815 0.370517
vt 0.518171 0.370517
vt 0.518171 0.342827
vt 0.461815 0.342827
vt 0.489505 0.427848
vt 0.489505 0.371492
vt 0.461815 0.371492
vt 0.461815 0.427848
vt 0.895188 0.575990
vt 0.770933 0.575990
vt 0.770933 0.552417
vt 0.770934 0.528843
vt 0.770933 0.505270
vt 0.770933 0.481696
vt 0.895188 0.481696
vt 0.518171 0.314161
vt 0.490480 0.314161
vt 0.490480 0.341851
vt 0.518171 0.341851
vt 0.031829 0.743170
vt 0.260179 0.743170
vt 0.260179 0.715480
vt 0.031829 0.715480
vt 0.518171 0.371492
vt 0.490480 0.371492
vt 0.490480 0.399182
vt 0.518171 0.399182
vt 0.518171 0.400158
vt 0.490480 0.400158
vt 0.490480 0.427848
vt 0.518171 0.427848
vt 0.460839 0.485179
vt 0.460839 0.256829
vt 0.433149 0.256829
vt 0.433149 0.485179
vt 0.146492 0.714505
vt 0.260179 0.714505
vt 0.260179 0.686815
vt 0.146492 0.686815
vn -0.9804 0.0556 0.1890
vn 0.0000 0.0204 -0.9998
vn 0.9804 0.0556 0.1890
vn 0.0000 0.4585 0.8887
vn 0.0000 -1.0000 0.0030
vn 0.0000 -0.7847 0.6199
vn 0.0000 0.6199 0.7847
vn 0.6104 -0.7815 0.1288
vn 0.0000 -1.0000 -0.0000
vn 0.0000 0.0000 1.0000
vn 0.0000 0.0000 -1.0000
vn 0.0000 1.0000 0.0000
vn -0.6104 -0.7815 0.1288
vn 1.0000 0.0000 0.0000
vn -1.0000 0.0000 0.0000
vn 0.9983 0.0458 -0.0362
vn 0.0000 0.7847 -0.6199
vn -0.2290 -0.6220 -0.7488
vn -0.2121 -0.6230 -0.7529
vn -0.9983 0.0458 -0.0362
vn 0.2121 -0.6230 -0.7529
vn 0.2290 -0.6220 -0.7488
vn 0.0000 0.0289 0.9996
vn 0.2612 -0.0279 -0.9649
vn -0.2612 -0.0279 -0.9649
vn 0.0000 -0.1601 0.9871
usemtl Material.001
s off
f 1/1/1 2/2/1 28/3/1 9/4/1 4/5/1 3/6/1
f 3/7/2 4/8/2 10/9/2 8/10/2 7/11/2
f 7/12/3 8/13/3 11/14/3 26/15/3 6/16/3 5/17/3
f 29/18/4 12/19/4 55/20/4 54/21/4
f 3/6/5 7/12/5 5/17/5 1/1/5
f 2/22/6 27/23/6 37/24/6 38/25/6
f 33/26/7 30/27/7 12/28/7 29/29/7
f 11/30/8 8/31/8 17/32/8 18/33/8
f 8/34/9 10/35/9 16/36/9 17/37/9
f 16/38/10 15/39/10 21/40/10 22/41/10
f 14/42/11 19/43/11 25/44/11 20/45/11
f 9/46/12 32/47/12 13/48/12 19/49/12 14/50/12
f 4/51/13 9/52/13 14/53/13 15/54/13
f 10/55/9 4/56/9 15/57/9 16/58/9
f 13/48/12 31/59/12 11/60/12 18/61/12 19/49/12
f 23/62/12 22/63/12 25/64/12 24/65/12
f 22/66/12 21/67/12 20/68/12 25/69/12
f 15/70/14 14/71/14 20/72/14 21/73/14
f 19/74/11 18/75/11 24/76/11 25/77/11
f 18/78/15 17/79/15 23/80/15 24/81/15
f 17/82/10 16/38/10 22/41/10 23/83/10
f 27/84/16 34/85/16 48/86/16 37/87/16
f 11/88/17 31/89/17 41/90/17 42/91/17
f 29/92/6 6/93/6 36/94/6 45/95/6
f 30/96/7 34/97/7 27/98/7 12/99/7
f 30/100/6 33/101/6 47/102/6 46/103/6
f 28/104/18 2/105/18 38/106/18 39/107/18
f 48/108/7 39/109/7 38/110/7 37/111/7
f 35/112/7 47/113/7 45/114/7 36/115/7
f 42/116/7 41/117/7 47/118/7 35/119/7
f 41/120/7 44/121/7 46/122/7 47/123/7
f 44/124/7 43/125/7 48/126/7 46/127/7
f 43/128/7 40/129/7 39/130/7 48/131/7
f 13/132/17 32/133/17 43/134/17 44/135/17
f 9/136/19 28/137/19 39/138/19 40/139/19
f 31/140/17 13/141/17 44/142/17 41/143/17
f 34/144/6 30/145/6 46/146/6 48/147/6
f 32/148/17 9/149/17 40/150/17 43/151/17
f 33/152/20 29/153/20 45/154/20 47/155/20
f 26/156/21 11/157/21 42/158/21 35/159/21
f 6/160/22 26/161/22 35/162/22 36/163/22
f 52/164/23 51/165/23 54/166/23 55/167/23 53/168/23 50/169/23 49/170/23
f 27/171/4 2/172/4 50/173/4 53/174/4
f 5/175/24 6/176/24 51/177/24 52/178/24
f 6/179/4 29/180/4 54/181/4 51/182/4
f 12/183/4 27/184/4 53/185/4 55/186/4
f 2/187/25 1/188/25 49/189/25 50/190/25
f 1/191/26 5/192/26 52/193/26 49/194/26
