# Blender 4.4.0
# www.blender.org
mtllib body.mtl
o body_Player_Cube.003
v 0.210000 -0.512984 0.393750
v -0.315000 -0.512984 0.393750
v -0.315000 -0.512984 -0.393750
v 0.210000 -0.512984 -0.393750
v -0.315000 -0.250484 0.393750
v 0.210000 -0.250484 0.393750
v 0.210000 -0.250484 -0.393750
v -0.315000 -0.250484 -0.393750
v 0.210000 -0.250484 -0.393750
v 0.210000 -0.512984 -0.393750
v -0.315000 -0.512984 -0.393750
v -0.315000 -0.250484 -0.393750
v -0.315000 -0.250484 0.393750
v -0.315000 -0.512984 0.393750
v 0.210000 -0.512984 0.393750
v 0.210000 -0.250484 0.393750
vn -0.0000 -1.0000 -0.0000
vn -0.0000 1.0000 -0.0000
vn 0.7071 -0.0000 -0.7071
vn -0.7071 -0.0000 -0.7071
vn -0.7071 -0.0000 0.7071
vn 0.7071 -0.0000 0.7071
vt 0.625000 0.375000
vt 0.500000 0.375000
vt 0.500000 0.000000
vt 0.625000 0.000000
vt 0.437500 0.375000
vt 0.312500 0.375000
vt 0.312500 0.000000
vt 0.437500 0.000000
vt 0.562500 0.375000
vt 0.562500 0.500000
vt 0.437500 0.500000
vt 0.312500 0.500000
s 1
usemtl Character
f 1/1/1 2/2/1 3/3/1 4/4/1
f 5/5/2 6/6/2 7/7/2 8/8/2
f 9/9/3 10/10/3 11/11/4 12/5/4
f 13/5/5 14/11/5 15/12/6 16/6/6
f 9/9/3 16/6/6 15/12/6 10/10/3
f 13/5/5 12/5/4 11/11/4 14/11/5
