# Blender 4.4.0
# www.blender.org
mtllib hand.mtl
o hand_1_Player_Cube.001
v -0.131250 -0.513773 0.393750
v 0.131250 -0.513773 0.393750
v 0.131250 -0.251273 0.393750
v -0.131250 -0.251273 0.393750
v 0.131250 -0.513773 -0.393750
v -0.131250 -0.513773 -0.393750
v -0.131250 -0.251273 -0.393750
v 0.131250 -0.251273 -0.393750
v -0.131250 -0.251273 -0.393750
v -0.131250 -0.251273 0.393750
v -0.131250 -0.513773 0.393750
v -0.131250 -0.513773 -0.393750
v 0.131250 -0.251273 -0.393750
v 0.131250 -0.251273 0.393750
v 0.131250 -0.513773 0.393750
v 0.131250 -0.513773 -0.393750
v 0.131250 -0.513773 -0.393750
v 0.131250 -0.513773 0.393750
v -0.131250 -0.513773 0.393750
v -0.131250 -0.513773 -0.393750
v -0.131250 -0.251273 -0.393750
v -0.131250 -0.251273 0.393750
v 0.131250 -0.251273 0.393750
v 0.131250 -0.251273 -0.393750
vn -0.0000 -0.0000 1.0000
vn -0.0000 -0.0000 -1.0000
vn 1.0000 -0.0000 -0.0000
vn -0.0000 -1.0000 -0.0000
vn -0.0000 1.0000 -0.0000
vt 0.750000 0.375000
vt 0.812500 0.375000
vt 0.812500 0.500000
vt 0.750000 0.500000
vt 0.687500 0.375000
vt 0.687500 0.500000
vt 0.250000 0.375000
vt 0.250000 0.000000
vt 0.312500 0.000000
vt 0.312500 0.375000
vt 0.625000 0.375000
vt 0.625000 0.000000
vt 0.687500 0.000000
vt 0.750000 0.000000
vt 0.812500 0.000000
vt 0.875000 0.000000
vt 0.875000 0.375000
s 1
usemtl Character.002
f 1/1/1 2/2/1 3/3/1 4/4/1
f 5/5/2 6/1/2 7/4/2 8/6/2
f 9/7/3 10/8/3 11/9/3 12/10/3
f 13/11/3 14/12/3 15/13/3 16/5/3
f 17/5/4 18/13/4 19/14/4 20/1/4
f 21/2/5 22/15/5 23/16/5 24/17/5
