# Blender 4.4.0
# www.blender.org
mtllib head.mtl
o head_Player_Cube.006
v -0.262500 -0.509647 0.262500
v 0.262500 -0.509647 0.262500
v 0.262500 0.015353 0.262500
v -0.262500 0.015353 0.262500
v 0.262500 -0.509647 0.262500
v 0.262500 -0.509647 -0.262500
v 0.262500 0.015353 -0.262500
v 0.262500 0.015353 0.262500
v 0.262500 -0.509647 -0.262500
v -0.262500 -0.509647 -0.262500
v -0.262500 0.015353 -0.262500
v 0.262500 0.015353 -0.262500
v -0.262500 0.015353 -0.262500
v -0.262500 0.015353 0.262500
v 0.262500 0.015353 0.262500
v 0.262500 0.015353 -0.262500
v 0.262500 -0.509647 -0.262500
v 0.262500 -0.509647 0.262500
v -0.262500 -0.509647 0.262500
v -0.262500 -0.509647 -0.262500
v -0.262500 -0.509647 0.262500
v -0.262500 0.015353 0.262500
v -0.262500 0.015353 -0.262500
v -0.262500 -0.509647 -0.262500
vn -0.0000 -0.0000 1.0000
vn 1.0000 -0.0000 -0.0000
vn -0.0000 -0.0000 -1.0000
vn -0.0000 1.0000 -0.0000
vn -0.0000 -1.0000 -0.0000
vn -1.0000 -0.0000 -0.0000
vt 0.500000 0.750000
vt 0.375000 0.750000
vt 0.375000 0.500000
vt 0.500000 0.500000
vt 0.250000 0.750000
vt 0.250000 0.500000
vt 0.125000 0.750000
vt 0.125000 0.500000
vt 0.375000 1.000000
vt 0.250000 1.000000
vt 0.125000 1.000000
vt 0.000000 0.750000
vt 0.000000 0.500000
s 1
usemtl Character.003
f 1/1/1 2/2/1 3/3/1 4/4/1
f 5/2/2 6/5/2 7/6/2 8/3/2
f 9/5/3 10/7/3 11/8/3 12/6/3
f 13/2/4 14/9/4 15/10/4 16/5/4
f 17/5/5 18/10/5 19/11/5 20/7/5
f 21/12/6 22/13/6 23/8/6 24/7/6
