# Blender v2.93.18 OBJ File: 'tools.blend'
# www.blender.org
mtllib knocker.mtl
o knocker_Cube.008
v 0.147058 0.211679 0.000000
v 0.147058 0.282238 -0.040945
v 0.147058 -0.211679 -0.081889
v 0.147058 -0.211679 -0.040945
v 0.147058 -0.211679 0.000000
v 0.147058 -0.282238 0.040945
v 0.147058 -0.211679 0.040945
v 0.147058 0.211679 -0.081889
v 0.147058 0.211679 -0.040945
v -0.437108 -0.313930 -0.040945
v -0.437108 0.313930 -0.040945
v -0.437108 -0.313930 0.040945
v -0.437108 0.313930 0.040945
v -0.437108 -0.418573 -0.040945
v -0.437108 0.418573 0.040945
v -0.437108 -0.418573 0.040945
v -0.437108 -0.313930 0.000000
v -0.437108 -0.209287 0.040945
v -0.437108 0.418573 -0.040945
v -0.437108 0.313930 0.000000
v -0.437108 0.313930 -0.081889
v -0.437108 -0.209287 -0.040945
v -0.437108 0.209287 -0.040945
v -0.437108 -0.313930 0.081889
v -0.437108 0.209287 0.040945
v -0.437108 0.313930 0.081889
v 0.104084 0.000000 -0.043676
v 0.645277 -0.058122 0.005463
v 0.645277 -0.058122 0.000000
v 0.645277 0.000000 0.005463
v 0.645277 0.058122 0.000000
v 0.645277 0.058122 0.005463
v 0.645277 0.058122 -0.005463
v 0.645277 -0.058122 -0.005463
v 0.645277 0.000000 -0.005463
v -0.437108 -0.087751 -0.081889
v -0.437108 0.087751 -0.081889
v -0.437108 0.087751 0.081889
v -0.437108 -0.087751 0.081889
v -0.478854 0.209287 0.078437
v -0.437108 0.418573 -0.081889
v -0.478854 -0.209287 -0.078437
v -0.478854 -0.209287 0.078437
v -0.437108 -0.418573 0.081889
v -0.437108 0.209287 0.000000
v -0.437108 0.000000 -0.081889
v -0.437108 0.000000 0.081889
v -0.478854 0.209287 -0.078437
v -0.437108 -0.418573 -0.081889
v -0.437108 0.418573 0.081889
v -0.437108 -0.209287 0.000000
v -0.437108 -0.313930 -0.081889
v -0.437108 0.418573 0.000000
v -0.478854 0.000000 -0.078437
v -0.478854 0.000000 0.078437
v -0.437108 -0.418573 0.000000
v -0.478854 0.418573 0.078437
v -0.478854 -0.418573 0.078437
v -0.478854 0.418573 -0.078437
v -0.478854 -0.418573 -0.078437
v -0.612048 0.418573 0.036175
v -0.612048 -0.418573 0.036175
v -0.612048 0.418573 -0.036175
v -0.612048 -0.418573 -0.036175
v 0.147058 0.211679 0.040945
v 0.147058 0.282238 0.081889
v 0.147058 0.282238 0.040945
v 0.147058 -0.211679 0.081889
v 0.147058 0.211679 0.081889
v 0.147058 -0.282238 -0.081889
v 0.147058 -0.282238 -0.040945
v 0.147058 0.282238 -0.081889
v 0.147058 -0.282238 0.000000
v 0.147058 0.282238 0.000000
v 0.147058 -0.282238 0.081889
v 0.147058 -0.189079 0.000000
v 0.147058 -0.252106 0.000000
v 0.147058 0.252106 -0.040945
v 0.147058 0.252106 -0.081889
v 0.147058 -0.189079 -0.081889
v 0.147058 -0.252106 -0.081889
v 0.147058 0.252106 0.000000
v 0.147058 0.189079 0.000000
v 0.147058 -0.252106 0.040945
v 0.147058 0.252106 0.040945
v 0.147058 0.189079 0.040945
v 0.147058 0.189079 -0.081889
v 0.147058 0.189079 0.081889
v 0.147058 -0.252106 -0.040945
v 0.147058 -0.189079 0.081889
v 0.147058 -0.252106 0.081889
v 0.147058 0.252106 0.081889
v 0.147058 -0.189079 -0.040945
v 0.147058 -0.189079 0.040945
v 0.147058 0.189079 -0.040945
v 0.366295 -0.127925 0.000000
v 0.366295 -0.170566 0.000000
v 0.366295 0.170566 -0.040945
v 0.366295 0.170566 -0.081889
v 0.366295 -0.127925 -0.081889
v 0.366295 -0.170566 -0.081889
v 0.366295 0.170566 0.000000
v 0.366295 0.127925 0.000000
v 0.366295 -0.170566 0.040945
v 0.366295 0.170566 0.040945
v 0.366295 0.127925 0.040945
v 0.366295 0.127925 -0.081889
v 0.366295 0.127925 0.081889
v 0.366295 -0.170566 -0.040945
v 0.366295 -0.127925 0.081889
v 0.366295 -0.170566 0.081889
v 0.366295 0.170566 0.081889
v 0.366295 -0.127925 -0.040945
v 0.366295 -0.127925 0.040945
v 0.366295 0.127925 -0.040945
v 0.366295 -0.118960 0.000000
v 0.366295 -0.158613 0.000000
v 0.366295 0.158613 -0.040945
v 0.366295 0.158613 -0.081889
v 0.366295 -0.118960 -0.081889
v 0.366295 -0.158613 -0.081889
v 0.366295 0.158613 0.000000
v 0.366295 0.118960 0.000000
v 0.366295 -0.158613 0.040945
v 0.366295 0.158613 0.040945
v 0.366295 0.118960 0.040945
v 0.366295 0.118960 -0.081889
v 0.366295 0.118960 0.081889
v 0.366295 -0.158613 -0.040945
v 0.366295 -0.118960 0.081889
v 0.366295 -0.158613 0.081889
v 0.366295 0.158613 0.081889
v 0.366295 -0.118960 -0.040945
v 0.366295 -0.118960 0.040945
v 0.366295 0.118960 -0.040945
v 0.583202 -0.065405 0.000000
v 0.583202 -0.087206 0.000000
v 0.583202 0.087206 -0.040945
v 0.583202 0.087206 -0.081889
v 0.583202 -0.065405 -0.081889
v 0.583202 -0.087206 -0.081889
v 0.583202 0.087206 0.000000
v 0.583202 0.065405 0.000000
v 0.583202 -0.087206 0.040945
v 0.583202 0.087206 0.040945
v 0.583202 0.065405 0.040945
v 0.583202 0.065405 -0.081889
v 0.583202 0.065405 0.081889
v 0.583202 -0.087206 -0.040945
v 0.583202 -0.065405 0.081889
v 0.583202 -0.087206 0.081889
v 0.583202 0.087206 0.081889
v 0.583202 -0.065405 -0.040945
v 0.583202 -0.065405 0.040945
v 0.583202 0.065405 -0.040945
v 0.883533 0.000000 0.000000
v 0.883533 0.000000 -0.005463
v 0.883533 0.011126 0.000000
v 0.883533 0.000000 0.005463
v 0.883533 -0.011126 0.000000
v 0.883533 -0.011126 0.005463
v 0.883533 0.011126 -0.005463
v 0.883533 0.011126 0.005463
v 0.883533 -0.011126 -0.005463
v 0.104084 0.056060 -0.043676
v 0.104084 0.056060 0.043676
v 0.645277 -0.029061 0.005463
v -0.437108 -0.043875 -0.081889
v -0.437108 0.043875 -0.081889
v 0.645277 0.029061 0.005463
v 0.645277 0.029061 -0.005463
v 0.645277 -0.029061 -0.005463
v -0.437108 0.043875 0.081889
v -0.437108 -0.043875 0.081889
v 0.104084 -0.056060 0.043676
v 0.104084 0.000000 0.043676
v 0.104084 -0.056060 -0.043676
v 0.104084 -0.028030 0.043676
v 0.104084 0.028030 -0.043676
v 0.104084 -0.028030 -0.043676
v 0.104084 0.028030 0.043676
vt 0.200396 0.402202
vt 0.342548 0.402202
vt 0.342548 0.354213
vt 0.200396 0.354213
vt 0.343814 0.834103
vt 0.200396 0.834103
vt 0.200396 0.882092
vt 0.343814 0.882092
vt 0.154326 0.851484
vt 0.012308 0.821575
vt 0.012308 0.842214
vt 0.154326 0.882092
vt 0.243129 0.690136
vt 0.386547 0.690136
vt 0.386547 0.642147
vt 0.243129 0.642147
vt 0.200396 0.498180
vt 0.342548 0.498180
vt 0.342548 0.450191
vt 0.200396 0.450191
vt 0.449256 0.540571
vt 0.449256 0.533960
vt 0.417902 0.533960
vt 0.417902 0.540571
vt 0.342548 0.309017
vt 0.342548 0.317831
vt 0.373903 0.317831
vt 0.373903 0.309017
vt 0.449256 0.567820
vt 0.449256 0.561210
vt 0.417902 0.561210
vt 0.417902 0.567820
vt 0.200396 0.221425
vt 0.200396 0.306224
vt 0.360385 0.306224
vt 0.360385 0.221425
vt 0.231751 0.139957
vt 0.231751 0.131143
vt 0.200396 0.131143
vt 0.200396 0.139957
vt 0.386547 0.561210
vt 0.386547 0.567820
vt 0.386547 0.533960
vt 0.386547 0.540571
vt 0.511965 0.561210
vt 0.511965 0.552396
vt 0.511965 0.533960
vt 0.511965 0.540571
vt 0.386547 0.594158
vt 0.243129 0.594158
vt 0.449256 0.654617
vt 0.417902 0.654617
vt 0.417902 0.685225
vt 0.449256 0.685225
vt 0.342548 0.306224
vt 0.200396 0.306224
vt 0.417902 0.624009
vt 0.386547 0.588459
vt 0.386547 0.654617
vt 0.417902 0.654617
vt 0.449256 0.624009
vt 0.449256 0.654617
vt 0.511965 0.654617
vt 0.480611 0.654617
vt 0.480611 0.685225
vt 0.511965 0.720775
vt 0.405257 0.317831
vt 0.405257 0.309017
vt 0.154326 0.606616
vt 0.012308 0.576707
vt 0.012308 0.597346
vt 0.154326 0.637225
vt 0.154326 0.637225
vt 0.012308 0.677103
vt 0.012308 0.697742
vt 0.154326 0.667833
vt 0.511965 0.588459
vt 0.480611 0.624009
vt 0.480611 0.654617
vt 0.511965 0.654617
vt 0.343814 0.738125
vt 0.200396 0.738125
vt 0.200396 0.786114
vt 0.343814 0.786114
vt 0.707728 0.292030
vt 0.783285 0.472878
vt 0.859729 0.652127
vt 0.865665 0.651133
vt 0.799915 0.271372
vt 0.755418 0.278824
vt 0.902263 0.541569
vt 0.901977 0.345361
vt 0.893924 0.345361
vt 0.894496 0.541569
vt 0.154460 0.248390
vt 0.012308 0.248390
vt 0.012308 0.296379
vt 0.154460 0.296379
vt 0.950895 0.541569
vt 0.950609 0.345361
vt 0.942556 0.345361
vt 0.943128 0.541569
vt 0.966429 0.541569
vt 0.966715 0.345361
vt 0.958662 0.345361
vt 0.958662 0.541569
vt 0.164743 0.637225
vt 0.164743 0.576008
vt 0.154326 0.540458
vt 0.680480 0.653697
vt 0.695793 0.737731
vt 0.701760 0.736643
vt 0.686447 0.652610
vt 0.974768 0.345361
vt 0.961745 0.262223
vt 0.958662 0.262223
vt 0.879778 0.735376
vt 0.885714 0.734382
vt 0.871602 0.650139
vt 0.164743 0.820875
vt 0.154326 0.785326
vt 0.164743 0.882092
vt 0.707728 0.735556
vt 0.692414 0.651523
vt 0.617351 0.273453
vt 0.700199 0.457577
vt 0.707728 0.262223
vt 0.662077 0.265302
vt 0.386547 0.654617
vt 0.386547 0.720775
vt 0.878214 0.456980
vt 0.885714 0.262223
vt 0.844412 0.263920
vt 0.917797 0.541569
vt 0.918083 0.345361
vt 0.910030 0.345361
vt 0.910030 0.541569
vt 0.154326 0.514791
vt 0.164743 0.514791
vt 0.164743 0.453574
vt 0.154326 0.489124
vt 0.154326 0.501957
vt 0.154326 0.527625
vt 0.164743 0.698442
vt 0.154326 0.733991
vt 0.154326 0.746825
vt 0.154326 0.759659
vt 0.164743 0.759659
vt 0.164743 0.637225
vt 0.154326 0.772492
vt 0.164743 0.392357
vt 0.154326 0.392357
vt 0.154326 0.422966
vt 0.154460 0.344368
vt 0.012308 0.344368
vt 0.012308 0.392357
vt 0.154460 0.392357
vt 0.528823 0.294825
vt 0.604780 0.474966
vt 0.572625 0.281603
vt 0.200396 0.637225
vt 0.200396 0.882092
vt 0.354012 0.694182
vt 0.343814 0.690136
vt 0.354012 0.878046
vt 0.386547 0.828514
vt 0.386547 0.743715
vt 0.200396 0.551759
vt 0.200396 0.636557
vt 0.232931 0.686090
vt 0.243129 0.546169
vt 0.243129 0.498180
vt 0.232931 0.502226
vt 0.200396 0.637225
vt 0.200396 0.392357
vt 0.012308 0.432236
vt 0.012308 0.452874
vt 0.200396 0.690136
vt 0.154460 0.200401
vt 0.012308 0.200401
vt 0.386547 0.546169
vt 0.386547 0.498180
vt 0.373903 0.498180
vt 0.373903 0.415553
vt 0.342548 0.415553
vt 0.342548 0.498180
vt 0.436612 0.498180
vt 0.436612 0.415553
vt 0.405257 0.415553
vt 0.405257 0.498180
vt 0.294460 0.139957
vt 0.294460 0.221425
vt 0.325814 0.221425
vt 0.325814 0.139957
vt 0.137726 0.200401
vt 0.137726 0.118933
vt 0.106372 0.118933
vt 0.106372 0.200401
vt 0.436612 0.332926
vt 0.436612 0.415553
vt 0.467966 0.415553
vt 0.467966 0.332926
vt 0.386547 0.533961
vt 0.442078 0.533961
vt 0.444365 0.521989
vt 0.389927 0.516266
vt 0.231751 0.139957
vt 0.231751 0.221425
vt 0.263105 0.221425
vt 0.263105 0.139957
vt 0.200396 0.139957
vt 0.200396 0.221425
vt 0.200396 0.637225
vt 0.200396 0.637225
vt 0.200396 0.637225
vt 0.200396 0.637225
vt 0.511965 0.588459
vt 0.511965 0.579645
vt 0.511965 0.561210
vt 0.511965 0.567820
vt 0.480611 0.567820
vt 0.480611 0.561210
vt 0.200396 0.637225
vt 0.200396 0.637225
vt 0.200396 0.637225
vt 0.200396 0.637225
vt 0.480611 0.533960
vt 0.480611 0.540571
vt 0.263105 0.139957
vt 0.263105 0.131143
vt 0.436612 0.309017
vt 0.436612 0.317831
vt 0.467966 0.317831
vt 0.467966 0.309017
vt 0.294460 0.139957
vt 0.294460 0.131143
vt 0.325814 0.139957
vt 0.325814 0.131143
vt 0.467966 0.320453
vt 0.467966 0.317831
vt 0.436612 0.317831
vt 0.436612 0.320453
vt 0.391739 0.140254
vt 0.391739 0.142876
vt 0.423094 0.142876
vt 0.423094 0.140254
vt 0.405257 0.320453
vt 0.405257 0.317831
vt 0.373903 0.317831
vt 0.373903 0.320453
vt 0.263105 0.121270
vt 0.263105 0.124766
vt 0.294460 0.124766
vt 0.294460 0.121270
vt 0.454448 0.142876
vt 0.454448 0.140254
vt 0.485803 0.142876
vt 0.485803 0.140254
vt 0.423094 0.121404
vt 0.423094 0.117908
vt 0.391739 0.117908
vt 0.391739 0.121404
vt 0.342548 0.320453
vt 0.342548 0.317831
vt 0.342548 0.329429
vt 0.342548 0.332926
vt 0.467966 0.498180
vt 0.467966 0.415553
vt 0.342548 0.332926
vt 0.342548 0.415553
vt 0.373903 0.415553
vt 0.373903 0.332926
vt 0.405257 0.415553
vt 0.405257 0.332926
vt 0.389927 0.516266
vt 0.444365 0.510543
vt 0.442078 0.498571
vt 0.386547 0.498571
vt 0.137726 0.200401
vt 0.193257 0.200401
vt 0.195544 0.188429
vt 0.141106 0.182706
vt 0.141106 0.182706
vt 0.195544 0.176983
vt 0.193257 0.165012
vt 0.137726 0.165012
vt 0.043663 0.200401
vt 0.043663 0.118933
vt 0.012308 0.118933
vt 0.012308 0.200401
vt 0.075017 0.200401
vt 0.075017 0.118933
vt 0.446263 0.533961
vt 0.499878 0.528905
vt 0.498835 0.522732
vt 0.444365 0.522732
vt 0.391739 0.224550
vt 0.391739 0.306224
vt 0.423094 0.306224
vt 0.423094 0.224550
vt 0.360385 0.224550
vt 0.360385 0.306224
vt 0.485803 0.224550
vt 0.485803 0.142876
vt 0.454448 0.142876
vt 0.454448 0.224550
vt 0.391739 0.224550
vt 0.391739 0.142876
vt 0.360385 0.142876
vt 0.360385 0.224550
vt 0.423094 0.142876
vt 0.423094 0.224550
vt 0.480611 0.801434
vt 0.480611 0.882092
vt 0.511965 0.882092
vt 0.511965 0.801434
vt 0.511965 0.801434
vt 0.511965 0.720775
vt 0.480611 0.720775
vt 0.480611 0.801434
vt 0.467966 0.332926
vt 0.467966 0.329429
vt 0.325814 0.124766
vt 0.325814 0.121270
vt 0.360385 0.140254
vt 0.360385 0.142876
vt 0.454448 0.121404
vt 0.454448 0.117908
vt 0.360385 0.117908
vt 0.360385 0.121404
vt 0.485803 0.121404
vt 0.485803 0.117908
vt 0.200396 0.121270
vt 0.200396 0.124766
vt 0.231751 0.124766
vt 0.231751 0.121270
vt 0.485803 0.131277
vt 0.485803 0.127781
vt 0.360385 0.127781
vt 0.360385 0.131277
vt 0.294460 0.124766
vt 0.263105 0.124766
vt 0.263105 0.131143
vt 0.294460 0.131143
vt 0.391739 0.121404
vt 0.360385 0.121404
vt 0.360385 0.127781
vt 0.391739 0.127781
vt 0.231751 0.124766
vt 0.231751 0.131143
vt 0.423094 0.121404
vt 0.423094 0.127781
vt 0.454448 0.121404
vt 0.454448 0.127781
vt 0.485803 0.121404
vt 0.485803 0.127781
vt 0.325814 0.124766
vt 0.325814 0.131143
vt 0.200396 0.124766
vt 0.200396 0.131143
vt 0.444365 0.522732
vt 0.498835 0.522732
vt 0.499878 0.516558
vt 0.446263 0.511503
vt 0.139625 0.165012
vt 0.193240 0.159957
vt 0.192196 0.153783
vt 0.137726 0.153783
vt 0.417902 0.801434
vt 0.417902 0.720775
vt 0.386547 0.720775
vt 0.386547 0.801434
vt 0.449256 0.801434
vt 0.449256 0.720775
vt 0.454448 0.306224
vt 0.454448 0.224550
vt 0.449256 0.801434
vt 0.449256 0.882092
vt 0.386547 0.801434
vt 0.386547 0.882092
vt 0.417902 0.882092
vt 0.417902 0.801434
vt 0.137726 0.153783
vt 0.192196 0.153783
vt 0.193240 0.147609
vt 0.139625 0.142554
vt 0.485803 0.306224
vt 0.485803 0.224550
vt 0.989145 0.274353
vt 0.989145 0.268288
vt 0.986061 0.268288
vt 0.986061 0.274353
vt 0.986061 0.262223
vt 0.982978 0.262223
vt 0.982978 0.268288
vt 0.982978 0.274353
vt 0.989145 0.262223
vt 0.873841 0.736371
vt 0.955579 0.262223
vt 0.926136 0.345361
vt 0.913113 0.262223
vt 0.910030 0.262223
vt 0.906947 0.262223
vt 0.925565 0.541569
vt 0.934346 0.737777
vt 0.922188 0.737777
vt 0.910030 0.737777
vt 0.974197 0.541569
vt 0.982978 0.737777
vt 0.970820 0.737777
vt 0.958662 0.737777
vt 0.946504 0.737777
vt 0.934346 0.737777
vt 0.897872 0.737777
vt 0.885714 0.737777
vn -0.1724 -0.9850 0.0000
vn 0.2273 0.9738 0.0000
vn -0.0000 0.0000 1.0000
vn 0.2273 -0.9738 0.0000
vn -1.0000 0.0000 0.0000
vn 1.0000 0.0000 0.0000
vn -0.0000 0.0000 -1.0000
vn 0.1056 0.5307 0.8409
vn 0.0704 0.0000 0.9975
vn -0.1724 0.9850 0.0000
vn 0.0704 0.0000 -0.9975
vn -0.0824 0.0000 -0.9966
vn 0.1935 -0.9811 0.0000
vn 0.1935 0.9811 0.0000
vn -0.0824 -0.0000 0.9966
vn 0.1056 -0.5307 0.8409
vn 0.1056 0.5307 -0.8409
vn 0.1056 -0.5307 -0.8409
vn -0.3024 0.0000 0.9532
vn 0.0000 1.0000 0.0000
vn 0.0000 -1.0000 0.0000
vn -0.3024 0.0000 -0.9532
vn 0.3486 0.9373 0.0000
vn -0.2687 -0.9632 0.0000
vn -0.2687 0.9632 0.0000
vn 0.3486 -0.9373 0.0000
vn 0.3127 -0.9499 0.0000
vn 0.3127 0.9499 0.0000
vn -0.2397 -0.9708 0.0000
vn -0.2397 0.9708 0.0000
usemtl Material.007
s off
f 20/1/1 1/2/1 65/3/1 13/4/1
f 19/5/2 2/6/2 72/7/2 41/8/2
f 26/9/3 69/10/3 66/11/3 50/12/3
f 49/13/4 70/14/4 71/15/4 14/16/4
f 21/17/1 8/18/1 9/19/1 11/20/1
f 1/21/5 83/22/5 86/23/5 65/24/5
f 70/25/6 81/26/6 89/27/6 71/28/6
f 5/29/5 76/30/5 93/31/5 4/32/5
f 64/33/5 62/34/5 61/35/5 63/36/5
f 2/37/6 78/38/6 79/39/6 72/40/6
f 4/32/5 93/31/5 80/41/5 3/42/5
f 65/24/5 86/23/5 88/43/5 69/44/5
f 72/45/6 79/46/6 87/47/6 8/48/6
f 14/16/4 71/15/4 73/49/4 56/50/4
f 17/51/6 10/52/6 22/53/6 51/54/6
f 11/20/1 9/19/1 1/2/1 20/1/1
f 13/4/1 65/3/1 69/55/1 26/56/1
f 23/57/6 37/58/6 21/59/6 11/60/6
f 45/61/6 23/57/6 11/60/6 20/62/6
f 24/63/6 12/64/6 18/65/6 39/66/6
f 71/28/6 89/27/6 77/67/6 73/68/6
f 52/69/7 3/70/7 70/71/7 49/72/7
f 44/73/3 75/74/3 68/75/3 24/76/3
f 38/77/6 25/78/6 13/79/6 26/80/6
f 15/81/2 67/82/2 74/83/2 53/84/2
f 38/85/8 166/86/8 32/87/8 31/88/8 45/89/8 25/90/8
f 181/91/9 170/92/9 32/93/9 166/94/9
f 25/78/6 45/61/6 20/62/6 13/79/6
f 12/95/10 7/96/10 5/97/10 17/98/10
f 180/99/11 172/100/11 34/101/11 177/102/11
f 179/103/11 171/104/11 35/105/11 27/106/11
f 49/72/12 60/107/12 42/108/12 36/109/12 52/69/12
f 34/110/13 164/111/13 160/112/13 29/113/13
f 33/114/7 162/115/7 157/116/7 35/105/7 171/104/7
f 31/88/14 158/117/14 162/118/14 33/119/14
f 40/120/15 38/121/15 26/9/15 50/12/15 57/122/15
f 29/113/13 160/112/13 161/123/13 28/124/13
f 51/125/16 29/113/16 28/124/16 175/126/16 39/127/16 18/128/16
f 10/52/6 52/129/6 36/130/6 22/53/6
f 45/89/17 31/88/17 33/119/17 165/131/17 37/132/17 23/133/17
f 53/84/2 74/83/2 2/6/2 19/5/2
f 178/134/9 167/135/9 30/136/9 176/137/9
f 46/138/12 54/139/12 48/140/12 37/141/12 169/142/12
f 36/109/12 42/108/12 54/139/12 46/138/12 168/143/12
f 43/144/15 39/145/15 174/146/15 47/147/15 55/148/15
f 58/149/15 44/73/15 24/76/15 39/145/15 43/144/15
f 55/148/15 47/147/15 173/150/15 38/121/15 40/120/15
f 37/141/12 48/140/12 59/151/12 41/152/12 21/153/12
f 12/64/6 17/51/6 51/54/6 18/65/6
f 10/154/10 4/155/10 3/156/10 52/157/10
f 36/158/18 177/159/18 34/110/18 29/113/18 51/125/18 22/160/18
f 62/161/19 58/149/19 43/144/19 55/148/19 40/120/19 57/122/19 61/162/19
f 57/163/20 50/164/20 15/81/20 53/84/20 19/5/20 41/8/20 59/165/20 63/166/20 61/167/20
f 62/168/21 64/169/21 60/170/21 49/13/21 14/16/21 56/50/21 16/171/21 44/172/21 58/173/21
f 60/107/22 64/174/22 63/175/22 59/151/22 48/140/22 54/139/22 42/108/22
f 41/152/7 72/176/7 8/177/7 21/153/7
f 50/164/2 66/178/2 67/82/2 15/81/2
f 24/179/10 68/180/10 7/96/10 12/95/10
f 17/98/10 5/97/10 4/155/10 10/154/10
f 56/50/4 73/49/4 6/181/4 16/171/4
f 16/171/4 6/181/4 75/182/4 44/172/4
f 78/183/23 98/184/23 99/185/23 79/186/23
f 85/187/23 105/188/23 102/189/23 82/190/23
f 86/191/24 106/192/24 108/193/24 88/194/24
f 90/195/25 110/196/25 114/197/25 94/198/25
f 84/199/26 104/200/26 111/201/26 91/202/26
f 79/203/7 99/204/7 107/205/7 87/206/7
f 95/207/24 115/208/24 103/209/24 83/210/24
f 87/211/24 107/212/24 115/208/24 95/207/24
f 3/213/6 80/214/6 81/215/6 70/216/6
f 75/217/6 91/218/6 90/219/6 68/220/6
f 7/221/5 94/222/5 76/30/5 5/29/5
f 69/223/6 88/224/6 92/225/6 66/226/6
f 8/48/5 87/47/5 95/227/5 9/228/5
f 74/229/6 82/230/6 78/38/6 2/37/6
f 9/228/5 95/227/5 83/22/5 1/21/5
f 6/231/6 84/232/6 91/233/6 75/234/6
f 73/68/6 77/67/6 84/232/6 6/231/6
f 68/220/5 90/219/5 94/222/5 7/221/5
f 67/235/6 85/236/6 82/230/6 74/229/6
f 66/237/6 92/238/6 85/236/6 67/235/6
f 107/239/5 127/240/5 135/241/5 115/242/5
f 114/243/5 134/244/5 116/245/5 96/246/5
f 103/247/5 123/248/5 126/249/5 106/250/5
f 97/251/6 117/252/6 124/253/6 104/254/6
f 96/246/5 116/245/5 133/255/5 113/256/5
f 113/256/5 133/255/5 120/257/5 100/258/5
f 102/259/6 122/260/6 118/261/6 98/262/6
f 108/263/3 128/264/3 132/265/3 112/266/3
f 92/267/23 112/268/23 105/188/23 85/187/23
f 81/269/26 101/270/26 109/271/26 89/272/26
f 89/272/26 109/271/26 97/273/26 77/274/26
f 80/275/7 100/276/7 101/277/7 81/278/7
f 91/279/3 111/280/3 110/281/3 90/282/3
f 88/283/3 108/284/3 112/285/3 92/286/3
f 82/190/23 102/189/23 98/184/23 78/183/23
f 93/287/25 113/288/25 100/289/25 80/290/25
f 76/291/25 96/292/25 113/288/25 93/287/25
f 77/274/26 97/273/26 104/200/26 84/199/26
f 83/210/24 103/209/24 106/192/24 86/191/24
f 94/198/25 114/197/25 96/292/25 76/291/25
f 120/293/7 140/294/7 141/295/7 121/296/7
f 129/297/27 149/298/27 137/299/27 117/300/27
f 121/301/27 141/302/27 149/298/27 129/297/27
f 132/303/28 152/304/28 145/305/28 125/306/28
f 118/307/28 138/308/28 139/309/28 119/310/28
f 125/306/28 145/305/28 142/311/28 122/312/28
f 126/313/29 146/314/29 148/315/29 128/316/29
f 130/317/30 150/318/30 154/319/30 134/320/30
f 115/242/5 135/241/5 123/248/5 103/247/5
f 99/321/6 119/322/6 127/240/6 107/239/6
f 104/254/6 124/253/6 131/323/6 111/324/6
f 110/325/5 130/326/5 134/244/5 114/243/5
f 106/250/5 126/249/5 128/264/5 108/263/5
f 105/327/6 125/328/6 122/260/6 102/259/6
f 98/262/6 118/261/6 119/329/6 99/330/6
f 112/331/6 132/332/6 125/328/6 105/327/6
f 101/333/6 121/334/6 129/335/6 109/336/6
f 109/336/6 129/335/6 117/252/6 97/251/6
f 100/258/3 120/257/3 121/337/3 101/338/3
f 111/339/6 131/340/6 130/326/6 110/325/6
f 144/341/6 137/342/6 136/343/6 154/344/6
f 155/345/6 147/346/6 139/347/6 138/348/6
f 137/342/6 149/349/6 153/350/6 136/343/6
f 143/351/6 155/345/6 138/348/6 142/352/6
f 146/353/6 143/351/6 142/352/6 145/354/6
f 148/355/6 146/353/6 145/354/6 152/356/6
f 151/357/6 144/341/6 154/344/6 150/358/6
f 149/349/6 141/359/6 140/360/6 153/350/6
f 131/361/3 151/362/3 150/363/3 130/364/3
f 128/365/3 148/366/3 152/367/3 132/368/3
f 122/312/28 142/311/28 138/308/28 118/307/28
f 133/369/30 153/370/30 140/371/30 120/372/30
f 116/373/30 136/374/30 153/370/30 133/369/30
f 117/300/27 137/299/27 144/375/27 124/376/27
f 123/377/29 143/378/29 146/314/29 126/313/29
f 134/320/30 154/319/30 136/374/30 116/373/30
f 127/379/29 147/380/29 155/381/29 135/382/29
f 135/382/29 155/381/29 143/378/29 123/377/29
f 119/383/7 139/384/7 147/385/7 127/386/7
f 124/376/27 144/375/27 151/387/27 131/388/27
f 161/389/6 160/390/6 156/391/6 159/392/6
f 156/391/6 157/393/6 162/394/6 158/395/6
f 159/392/6 156/391/6 158/395/6 163/396/6
f 160/390/6 164/397/6 157/393/6 156/391/6
f 32/87/14 163/398/14 158/117/14 31/88/14
f 35/105/7 157/116/7 164/399/7 34/101/7 172/100/7
f 28/400/3 161/401/3 159/402/3 30/136/3 167/135/3
f 30/136/3 159/402/3 163/403/3 32/93/3 170/92/3
f 175/404/9 28/400/9 167/135/9 178/134/9
f 39/405/9 175/404/9 178/134/9 174/406/9
f 174/406/9 178/134/9 176/137/9 47/407/9
f 165/408/11 33/114/11 171/104/11 179/103/11
f 37/409/11 165/408/11 179/103/11 169/410/11
f 169/410/11 179/103/11 27/106/11 46/411/11
f 27/106/11 35/105/11 172/100/11 180/99/11
f 46/411/11 27/106/11 180/99/11 168/412/11
f 168/412/11 180/99/11 177/102/11 36/413/11
f 176/137/9 30/136/9 170/92/9 181/91/9
f 47/407/9 176/137/9 181/91/9 173/414/9
f 173/414/9 181/91/9 166/94/9 38/415/9
