# Blender v2.93.18 OBJ File: 'tools.blend'
# www.blender.org
mtllib pyramid_gate_upper.mtl
o pyramid_gate_upper_Cone
v 0.000000 -0.469599 0.000000
v -0.594272 -0.469599 -0.598436
v 0.598436 -0.469599 -0.594272
v 0.594272 -0.469599 0.598436
v -0.598436 -0.469599 0.594272
v 0.000000 0.752686 0.000000
v 0.299218 -0.469599 -0.297136
v -0.297136 -0.469599 -0.299218
v 0.002082 -0.469599 -0.596354
v -0.297136 0.141543 -0.299218
v 0.299218 0.141543 -0.297136
v 0.297136 -0.469599 0.299218
v 0.596354 -0.469599 0.002082
v 0.297136 0.141543 0.299218
v -0.299218 -0.469599 0.297136
v -0.002082 -0.469599 0.596354
v -0.299218 0.141543 0.297136
v -0.596354 -0.469599 -0.002082
v 0.002082 0.735896 0.596354
v -0.297136 0.124754 0.299218
v 0.299218 0.124754 0.297136
v 0.596354 0.735896 -0.002082
v 0.297136 0.124754 -0.299218
v -0.002082 0.735896 -0.596354
v -0.299218 0.124754 -0.297136
v -0.596354 0.735896 0.002082
vt 0.750000 0.250000
vt 0.750000 0.370000
vt 0.870000 0.250000
vt 0.250000 0.490000
vt 0.250000 0.370000
vt 0.370000 0.370000
vt 0.750000 0.130000
vt 0.490000 0.250000
vt 0.370000 0.250000
vt 0.370000 0.130000
vt 0.630000 0.250000
vt 0.250000 0.010000
vt 0.250000 0.130000
vt 0.130000 0.130000
vt 0.010000 0.250000
vt 0.130000 0.250000
vt 0.130000 0.370000
vt 0.250000 0.250000
vt 0.630000 0.370000
vt 0.750000 0.490000
vt 0.510000 0.250000
vt 0.630000 0.130000
vt 0.750000 0.010000
vt 0.870000 0.130000
vt 0.990000 0.250000
vt 0.870000 0.370000
vt 0.130000 0.370000
vt 0.130000 0.250000
vt 0.250000 0.370000
vt 0.130000 0.130000
vt 0.250000 0.130000
vt 0.370000 0.130000
vt 0.370000 0.250000
vt 0.370000 0.370000
vn 0.0000 -1.0000 0.0000
vn 0.0031 0.4385 -0.8987
vn 0.8987 0.4385 0.0031
vn -0.0031 0.4385 0.8987
vn -0.8987 0.4385 -0.0031
vn -0.8987 -0.4385 0.0031
vn -0.0031 -0.4385 -0.8987
vn 0.8987 -0.4385 -0.0031
vn 0.0031 -0.4385 0.8987
g pyramid_gate_upper_Cone_None
usemtl None
s off
f 1/1/1 8/2/1 7/3/1
f 2/4/2 10/5/2 9/6/2
f 1/1/1 7/3/1 12/7/1
f 3/8/3 11/9/3 13/10/3
f 1/1/1 12/7/1 15/11/1
f 4/12/4 14/13/4 16/14/4
f 1/1/1 15/11/1 8/2/1
f 5/15/5 17/16/5 18/17/5
f 18/17/5 10/5/5 2/4/5
f 18/17/5 17/16/5 10/5/5
f 17/16/5 6/18/5 10/5/5
f 8/2/1 18/19/1 2/20/1
f 8/2/1 15/11/1 18/19/1
f 15/11/1 5/21/1 18/19/1
f 16/14/4 17/16/4 5/15/4
f 16/14/4 14/13/4 17/16/4
f 14/13/4 6/18/4 17/16/4
f 15/11/1 16/22/1 5/21/1
f 15/11/1 12/7/1 16/22/1
f 12/7/1 4/23/1 16/22/1
f 13/10/3 14/13/3 4/12/3
f 13/10/3 11/9/3 14/13/3
f 11/9/3 6/18/3 14/13/3
f 12/7/1 13/24/1 4/23/1
f 12/7/1 7/3/1 13/24/1
f 7/3/1 3/25/1 13/24/1
f 9/6/2 11/9/2 3/8/2
f 9/6/2 10/5/2 11/9/2
f 10/5/2 6/18/2 11/9/2
f 7/3/1 9/26/1 3/25/1
f 7/3/1 8/2/1 9/26/1
f 8/2/1 2/20/1 9/26/1
f 26/27/6 25/28/6 20/29/6
f 24/30/7 23/31/7 25/28/7
f 22/32/8 21/33/8 23/31/8
f 19/34/9 20/29/9 21/33/9
