# Blender v2.93.18 OBJ File: 'tools.blend'
# www.blender.org
mtllib pyramid_gate_lower.mtl
o pyramid_gate_lower_Cone.001
v -1.088329 -0.495581 -1.095954
v 1.095954 -0.495581 -1.088329
v 1.088329 -0.495581 1.095954
v -1.095954 -0.495581 1.088329
v -1.068980 -0.483713 -0.003731
v 0.547977 -0.495581 -0.544165
v -0.544165 -0.495581 -0.547977
v 0.003812 -0.495581 -1.092142
v -0.544165 0.623644 -0.547977
v 0.547977 0.623644 -0.544165
v 0.544165 -0.495581 0.547977
v 1.092142 -0.495581 0.003812
v 0.544165 0.623644 0.547977
v -0.547977 -0.495581 0.544165
v -0.003812 -0.495581 1.092142
v -0.547977 0.623644 0.544165
v -1.092142 -0.495581 -0.003812
v -0.532624 0.611776 -0.536356
v -0.536356 0.611776 0.532624
v -0.003732 -0.483713 1.068980
v 0.532624 0.611776 0.536356
v 1.068980 -0.483713 0.003731
v 0.536356 0.611776 -0.532624
v 0.003731 -0.483713 -1.068980
v 0.547977 -2.028418 -0.544165
v 0.544165 -2.028418 0.547977
v -0.547977 -2.028418 0.544165
v -0.544165 -2.028418 -0.547977
vt 0.630000 0.250000
vt 0.750000 0.370000
vt 0.750000 0.370000
vt 0.630000 0.250000
vt 0.250000 0.490000
vt 0.250000 0.370000
vt 0.370000 0.370000
vt 0.750000 0.130000
vt 0.750000 0.130000
vt 0.490000 0.250000
vt 0.370000 0.250000
vt 0.370000 0.130000
vt 0.870000 0.250000
vt 0.870000 0.250000
vt 0.250000 0.010000
vt 0.250000 0.130000
vt 0.130000 0.130000
vt 0.010000 0.250000
vt 0.130000 0.250000
vt 0.130000 0.370000
vt 0.000000 0.000000
vt 0.000000 0.000000
vt 0.000000 0.000000
vt 0.000000 0.000000
vt 0.370000 0.370000
vt 0.250000 0.370000
vt 0.370000 0.250000
vt 0.630000 0.370000
vt 0.750000 0.490000
vt 0.510000 0.250000
vt 0.370000 0.130000
vt 0.250000 0.130000
vt 0.630000 0.130000
vt 0.750000 0.010000
vt 0.130000 0.130000
vt 0.130000 0.250000
vt 0.870000 0.130000
vt 0.990000 0.250000
vt 0.000000 0.000000
vt 0.000000 0.000000
vt 0.130000 0.370000
vt 0.870000 0.370000
vt 0.000000 0.000000
vt 0.000000 0.000000
vn -1.0000 0.0000 -0.0035
vn 0.0031 0.4385 -0.8987
vn -0.0035 0.0000 1.0000
vn 0.8987 0.4385 0.0031
vn 1.0000 0.0000 0.0035
vn -0.0031 0.4385 0.8987
vn 0.0035 0.0000 -1.0000
vn -0.8987 0.4385 -0.0031
vn -0.7157 -0.6984 -0.0025
vn 0.0000 -1.0000 0.0000
vn 0.8083 0.5252 -0.2663
vn 0.2719 0.5252 -0.8064
vn -0.0025 -0.6984 0.7157
vn 0.8064 0.5252 0.2719
vn 0.2663 0.5252 0.8082
vn 0.0025 -0.6984 -0.7157
vn -0.2719 0.5252 0.8064
vn -0.8083 0.5252 0.2663
vn 0.7157 -0.6984 0.0025
vn -0.8064 0.5252 -0.2719
vn -0.2663 0.5252 -0.8083
g pyramid_gate_lower_Cone.001_None
usemtl None
s off
f 14/1/1 7/2/1 28/3/1 27/4/1
f 1/5/2 9/6/2 8/7/2
f 11/8/3 14/1/3 27/4/3 26/9/3
f 2/10/4 10/11/4 12/12/4
f 6/13/5 11/8/5 26/9/5 25/14/5
f 3/15/6 13/16/6 15/17/6
f 7/2/7 6/13/7 25/14/7 28/3/7
f 4/18/8 16/19/8 17/20/8
f 17/20/8 9/6/8 1/5/8
f 16/21/9 9/22/9 18/23/9 19/24/9
f 24/25/2 18/26/2 23/27/2
f 7/2/10 17/28/10 1/29/10
f 7/2/10 14/1/10 17/28/10
f 14/1/10 4/30/10 17/28/10
f 15/17/6 16/19/6 4/18/6
f 8/7/11 9/6/11 18/26/11 24/25/11
f 22/31/4 23/27/4 21/32/4
f 14/1/10 15/33/10 4/30/10
f 14/1/10 11/8/10 15/33/10
f 11/8/10 3/34/10 15/33/10
f 12/12/4 13/16/4 3/15/4
f 13/16/12 12/12/12 22/31/12 21/32/12
f 20/35/6 21/32/6 19/36/6
f 11/8/10 12/37/10 3/34/10
f 11/8/10 6/13/10 12/37/10
f 6/13/10 2/38/10 12/37/10
f 8/7/2 10/11/2 2/10/2
f 13/39/13 16/21/13 19/24/13 21/40/13
f 5/41/8 19/36/8 18/26/8
f 6/13/10 8/42/10 2/38/10
f 6/13/10 7/2/10 8/42/10
f 7/2/10 1/29/10 8/42/10
f 16/19/14 15/17/14 20/35/14 19/36/14
f 12/12/15 10/11/15 23/27/15 22/31/15
f 9/22/16 10/43/16 23/44/16 18/23/16
f 9/6/17 17/20/17 5/41/17 18/26/17
f 15/17/18 13/16/18 21/32/18 20/35/18
f 10/43/19 13/39/19 21/40/19 23/44/19
f 10/11/20 8/7/20 24/25/20 23/27/20
f 17/20/21 16/19/21 19/36/21 5/41/21
