# Blender v2.93.18 OBJ File: 'spaceship.blend'
# www.blender.org
mtllib spaceship_gate_rigth.mtl
o Cube.001_Cube.001_Cube.001_Cube.002
v 0.564087 2.192421 1.503179
v 0.301517 1.613347 1.550462
v 0.691071 1.829912 -1.061554
v 0.822356 2.370499 -1.191287
v 0.038946 1.034273 1.597746
v 0.559786 1.289325 -0.931822
v -0.223624 0.455199 1.645029
v 0.428501 0.748738 -0.802089
v -0.486194 -0.123874 1.692313
v 0.297216 0.208151 -0.672357
vt 0.534693 0.625000
vt 0.494770 0.625000
vt 0.528635 0.437500
vt 0.579847 0.437500
vt 0.454847 0.625000
vt 0.477423 0.437500
vt 0.414923 0.625000
vt 0.426212 0.437500
vt 0.375000 0.625000
vt 0.375000 0.437500
vn 0.9438 -0.3175 0.0916
vn 0.9409 -0.3091 0.1382
vn 0.9355 -0.2994 0.1875
vn 0.9272 -0.2883 0.2391
usemtl Material.002
s 1
f 1/1/1 2/2/1 3/3/1 4/4/1
f 2/2/2 5/5/2 6/6/2 3/3/2
f 5/5/3 7/7/3 8/8/3 6/6/3
f 7/7/4 9/9/4 10/10/4 8/8/4
