# Blender v2.93.18 OBJ File: 'spaceship.blend'
# www.blender.org
mtllib spaceship_gate_left.mtl
o Cube.001_Cube.003
v 0.486193 -0.123875 1.692307
v 0.223622 0.455199 1.645024
v -0.428508 0.748737 -0.802094
v -0.297222 0.208150 -0.672361
v -0.038948 1.034273 1.597740
v -0.559793 1.289325 -0.931826
v -0.301518 1.613347 1.550457
v -0.691078 1.829912 -1.061558
v -0.564088 2.192421 1.503174
v -0.822363 2.370499 -1.191291
vt 0.375000 0.598530
vt 0.421541 0.598530
vt 0.429520 0.549265
vt 0.375000 0.549265
vt 0.468082 0.598530
vt 0.484041 0.549265
vt 0.514622 0.598530
vt 0.538561 0.549265
vt 0.561163 0.598530
vt 0.593082 0.549265
vn -0.9272 -0.2883 0.2391
vn -0.9355 -0.2994 0.1875
vn -0.9409 -0.3091 0.1383
vn -0.9438 -0.3175 0.0916
usemtl Material.002
s 1
f 1/1/1 2/2/1 3/3/1 4/4/1
f 2/2/2 5/5/2 6/6/2 3/3/2
f 5/5/3 7/7/3 8/8/3 6/6/3
f 7/7/4 9/9/4 10/10/4 8/8/4
