# Blender v2.93.18 OBJ File: 'tools.blend'
# www.blender.org
mtllib torch.mtl
o Cube_Cube.006
v -0.038521 0.123115 0.431558
v 0.038521 0.123115 0.431558
v -0.038521 -0.123115 0.431558
v 0.038521 -0.123115 0.431558
v 0.130910 -0.136589 0.503419
v 0.130910 0.136589 0.503419
v -0.130910 -0.136589 0.503419
v -0.130910 0.136589 0.503419
v 0.059024 -0.136589 0.424295
v 0.038521 -0.123115 0.415941
v 0.059024 0.136589 0.424295
v 0.038521 0.123115 0.415941
v -0.038521 -0.123115 0.415941
v -0.059024 -0.136589 0.424295
v -0.059024 0.136589 0.424295
v -0.038521 0.123115 0.415941
vt 0.173234 0.685596
vt 0.173234 0.856124
vt 0.361766 0.856124
vt 0.361766 0.685596
vt 0.654831 0.031385
vt 0.654831 0.218615
vt 0.880169 0.218615
vt 0.880169 0.031385
vt 0.173234 0.497065
vt 0.361766 0.497065
vt 0.532293 0.685596
vt 0.532293 0.497065
vt 0.352466 0.284866
vt 0.352466 0.284866
vt 0.182534 0.284866
vt 0.182534 0.284866
vt 0.173234 0.326537
vt 0.361766 0.326537
vt 0.173234 0.308534
vt 0.182534 0.143671
vt 0.173234 0.120003
vt 0.352466 0.143671
vt 0.361766 0.120003
vt 0.361766 0.308534
vt 0.002707 0.497065
vt 0.002707 0.685596
vt 0.352466 0.143671
vt 0.182534 0.143671
vn 0.7402 0.0000 -0.6724
vn 0.0000 0.0000 -1.0000
vn 0.0000 0.0000 1.0000
vn 0.0000 1.0000 0.0000
vn 1.0000 0.0000 0.0000
vn -0.7402 0.0000 -0.6724
vn 0.0000 -0.5269 -0.8499
vn 0.3773 0.0000 -0.9261
vn 0.0000 0.5269 -0.8499
vn -0.3773 0.0000 -0.9261
vn 0.0000 -1.0000 0.0000
vn -1.0000 0.0000 0.0000
g Cube_Cube.006_None
usemtl None
s off
f 5/1/1 9/2/1 11/3/1 6/4/1
f 4/5/2 3/6/2 1/7/2 2/8/2
f 7/9/3 5/1/3 6/4/3 8/10/3
f 8/10/4 6/4/4 11/11/4 15/12/4
f 16/13/5 1/14/5 3/15/5 13/16/5
f 14/17/6 7/9/6 8/10/6 15/18/6
f 14/19/7 13/16/7 10/20/7 9/21/7
f 9/21/8 10/20/8 12/22/8 11/23/8
f 11/23/9 12/22/9 16/13/9 15/24/9
f 15/18/10 16/13/10 13/16/10 14/17/10
f 14/25/11 9/26/11 5/1/11 7/9/11
f 12/22/11 2/27/11 1/14/11 16/13/11
f 13/16/4 3/15/4 4/28/4 10/20/4
f 10/20/12 4/28/12 2/27/12 12/22/12
